<svg width="200" height="100" viewBox="0 0 200 100" fill="none" xmlns="http://www.w3.org/2000/svg">
<g opacity="0.3" clip-path="url(#clip0_944_2204)">
<path d="M125.141 0.324059C124.844 0.879616 125.109 1.5432 126.328 3.33332C126.969 4.27467 127.5 5.12344 127.5 5.23147C127.5 5.49381 126.719 5.43208 124.719 5.01542C122.172 4.45986 120.641 4.41357 116.328 4.69135C114.266 4.83023 111.906 4.93826 111.094 4.93826C108.703 4.93826 108.672 5.16974 110.781 6.72838L112.219 7.7932L109.125 7.88579C106.516 7.96295 105.641 8.07098 103.672 8.45678C102.391 8.71912 100.391 9.07406 99.25 9.24381C96.9843 9.59875 96.5625 9.73764 96.5625 10.1852C96.5625 10.5092 96.5781 10.5092 98.3125 10.8796C98.9843 11.0185 99.6718 11.25 99.875 11.4043L100.219 11.6821L99.8593 11.8827C99.6562 11.9753 98.5156 12.1296 97.3281 12.2068C93.8593 12.4228 90.9843 13.1327 88.5625 14.3827C87.2968 15.0309 86.4062 15.8488 86.4062 16.358C86.4062 16.7747 87.0312 17.1913 88.2656 17.5926C90 18.1327 90.1093 18.642 88.5468 18.8889C86.7343 19.1821 83.5937 20.2778 80.2031 21.821C78.4843 22.608 77.8437 22.8241 76.5312 23.071C75.25 23.3179 76.7812 24.2284 79.1093 24.6142C79.4218 24.6605 79.6875 24.7531 79.6875 24.8148C79.6875 24.892 78.8593 25.1389 77.8593 25.3704C73.8125 26.3426 69.5781 27.8395 68 28.858C66.3906 29.8765 66.5625 30.5555 68.4843 30.8642C71.1093 31.2809 71.7812 31.4815 71.5312 31.713C71.4843 31.7747 70.8906 31.9444 70.2187 32.1142C69.5468 32.2839 68.8437 32.5463 68.6718 32.716C68.4843 32.8858 68.2187 33.0247 68.0625 33.0247C67.2812 33.0247 58.75 37.1759 57.9843 37.9321C57.6562 38.2562 57.6406 38.3179 57.8593 38.5339C58.0156 38.6883 58.6875 38.858 59.6562 38.9815C60.5156 39.0895 61.5156 39.2593 61.8906 39.3518L62.5625 39.537L62.0312 39.7685C61.7343 39.892 60.1875 40.5093 58.6093 41.142C55.2187 42.5154 54.5625 42.8241 52.8281 43.9352C51.1093 45.0309 49.8437 46.2963 49.8437 46.9136C49.8437 47.1605 49.9375 47.4074 50.0468 47.4846C50.1406 47.5463 51 47.608 51.9375 47.608C53.1562 47.608 53.6562 47.6697 53.7031 47.7932C53.75 47.9321 53.625 47.9938 53.3281 47.9938C52.75 47.9938 51.5156 48.5802 49.9531 49.5833C48.4687 50.5401 47.4531 51.3734 45.1406 53.4876C43.0781 55.3858 42.0312 56.5586 42.0312 56.9444C42.0312 57.3765 42.8906 57.3457 44.5468 56.8827C45.2656 56.6667 45.8906 56.5278 45.9062 56.5586C46.0625 56.6975 44.625 58.1636 40.5312 62.1142C38.0781 64.4753 36.0156 66.5278 35.9218 66.713C35.75 67.0216 35.7656 67.0216 36.9687 66.929C37.6562 66.8673 38.375 66.7747 38.5937 66.7284C38.875 66.6512 38.4843 67.1296 37.1875 68.4568C36.1875 69.4599 34.4375 71.358 33.2968 72.6389C31 75.2623 29.5156 76.5895 28.4062 77.0525C27.9843 77.2222 27.6562 77.4228 27.6562 77.5154C27.6562 77.7006 29.3437 77.5617 30.8593 77.2376C33.0781 76.7438 32.9843 76.7284 32.1875 77.4846C26.0156 83.2562 23.2968 85.7253 22.9531 85.8333C22.5625 85.9568 22.9531 86.4043 23.5468 86.4969C24.8437 86.6821 25.2343 86.8055 25.2812 87.0525C25.3437 87.3611 19.5937 90.8642 16.6406 92.3302C11.2812 94.9691 4.5937 97.4846 2.04682 97.8395C0.718698 98.0092 0.109323 98.3642 0.0311984 98.9506C-0.0469266 99.5525 0.343698 99.8148 1.51557 99.9383C2.7187 100.062 6.60932 99.9383 9.06245 99.6913C12.4843 99.3518 22.3593 97.7932 26.1875 96.9907C27.2031 96.7901 28.0625 96.6358 28.0937 96.6821C28.125 96.713 27.8281 97.0833 27.4375 97.5C27.0468 97.9167 26.7187 98.3025 26.7187 98.3642C26.7187 98.5957 28.0781 99.0741 28.7187 99.0741C30.3906 99.0741 34.0781 98.2562 37.1093 97.2068C38.1093 96.8673 38.9687 96.6204 39.0312 96.6667C39.0781 96.7284 39 97.0062 38.8593 97.2994C38.5312 97.9784 38.5156 98.6728 38.8281 98.9197C39.1718 99.1975 40.0625 99.0278 43.75 97.9938C47.0625 97.0525 49.1406 96.3734 50.5781 95.7562C51.0312 95.5555 51.4062 95.4321 51.4062 95.4784C51.4062 95.5092 51.2812 95.7407 51.1093 95.9568C50.3125 97.0833 50.6093 97.5617 52.125 97.6543C54.1406 97.7778 56.7187 97.1142 60.125 95.5401C62.2031 94.5988 62.4531 94.4907 63.1718 94.2901C63.6406 94.1358 63.6406 94.1821 63.0156 95C61.9375 96.4197 63.4687 96.7901 67.1875 95.9722C69.6093 95.4475 71.7343 94.6142 73.4218 93.5494C75 92.5309 75.2187 92.716 74.2812 94.2747C73.1875 96.0957 73.7968 96.2346 77.5 94.9691C80.8593 93.8426 85.7968 91.9136 86.8437 91.3426C88.1093 90.6481 88.2031 90.7562 87.5625 92.2685C87.2656 92.9784 87.0468 93.6574 87.0937 93.7654C87.3281 94.3673 88.6093 93.8889 94.375 91.0494C98.3906 89.0586 100.031 88.3025 100.891 88.0555L101.234 87.9475L100.844 88.8272C100.594 89.3673 100.469 89.9228 100.5 90.2623C100.547 90.787 100.578 90.8179 101.141 90.8642C102 90.9413 103.828 90.0154 106.984 87.9167C109.828 86.0185 113.578 83.7191 113.672 83.8117C113.781 83.9352 112.969 86.7901 112.656 87.2994C112.266 87.963 112.25 87.963 112.797 87.963C113.469 87.963 115.109 87.4074 116.172 86.8364C120.656 84.3827 123.766 82.5 125.672 81.0648C126.156 80.6944 126.562 80.4321 126.562 80.4784C126.562 80.5401 126.344 81.0802 126.062 81.6821C125.734 82.4228 125.562 83.0555 125.562 83.5648C125.547 84.8148 125.797 84.7376 129.328 82.3148C134.5 78.7654 135.469 77.9167 137.984 74.5833C138.828 73.4722 139.594 72.5 139.703 72.4383C139.906 72.3302 139.875 72.5 139.547 74.0741C139.312 75.108 139.328 77.8241 139.578 78.1327C139.75 78.3796 139.859 78.3333 140.781 77.5772C142.844 75.9105 148.203 70.108 149.469 68.1944C150.687 66.358 150.937 66.4043 151.094 68.5031C151.203 69.9846 151.375 70.3704 151.984 70.3704C153.094 70.3704 156.203 65.8796 158.719 60.6481C160.234 57.4846 160.906 57.0216 161.781 58.6111C162.016 59.0586 162.312 59.4753 162.437 59.5216C163.016 59.7376 163.703 58.5339 165.766 53.75C167.516 49.6759 169.203 43.7654 170.406 37.5C171.922 29.5525 173.031 27.0679 176.719 23.2407C180.312 19.537 181.25 19.0432 194.766 13.8271C197.891 12.6234 198.562 12.2685 198.937 11.6512C199.187 11.2191 200.047 6.94443 199.906 6.80554C199.734 6.63579 197.641 7.33023 195.562 8.24073C192.859 9.429 185.984 11.8827 183.594 12.5309C179.969 13.4876 177.453 13.6728 173.906 13.2099C172.016 12.963 171.016 12.6697 167.031 11.142C161.437 9.01233 154.703 7.12962 148.437 5.94135C144.531 5.2006 142.984 4.8611 140.312 4.15122C139.062 3.82715 136.344 3.179 134.281 2.7006C128.859 1.46603 128.469 1.35801 127.281 0.648132C126.062 -0.0771713 125.422 -0.169769 125.141 0.324059ZM128.703 2.7006C129.703 2.90122 130.281 3.0864 132.344 3.82715C132.812 3.9969 134.219 4.32098 135.469 4.55245C136.719 4.7685 139.781 5.40122 142.266 5.94135C144.766 6.4969 147.641 7.08332 148.672 7.25307C151.359 7.7006 152.234 7.90122 156.953 9.19752C162.422 10.6944 164.672 11.4506 167.719 12.7932C171.969 14.6605 173.594 15.0154 177.969 15.0309C181.203 15.0309 182.156 14.8765 184.203 13.9815C184.859 13.7037 185.703 13.4105 186.094 13.3488C187.375 13.1327 193.234 10.9259 196.375 9.4753C197.187 9.10493 197.891 8.79628 197.937 8.79628C198.078 8.79628 197.828 10.8179 197.625 11.2346C197.453 11.5895 197.203 11.6975 195.703 12.0679C191.703 13.071 187.719 14.5988 183.297 16.821C180.031 18.4568 178.906 19.3055 176.219 22.1142C174.891 23.5185 173.469 25.0926 173.078 25.6327C170.734 28.8889 169.297 33.1018 168.594 38.8271C168.156 42.4074 166.953 47.037 165.516 50.6018C164.859 52.2531 163.375 55.5093 163.203 55.679C163.156 55.7253 162.703 55.3549 162.172 54.8611L161.203 53.9506L160.922 54.5062C160.766 54.8148 160.484 55.108 160.328 55.1697C159.781 55.3395 159.297 56.0802 158.781 57.5C157.656 60.6173 153.453 68.0555 152.812 68.0555C152.75 68.0555 152.656 67.7778 152.594 67.4228C152.344 65.8951 151.547 64.3518 151 64.3518C150.594 64.3518 149.672 65.3395 149.031 66.4197C147.922 68.3025 147.437 69.0278 146.844 69.7222C146.516 70.0926 146.25 70.4784 146.25 70.6018C146.25 70.9876 141.062 75.787 140.844 75.5864C140.812 75.5401 140.844 75.0309 140.937 74.4444C141.016 73.858 141.094 72.8086 141.094 72.1296C141.094 70.0309 140.516 70 138.672 71.9444C138 72.6543 137.547 73.0555 137.656 72.8395C137.766 72.6234 138.687 70.9722 139.719 69.1667C142.656 63.9506 144.437 60.2006 145.375 57.2839C145.812 55.8951 145.859 55.5555 145.625 55.5555C145.437 55.5555 144.984 56.4815 143.969 58.9506C142.5 62.4846 137.859 71.1111 135.781 74.1512C135.344 74.7839 134.812 75.4167 134.609 75.5555C134.391 75.6944 134.219 75.9259 134.219 76.0802C134.219 76.4969 133.547 77.2068 132.203 78.2562C131.547 78.75 130.594 79.5062 130.094 79.9228C129.094 80.7562 127.891 81.4506 127.734 81.2963C127.672 81.25 127.75 80.8333 127.875 80.3858C128.281 79.0586 128.219 78.642 127.469 77.8395L126.828 77.1451L125.719 78.287C123.891 80.1543 121.406 81.8827 117.062 84.3055C115.75 85.0463 114.656 85.6481 114.609 85.6481C114.469 85.6481 114.937 84.3827 115.484 83.3025C116.406 81.4815 116.25 80.4167 115.219 81.5278C114.719 82.0525 114.687 82.0679 114.531 81.7901C114.312 81.3734 113.609 81.3889 113 81.821C112.734 82.0216 111.969 82.5926 111.297 83.1173C108.984 84.892 104.578 87.6543 104.062 87.6543C103.922 87.6543 103.656 87.8549 103.469 88.1173C103.266 88.3642 103.047 88.5802 102.969 88.5802C102.703 88.5802 102.797 88.1327 103.281 87.037C103.937 85.571 104.031 85.0309 103.656 85.0309C103.484 85.0309 103.219 85.1389 103.062 85.2623C102.641 85.5864 102.562 85.5555 102.578 85.0617C102.578 84.429 102.031 84.429 101.219 85.0772C100.266 85.8333 96.9062 87.8549 93.6406 89.5988C92.1093 90.4167 90.5312 91.3272 90.1093 91.6204C89.7031 91.8981 89.2968 92.1296 89.2187 92.1296C89.0156 92.1296 89.4218 91.3272 90.0937 90.4012C91.2656 88.8272 91.5156 87.608 90.7031 87.4074C90.125 87.2685 89.4687 87.5463 86.8593 89.0741C83.8437 90.8333 79.5312 93.0092 78.7812 93.1481C78.4687 93.2099 78.1093 93.3796 77.9687 93.5494C77.8437 93.7037 77.4531 93.8734 77.125 93.9352C76.5156 94.0278 76.5156 94.0278 76.625 93.5957C76.6875 93.3642 76.9531 92.8549 77.2187 92.4691C78.1093 91.1883 77.9687 89.9537 76.875 89.5062C76.4375 89.321 76.3125 89.3364 75.7343 89.6451C75.375 89.8302 74.7343 90.2469 74.3281 90.571C72.1718 92.2531 66.9531 94.3827 65.7187 94.0741C65.3437 93.9815 65.3125 93.9043 65.3125 93.1944C65.3125 92.4074 65.0781 91.7438 64.5625 91.0957L64.2968 90.7407L62.4218 91.9907C60.0156 93.5957 57.1875 94.9691 55.4375 95.4012C54.2031 95.6944 54.0156 95.7099 53.4843 95.5092L52.8906 95.2778L52.8437 94.2901C52.7812 92.4537 52.6093 92.2685 51.6718 92.963C51.3906 93.179 50.7187 93.5031 50.1562 93.7191C49.5937 93.9352 48.2187 94.5216 47.1093 95.0154C45.9843 95.5247 44.5781 96.1265 43.9843 96.3426C43.375 96.5586 42.4375 96.9444 41.875 97.2068C41.3281 97.4691 40.8125 97.6234 40.7343 97.5463C40.6718 97.4846 40.9375 96.821 41.3281 96.0802C42.4062 94.0432 42.2343 93.3796 40.6562 93.6728C40.2968 93.7346 40 93.75 40 93.7037C40 93.6574 40.7031 92.9012 41.5625 92.0525C42.4218 91.1883 43.125 90.4012 43.125 90.2932C43.125 90 42.7187 90.2778 40.625 92.0525C37.6406 94.5679 36.0468 95.5247 34.8593 95.5247C34.6093 95.5247 34.25 95.6481 34.0468 95.8179C33.4687 96.25 32.5625 96.6821 31.0468 97.2068C29.5 97.7469 29.2187 97.7778 29.2187 97.4691C29.2187 97.0525 31.2968 95.0463 32.625 94.1821C34.1406 93.2099 35.5312 91.9753 35.875 91.3272C36.0781 90.9259 36.0781 90.8951 35.8125 90.8951C35.6406 90.8951 35.0937 91.2654 34.5781 91.713C33.1875 92.9475 32.6875 93.2562 32.2656 93.1636C31.9375 93.1018 31.8906 93.1481 31.9687 93.4413C32.125 94.0741 31.7968 94.1821 28.2031 94.5833C27.4375 94.6759 25.2812 95.1234 23.4375 95.5864C18.7031 96.7747 16.125 97.2839 11.1406 97.9938C6.24995 98.6883 6.24995 98.6883 6.24995 98.4105C6.24995 98.1481 6.42182 98.071 9.12495 97.0679C13.4218 95.4784 22 91.4815 24.4062 89.9383C24.9843 89.5833 25.75 89.1049 26.1093 88.8889C26.9687 88.3796 29.1093 86.142 29.5312 85.3395C30.1093 84.213 29.8125 84.0586 27.8906 84.5525C27.2968 84.7068 26.7031 84.7994 26.5937 84.7685C26.2343 84.6296 26.4687 84.0586 27.0312 83.75C27.3281 83.5957 28.1406 82.9167 28.8281 82.2685C29.7187 81.4506 30.5 80.8951 31.4218 80.4321C32.5 79.892 32.7812 79.6759 33 79.1975C33.1562 78.8889 33.7968 78.0864 34.4218 77.4383C35.2812 76.5278 35.6562 76.2346 35.9687 76.2346C36.1875 76.2346 37.1718 75.9568 38.1562 75.6018C39.125 75.2623 41.9687 74.3981 44.4531 73.6883C46.9531 72.9938 49.2343 72.2994 49.5312 72.1759C51.6093 71.2809 44.5 72.963 39.6406 74.5216C37.8281 75.108 36.2812 75.5555 36.2187 75.5247C36.1406 75.4784 36.0937 75.3241 36.0937 75.1697C36.0937 74.5062 35.0312 74.3055 34.3281 74.8457C33.9218 75.1543 33.5937 75.2469 33.5937 75.0309C33.5937 74.6759 38.4843 69.1975 39.4218 68.5031C39.7031 68.3025 40.1875 68.0092 40.5156 67.8395C41.7812 67.2222 43.2343 65.4784 42.8125 65.0617C42.7343 64.9846 42.6562 64.7068 42.6562 64.4599C42.6562 64.0278 42.625 64.0123 42.1562 64.1049C41.875 64.1512 41.2343 64.4136 40.7187 64.6759C39.6875 65.2006 39.375 65.1852 39.4843 64.5988C39.7343 63.3179 45.9531 57.8549 47.7031 57.392C48.4218 57.2068 49.8437 55.8951 49.8437 55.4167C49.8437 54.7376 47.4531 54.5833 45.7968 55.1697C45.4218 55.2932 45.0468 55.4012 44.9687 55.4012C44.7656 55.4012 45.1093 54.8302 45.75 54.1358C46.5937 53.2099 47.7812 52.4691 51.6093 50.5093C57.0937 47.6852 58.6093 46.713 58.1718 46.2809C57.9218 46.0339 56.9062 45.8488 55.7656 45.8333C52.1093 45.8179 53.3437 44.7994 60.3593 42.0679C63.3281 40.9105 65.1562 40.0463 65.1562 39.7994C65.1562 39.3981 63.9531 38.4568 63.1406 38.2099C62.6875 38.071 62.2031 37.8858 62.0937 37.7932C61.5468 37.3457 62.1093 36.5278 63.0625 36.3734C63.3593 36.3271 64.2968 35.9722 65.1406 35.5864C65.9843 35.2006 68.3125 34.3364 70.3125 33.6728C72.5937 32.9012 74.0625 32.3148 74.2812 32.1142L74.6093 31.7747L74.25 31.4815C74.0625 31.3271 73.1093 30.9413 72.1406 30.6327C70.2968 30.0154 69.3125 29.537 69.4687 29.3055C69.5156 29.2284 69.7031 29.1666 69.9062 29.1666C70.0937 29.1666 70.9843 28.8889 71.8906 28.5648C72.7812 28.2253 74.8125 27.6389 76.4062 27.2376C78 26.8518 79.6406 26.4197 80.0625 26.2809C80.7812 26.0494 80.8125 26.0185 80.7187 25.5864C80.6406 25.1543 80.6562 25.1234 80.9843 25.2315C81.8281 25.4938 82.2656 25.4938 82.5468 25.1852C82.9062 24.7994 82.7812 24.7068 81.1562 24.0123L79.9375 23.4722L81.0937 22.9166C81.8593 22.5617 82.4062 22.392 82.6718 22.4383C82.9375 22.4846 83.125 22.4228 83.25 22.2222C83.3593 22.0525 83.8281 21.821 84.3281 21.6821C84.8281 21.5432 85.5468 21.2963 85.9375 21.142C86.8593 20.7562 86.9687 20.7253 88.9062 20.4475C89.8125 20.3241 90.8906 20.108 91.2968 19.9691C91.9375 19.7531 92.0156 19.6913 91.7968 19.537C91.5625 19.3673 91.5625 19.3364 91.7812 19.1512C92.4375 18.6111 91.7812 17.9938 89.375 16.8364C87.9218 16.1265 87.5937 15.8951 87.7656 15.7253C87.8281 15.6636 89.0156 15.3241 90.3906 14.9846C94.25 14.0278 99.6875 13.287 102.891 13.2716C103.5 13.2716 104.141 13.2253 104.328 13.179C105.719 12.8086 103.516 11.2346 101.281 11.0031C100.266 10.8951 100.297 10.6636 101.375 10.3086C103.219 9.72221 105.125 9.50616 108.641 9.50616C111.937 9.49073 112.062 9.50616 112.312 9.8148C112.547 10.108 112.797 10.1697 114.141 10.2469C115 10.3086 116.156 10.3858 116.719 10.4321L117.734 10.5092L117.203 10.2315C116.687 9.95369 116.516 9.7685 116.344 9.22838C116.297 9.07406 115.75 8.70369 115.125 8.39505C111.312 6.51233 111.844 5.94135 117.422 5.97221C122.187 5.98764 124.922 6.32715 128.094 7.28394C129.922 7.82406 130.203 7.88579 130.406 7.68517C130.609 7.49998 130.531 7.34566 129.875 6.46603C129.016 5.35493 127.187 2.68517 127.187 2.54628C127.187 2.42283 127.562 2.45369 128.703 2.7006Z" fill="#16A34A" style="fill:#16A34A;fill:color(display-p3 0.0863 0.6392 0.2902);fill-opacity:1;"/>
<path d="M123.281 8.17902C123.281 8.4105 123.844 8.59568 126.25 9.19754C129.063 9.90741 131.766 10.7253 135.547 12.0216C137.266 12.608 138.922 13.1173 139.219 13.179C139.766 13.287 139.766 13.287 139.063 12.9012C137.313 11.9753 128.844 9.13581 125.891 8.47223C123.719 7.99383 123.281 7.9321 123.281 8.17902Z" fill="#16A34A" style="fill:#16A34A;fill:color(display-p3 0.0863 0.6392 0.2902);fill-opacity:1;"/>
<path d="M122.891 9.3981C123.031 9.62958 126.672 10.9876 131.375 12.5617C135.906 14.0895 138.375 14.9845 139.875 15.6481C141.078 16.1728 141.203 15.8796 140.016 15.2777C137.812 14.1821 128.437 10.8024 124.391 9.62958C122.953 9.22835 122.75 9.18205 122.891 9.3981Z" fill="#16A34A" style="fill:#16A34A;fill:color(display-p3 0.0863 0.6392 0.2902);fill-opacity:1;"/>
<path d="M118.953 10.7407C119 10.787 119.547 10.9568 120.172 11.1265C121.437 11.4506 121.953 11.2963 120.937 10.8951C120.344 10.6636 118.734 10.5401 118.953 10.7407Z" fill="#16A34A" style="fill:#16A34A;fill:color(display-p3 0.0863 0.6392 0.2902);fill-opacity:1;"/>
<path d="M138.906 10.6944C138.906 10.7407 139.453 10.895 140.109 11.0339C141.562 11.358 144.078 12.2068 146.828 13.287C149.625 14.3981 151.375 14.9691 151.984 14.9691C152.359 14.9691 152.469 15.0308 152.406 15.1852C152.297 15.4784 153.078 15.8796 155.203 16.5741C157.422 17.3148 160.687 18.1327 162.937 18.5339C163.937 18.7037 164.781 18.8734 164.797 18.8889C164.828 18.9197 163.547 19.321 161.969 19.8148L159.109 20.6944L155.141 19.537C150.375 18.1636 147.5 17.392 147.406 17.4845C147.312 17.5617 152.484 19.2747 155.187 20.0463C158.016 20.8642 158.391 21.0648 157.672 21.4506C156.844 21.8827 155 21.5586 150.625 20.216C147.297 19.1975 144.469 18.4876 144.016 18.5494C143.828 18.5802 145.328 19.1203 147.344 19.7376C152.406 21.3271 154.5 22.145 154.203 22.4383C154.156 22.4845 153.641 22.5926 153.062 22.6697C152.422 22.7623 151.531 23.0401 150.797 23.3796C149.422 24.0432 148.25 24.2129 147.016 23.9197C146.547 23.8117 144.625 23.1944 142.734 22.5308C137.156 20.5864 137.234 20.8642 142.906 23.1636C144.594 23.8271 146.109 24.4599 146.281 24.5524C146.594 24.7222 146.594 24.7376 146.344 24.8765C145.797 25.1852 141.937 24.892 141.719 24.537C141.656 24.4444 141.234 24.3364 140.766 24.3055C140.297 24.2901 139.125 24.0123 138.156 23.7037C137.172 23.395 136.078 23.1018 135.734 23.0401C135.375 22.9938 134.547 22.7469 133.906 22.4845C133.266 22.2376 131.797 21.7901 130.656 21.5123C128.062 20.8642 121.437 19.5524 119.141 19.2284C112.703 18.3179 102.078 17.9475 100.187 18.5648C98.9375 18.9815 99.4531 19.0895 103.156 19.1975C109.078 19.3518 112.141 19.5833 117.344 20.2315C122.891 20.9105 125.406 21.358 128.906 22.2222C133.875 23.4722 143.609 26.0494 143.719 26.142C143.859 26.2963 143.578 26.4506 141.719 27.1913C140.109 27.8395 140.031 27.8549 138.359 27.8395C136.922 27.8241 136 27.6852 132.812 27.0216C128.969 26.2345 127.969 26.0957 127.969 26.3889C127.969 26.6358 128.516 26.7901 130.781 27.1605C133.406 27.5771 135.141 27.9784 136.328 28.4105C137.172 28.7191 137.219 28.7654 136.953 28.9506C136.375 29.3673 134.062 29.1512 129.437 28.2407C126.687 27.6852 123.828 27.2994 123.5 27.4228C123.234 27.5154 123.219 27.716 123.453 27.8703C123.547 27.9166 124.203 28.0247 124.906 28.1018C126.391 28.2716 131.812 29.3364 133.281 29.7685L134.297 30.0617L133.828 30.2469C133.578 30.3395 132.406 30.7562 131.25 31.142C128.562 32.037 127.109 32.1296 123.359 31.6512C120.422 31.2654 117.422 30.9259 115.781 30.8024C113.859 30.6327 114.703 30.9568 117.344 31.3889C120.672 31.929 125.875 32.716 126.125 32.716C126.484 32.716 126.031 32.9784 124.953 33.395C124.359 33.6265 122.875 34.2438 121.672 34.7839C120.453 35.3241 119.078 35.8487 118.609 35.9568C117.031 36.3271 114.5 36.0648 107.734 34.892C104.297 34.3055 100.672 33.7191 99.6875 33.6111C97.1719 33.3333 83.5937 33.3333 80.9375 33.6111C78.5312 33.858 77.25 34.1358 76.2812 34.6296C75.25 35.1543 75.7031 35.2778 77.5312 34.9537C81.875 34.1821 86.7656 33.9506 92.8906 34.2438C98.9062 34.5216 102.5 34.9074 107.062 35.7407C108.25 35.9568 110.844 36.358 112.828 36.6512C114.828 36.9444 116.516 37.2376 116.609 37.3302C116.828 37.5463 116.203 37.7623 114.609 38.071C113.719 38.2407 112.391 38.3024 110.078 38.3024C108.281 38.3024 106.906 38.3487 107.031 38.4259C107.266 38.5339 108.922 38.7963 110.625 38.966C111.641 39.0741 112.031 39.2592 111.781 39.5062C111.437 39.8457 110.25 39.9691 106.922 40.0463C103.812 40.108 103.266 40.1543 103.453 40.3395C103.578 40.4629 105.5 40.7253 107.078 40.8333C107.906 40.895 108.594 40.9876 108.594 41.0494C108.594 41.0957 107.734 41.5586 106.687 42.0679L104.766 42.9784L101.875 42.9629L98.9844 42.9475L100.156 43.1636C100.797 43.2716 101.781 43.4722 102.344 43.5648L103.359 43.7654L101.953 44.6759C99.6719 46.142 99.2344 46.2963 97.4531 46.2963C95.7812 46.2963 93.5937 46.7129 94.1562 46.929C94.3125 46.9907 95 47.0525 95.6719 47.0525C96.3594 47.0679 96.875 47.1296 96.875 47.2222C96.875 47.4228 95.75 48.2253 94.7656 48.7191C93.7187 49.2592 92.1562 49.3364 78.8281 49.537C66.4219 49.7222 65.7031 49.7839 60.7812 51.0031C56.2656 52.1296 54.0312 53.3642 58.1562 52.4537C62.9687 51.4043 68.9687 50.5864 74.0625 50.3086C78.9375 50.0463 91.7187 50.1697 91.7187 50.4784C91.7187 50.9413 89.125 51.5278 86.3281 51.6975C83.6406 51.8673 81.5937 52.1296 81.4687 52.3302C81.4219 52.4074 82.75 52.4691 84.5312 52.4691C86.9844 52.4691 87.6719 52.5154 87.625 52.6543C87.5156 52.9629 84.6562 54.5833 83.7187 54.8611C83.0469 55.0617 79.3594 55.6944 78.8594 55.7099C78.7812 55.7099 78.7812 55.787 78.8437 55.8796C78.9219 56.0031 79.375 56.0339 80.3281 55.9568C81.1406 55.895 81.7344 55.9105 81.7812 56.0031C81.8437 56.0802 81.5781 56.3889 81.2187 56.6821C79.9375 57.716 78.2656 58.6111 76.6719 59.1204C75.1562 59.5987 75.1094 59.6296 75.5937 59.7531C75.8594 59.8302 76.0937 59.9383 76.0937 60.0154C76.0937 60.2623 75.0937 61.1265 73.75 62.0216C71.5312 63.5185 71.2812 63.6111 69.1094 63.7191C68 63.7808 67.125 63.8889 67.0156 63.9969C66.7656 64.2438 67.2187 64.3518 68.875 64.4907L70.2344 64.5833L69.375 64.9228C68.2344 65.3549 66.4687 65.5555 62.0312 65.7407C57.8594 65.9105 55.6875 66.0957 52.6406 66.5123C47.0781 67.2685 43.2812 68.3796 43.2812 69.2438C43.2812 69.5679 43.7656 69.6759 43.9844 69.3981C44.0937 69.2438 44.5937 69.0895 45.25 68.9815C45.8437 68.8889 46.9687 68.642 47.7344 68.4413C49.5469 67.9629 52.1875 67.5154 54.8437 67.2222C58.6094 66.8055 67.2656 66.4043 67.125 66.6512C67.0781 66.7284 65.7812 67.6697 64.2656 68.75C58.4062 72.9166 57.2031 73.8271 57.375 73.9969C57.4844 74.1049 61.3906 71.4969 68.2031 66.8055C75.3437 61.8673 78.3594 59.8302 79.1875 59.429C79.5625 59.2438 80.1719 58.858 80.5312 58.5802C80.9062 58.3025 82.125 57.5308 83.2187 56.8518C84.3281 56.1883 87.0781 54.5216 89.3437 53.1327C93.7187 50.4475 95.125 49.6605 99.2656 47.5154C100.719 46.7592 102.234 45.9105 102.625 45.6018C103.031 45.3086 103.672 44.9074 104.062 44.7222C104.453 44.5525 105.328 44.0586 106 43.642C108.141 42.3302 109.953 41.4352 114.328 39.5216C118.703 37.608 121.719 36.1883 123.359 35.2623C124.531 34.6142 126.391 33.8889 129.609 32.8549C132.672 31.8673 134.562 31.1574 138.922 29.3518C142.703 27.7932 146.156 26.4815 147.297 26.1883C147.703 26.0957 148.203 25.8487 148.406 25.6481C148.609 25.4475 148.937 25.3086 149.203 25.3086C149.453 25.3086 150.203 25.0308 150.859 24.6759C152.422 23.858 154.953 23.0401 158.891 22.0679C160.641 21.6358 162.328 21.1574 162.641 21.0031C162.953 20.8487 164.016 20.4938 165 20.216C168.781 19.1666 175.094 16.8673 175.484 16.4197C175.672 16.1883 175.328 16.1111 173.422 15.9876C171.016 15.8179 163.625 14.0741 159.922 12.8086C158.375 12.2685 156.875 11.8981 156.875 12.037C156.875 12.2376 159.422 13.2253 161.875 13.9969C164.891 14.9228 170 16.1883 171.172 16.3117C171.687 16.358 172.219 16.4506 172.344 16.5278C172.766 16.7438 171.516 17.1296 170.344 17.1296C169.406 17.1296 169.203 17.1913 168.656 17.5771C167.922 18.1173 166.297 18.5957 165.719 18.4568C165.047 18.287 165.266 18.0864 166.219 17.9784C167.312 17.8549 167.5 17.7932 167.5 17.608C167.5 17.3765 167.031 17.3148 164.766 17.2222C161.969 17.1142 160.562 16.7747 152.266 14.0895C147.891 12.6852 142.953 11.25 141.562 10.9876C140.437 10.7716 138.906 10.6018 138.906 10.6944Z" fill="#16A34A" style="fill:#16A34A;fill:color(display-p3 0.0863 0.6392 0.2902);fill-opacity:1;"/>
<path d="M104.922 11.25C105.109 11.5741 107.141 11.8981 110.703 12.1914C115.047 12.5463 116.656 12.7315 118.047 13.0556C118.562 13.1636 119.125 13.2716 119.297 13.2716C120.312 13.2562 117.531 12.5 114.812 12.0525C112.266 11.6204 104.766 11.0185 104.922 11.25Z" fill="#16A34A" style="fill:#16A34A;fill:color(display-p3 0.0863 0.6392 0.2902);fill-opacity:1;"/>
<path d="M122.219 11.2809C122.281 11.466 123.266 11.8519 124.266 12.0988C125.016 12.2685 124.719 11.9136 123.875 11.6049C122.625 11.1574 122.141 11.0648 122.219 11.2809Z" fill="#16A34A" style="fill:#16A34A;fill:color(display-p3 0.0863 0.6392 0.2902);fill-opacity:1;"/>
<path d="M165.156 12.5C165.156 12.7778 165.859 13.1019 166.719 13.2099C167.734 13.3333 167.672 13.1945 166.453 12.7161C165.469 12.3148 165.156 12.2685 165.156 12.5Z" fill="#16A34A" style="fill:#16A34A;fill:color(display-p3 0.0863 0.6392 0.2902);fill-opacity:1;"/>
<path d="M106.953 13.8889C106.828 14.074 108.141 14.3055 111.453 14.6605C117.234 15.2778 119.359 15.1852 114.687 14.5216C112.859 14.2592 111.391 14.1049 107.859 13.8271C107.406 13.7808 107 13.8117 106.953 13.8889Z" fill="#16A34A" style="fill:#16A34A;fill:color(display-p3 0.0863 0.6392 0.2902);fill-opacity:1;"/>
<path d="M118.828 15.4012C119.047 15.6018 120.344 15.895 120.969 15.8796L121.484 15.8642L121.016 15.6636C120.422 15.4012 118.609 15.1852 118.828 15.4012Z" fill="#16A34A" style="fill:#16A34A;fill:color(display-p3 0.0863 0.6392 0.2902);fill-opacity:1;"/>
<path d="M103.359 16.3117C96.2655 16.6358 93.5937 17.0216 99.2968 16.8982C102.812 16.821 108.562 16.4506 108.719 16.2809C108.797 16.2037 105.219 16.2192 103.359 16.3117Z" fill="#16A34A" style="fill:#16A34A;fill:color(display-p3 0.0863 0.6392 0.2902);fill-opacity:1;"/>
<path d="M171.875 20.0772C170.828 20.3395 164.328 22.392 154.766 25.463C150.984 26.6667 147.797 27.8395 144.422 29.2593C143.125 29.7994 141.703 30.3241 141.266 30.4012C140.828 30.4784 140.297 30.6481 140.094 30.787C139.891 30.9259 139.234 31.1574 138.641 31.3272C137.719 31.5741 130.844 34.2747 122.203 37.7623C114.219 40.9722 107.484 44.2438 100.391 48.3025C98.5 49.3827 95.7656 50.9105 94.2969 51.6975C92.8438 52.4846 91.2812 53.3642 90.8281 53.642C90.375 53.9198 89.4688 54.4136 88.7969 54.7531C88.125 55.0772 86.4844 56.0339 85.1562 56.8981C83.8281 57.7469 82.4219 58.6111 82.0312 58.8117C81.6406 58.9969 81.0312 59.429 80.6562 59.7377C80.2969 60.0463 79.4844 60.6018 78.8594 60.9568C78.2344 61.3272 77.1719 62.0062 76.4844 62.5C75.7969 62.9938 74.4688 63.7963 73.5312 64.2901C72.6094 64.7839 71.5938 65.4475 71.2656 65.7562C70.6406 66.4043 60.4844 73.5957 56.1719 76.466C54.625 77.5 52.6406 78.7346 51.7656 79.2284C50.3594 80.0154 47.5781 81.2346 46.4062 81.5741C45.7031 81.7747 46.3125 81.2654 47.9375 80.3086C49.7812 79.2284 56.1719 75.1235 56.7188 74.6759L57.1094 74.3673L56.7188 74.4599C56.0938 74.6296 53.0469 76.25 51.0156 77.5C49.9844 78.1327 48.2812 79.1358 47.2188 79.7222C44.8438 81.0339 44.1719 81.6049 44.3125 82.1605C44.3906 82.5154 44.2969 82.6235 43.3281 83.2253C42.75 83.6111 41.2969 84.429 40.0938 85.0463C38.8906 85.6944 37.625 86.4815 37.2344 86.8519C36.0312 87.963 30.6406 90.4012 25.4844 92.1605C24.2344 92.5926 23.0312 93.0247 22.8125 93.1481L22.4219 93.3488L22.8906 93.3642C23.6875 93.3642 27.4219 92.3148 29.5938 91.4815C32.6875 90.2623 38.0312 87.5772 41.1719 85.6327C44.4375 83.6111 46.75 82.4074 47.3594 82.4074C47.5938 82.4074 47.8438 82.3302 47.8906 82.2531C48 82.0679 49.25 81.4352 49.8281 81.25C50.1094 81.1574 49.8594 81.5123 48.8906 82.5463C47.5312 84.0278 47.2656 84.3827 47.4062 84.5216C47.4375 84.5679 48.3906 83.7346 49.4844 82.6852C52.7812 79.537 54.8438 77.9938 54.8438 78.6883C54.8438 78.7654 53.9219 79.8148 52.8125 81.0185C51.6875 82.2377 50.8125 83.2562 50.8438 83.3025C51.0312 83.4877 52.8906 81.6975 56.6406 77.7469C58.2188 76.0802 62.9531 72.716 63.0938 73.1481C63.125 73.2253 62.625 74.1049 61.9688 75.0772C60.7656 76.8981 60.0938 78.071 60.1875 78.179C60.4219 78.3951 62.5 75.6173 63.7969 73.3333C64.2969 72.4691 64.875 71.6358 65.0938 71.4969C65.3125 71.3426 66.0625 70.787 66.7656 70.2469C67.4688 69.7068 68.0625 69.3364 68.0938 69.4136C68.125 69.5062 67.8594 70.0309 67.5156 70.5864C66.5156 72.1759 65.4375 74.3981 64.375 77.0062C62.6719 81.1883 61.7344 82.8395 58.8438 86.8056C57.9062 88.071 57.0469 89.3519 56.9062 89.6142C55.9844 91.5123 58.9219 88.5648 60.9219 85.571C62.4688 83.2716 64.9688 78.5031 66.125 75.6173C67.2031 72.9784 68.0469 71.2191 68.8125 70.0772C69.1875 69.5216 69.6406 68.7809 69.8125 68.4414C69.9844 68.1018 70.4375 67.5772 70.8125 67.2685C71.7344 66.5123 72.9062 65.7407 73.125 65.7407C73.3281 65.7407 72.875 66.6204 71.625 68.6265C70.4062 70.571 69.9531 71.4506 70.0781 71.5741C70.2812 71.7747 72.3594 68.9043 73.7188 66.5432C74.3125 65.5093 75.1875 64.5679 76.3594 63.7037C76.8125 63.3796 77.3438 62.9012 77.5312 62.6543C77.7969 62.2839 77.9844 62.1914 78.4688 62.1914C78.8906 62.1914 79.0625 62.1296 79.0625 61.9599C79.0625 61.8364 79.125 61.7284 79.2031 61.7284C79.2812 61.7284 79.7812 61.4043 80.2969 61.0185C82.0625 59.7222 81.875 60.1543 78.6719 64.892C76.3281 68.3796 74.8438 70.8333 75.1094 70.8333C75.3125 70.8333 77.1875 68.2562 79.9688 64.1358C82.875 59.8302 83.6094 58.9506 84.9375 58.1944C85.4531 57.9012 86.3594 57.3457 86.9531 56.9444C87.9375 56.2963 93.0312 53.3796 94.3438 52.716C94.6406 52.5617 94.9062 52.4846 94.9688 52.5309C95.0156 52.5926 94.8281 52.9167 94.5625 53.287C92.7031 55.7562 88.5938 63.9506 88.2812 65.787C87.7188 69.1821 82.1562 79.5833 78.9844 83.1481C78.0938 84.1667 77.7344 84.6914 77.8594 84.8302C78.0469 85.0154 78.6719 84.6451 79.4375 83.8889C82.5312 80.8333 87.6719 71.6975 89.2188 66.4815C90.2656 62.9938 93.4688 56.3272 95.4375 53.5494C96.9219 51.4352 97.4219 50.9877 99.5781 49.7068C102.25 48.1481 108.281 44.8302 110.172 43.9043C113.438 42.2685 120.375 39.3673 120.562 39.537C120.609 39.5988 120.266 40.1852 119.797 40.8488C117.781 43.7037 116.438 46.1728 114.906 49.7839C113.75 52.5463 113.344 53.6883 112.422 56.929C112.047 58.2562 111.453 60.1389 111.094 61.1111C110.5 62.7469 110.062 64.0586 109.656 65.4321C109.062 67.4691 105.516 73.7654 103.047 77.1605C101.812 78.858 101.344 79.6296 101.469 79.7377C101.641 79.9074 102.781 78.7191 104.016 77.0833C106.297 74.0895 109.25 69.0123 110.219 66.4352C112.141 61.2809 112.75 59.5216 113.578 56.713C114.672 52.9167 115.016 51.9136 115.984 49.5988C118.359 43.8889 121.5 39.1667 123.672 38.071C123.938 37.9475 126.953 36.821 130.391 35.571C133.828 34.321 138.344 32.6543 140.438 31.8518C144.219 30.4167 145.312 30.0772 145.312 30.3549C145.312 30.4475 144.891 31.0957 144.359 31.8055C142.031 34.9691 140.75 37.6389 138.828 43.2099C138.109 45.2932 137.312 47.5617 137.047 48.2716C136.781 48.9815 136.172 51.1111 135.703 52.9938C134.422 58.179 133.625 60.2006 131.391 63.9352C129.844 66.5278 129.266 67.3457 127.344 69.7531C125.562 71.9907 125.156 72.5309 125.156 72.716C125.156 73.5957 128.531 69.9691 130.672 66.7901C133.484 62.6235 135.156 58.7809 136.875 52.608C139.516 43.1018 142.234 36.4815 145.531 31.5586L146.984 29.3981L153.375 27.3611C162.656 24.3981 165.859 23.4414 169.219 22.6235C171.281 22.1296 174.766 20.8025 174.766 20.5401C174.766 20.2778 173.797 19.7531 173.359 19.7685C173.188 19.7685 172.516 19.9074 171.875 20.0772Z" fill="#16A34A" style="fill:#16A34A;fill:color(display-p3 0.0863 0.6392 0.2902);fill-opacity:1;"/>
<path d="M90.5156 22.4846C90.5781 22.5772 90.9531 22.6852 91.3594 22.7469C93.2813 23.0092 96.4375 23.3333 101.25 23.7654C104.125 24.0123 106.828 24.3055 107.234 24.3827C108.188 24.5833 109.797 24.5833 109.609 24.3981C109.516 24.321 108.891 24.1512 108.203 24.0123C104.313 23.2562 90.2344 22.037 90.5156 22.4846Z" fill="#16A34A" style="fill:#16A34A;fill:color(display-p3 0.0863 0.6392 0.2902);fill-opacity:1;"/>
<path d="M164.812 24.5679C160.609 29.4753 158.094 34.8611 154.219 47.2222C152.109 53.9352 151.609 55.2469 150.562 56.6204C150.109 57.2377 150.062 57.4074 150.375 57.4074C151.469 57.4074 154.734 50.4475 155.375 46.7593C155.625 45.2778 156.875 41.8056 157.891 39.7377C158.266 38.9661 158.687 37.9012 158.828 37.3457C159.641 34.1358 160.5 32.2994 163.109 28.2407C164.859 25.5401 165.734 23.9815 165.594 23.8272C165.547 23.7809 165.187 24.1204 164.812 24.5679Z" fill="#16A34A" style="fill:#16A34A;fill:color(display-p3 0.0863 0.6392 0.2902);fill-opacity:1;"/>
<path d="M90.2344 24.6605C90.3281 24.7531 92.0156 25 93.9844 25.216C95.9688 25.4475 98.8281 25.8025 100.344 26.0185C101.875 26.2345 103.453 26.3889 103.859 26.358L104.609 26.3117L103.75 26.1111C101.141 25.4938 89.8438 24.2901 90.2344 24.6605Z" fill="#16A34A" style="fill:#16A34A;fill:color(display-p3 0.0863 0.6392 0.2902);fill-opacity:1;"/>
<path d="M169.953 25.9568C169.422 26.6667 168.047 29.0278 166.75 31.4815C164.953 34.892 163.734 37.963 164.172 37.963C164.453 37.963 170.609 25.7099 170.422 25.5092C170.375 25.4784 170.172 25.679 169.953 25.9568Z" fill="#16A34A" style="fill:#16A34A;fill:color(display-p3 0.0863 0.6392 0.2902);fill-opacity:1;"/>
<path d="M159.859 27.2839C158 30.0771 153.016 39.4444 151.969 42.1296C151.656 42.9321 151.141 44.1821 150.844 44.892C150.547 45.6018 150.344 46.2191 150.375 46.25C150.484 46.3734 151.891 43.7346 156.203 35.2623C158.484 30.7562 160.328 26.9907 160.297 26.8981C160.266 26.7901 160.062 26.9599 159.859 27.2839Z" fill="#16A34A" style="fill:#16A34A;fill:color(display-p3 0.0863 0.6392 0.2902);fill-opacity:1;"/>
<path d="M166.359 27.6543C165.328 28.9197 162.828 32.9784 161.891 34.9537C161.391 35.9722 161.141 36.8827 161.359 36.8827C161.516 36.8827 162.063 36.0031 163.516 33.3333C164.109 32.2685 165.016 30.679 165.547 29.7839C166.734 27.8086 167.078 27.1605 166.984 27.0679C166.938 27.0216 166.672 27.2839 166.359 27.6543Z" fill="#16A34A" style="fill:#16A34A;fill:color(display-p3 0.0863 0.6392 0.2902);fill-opacity:1;"/>
<path d="M80.8281 27.7315C80.2813 27.7623 79.8438 27.8549 79.8438 27.9167C79.8438 28.1944 90.3438 28.3642 94.5156 28.1327C95.9688 28.0555 96.3594 27.9938 96.1406 27.8704C95.8594 27.716 82.9375 27.5926 80.8281 27.7315Z" fill="#16A34A" style="fill:#16A34A;fill:color(display-p3 0.0863 0.6392 0.2902);fill-opacity:1;"/>
<path d="M81.1562 30.4012C78.5155 30.679 77.7499 31.0185 79.7812 31.0185C81.1405 31.0185 86.1562 30.7253 86.6874 30.6173C88.2968 30.2932 83.9218 30.1234 81.1562 30.4012Z" fill="#16A34A" style="fill:#16A34A;fill:color(display-p3 0.0863 0.6392 0.2902);fill-opacity:1;"/>
<path d="M151.391 33.75C150.484 34.7839 145.156 44.1975 145.156 44.7531C145.156 45.1389 145.484 44.8302 146.063 43.9352C146.813 42.7469 150.375 36.4352 151.156 34.9074C151.734 33.7654 151.844 33.2253 151.391 33.75Z" fill="#16A34A" style="fill:#16A34A;fill:color(display-p3 0.0863 0.6392 0.2902);fill-opacity:1;"/>
<path d="M140.281 35.4784C139.828 36.0031 137.016 41.4043 135.922 43.858C133.641 48.9352 135.5 46.0648 139.094 38.9506C140.781 35.571 141.187 34.3982 140.281 35.4784Z" fill="#16A34A" style="fill:#16A34A;fill:color(display-p3 0.0863 0.6392 0.2902);fill-opacity:1;"/>
<path d="M93.6719 36.2808C77.4063 36.8673 68.125 37.6543 68.125 38.4413C68.125 38.7654 68.6719 38.7654 70.5938 38.4413C73.9844 37.8858 77.7344 37.5926 87.4219 37.1142C96.1094 36.6821 98.75 36.466 98.2031 36.25C98.0313 36.1882 97.6875 36.1419 97.4219 36.1419C97.1719 36.1574 95.4844 36.2191 93.6719 36.2808Z" fill="#16A34A" style="fill:#16A34A;fill:color(display-p3 0.0863 0.6392 0.2902);fill-opacity:1;"/>
<path d="M143.844 38.9043C142.406 41.0957 141.281 43.5648 142.391 42.0988C142.969 41.3426 144.891 37.8086 144.797 37.7006C144.75 37.6543 144.312 38.1944 143.844 38.9043Z" fill="#16A34A" style="fill:#16A34A;fill:color(display-p3 0.0863 0.6392 0.2902);fill-opacity:1;"/>
<path d="M130.422 38.4568C129.688 39.4136 128.641 41.1265 127.438 43.287C126.094 45.6944 122.031 53.6574 122.031 53.8734C122.031 54.5833 123.047 52.9166 125.531 48.1944C126.609 46.142 128.188 43.2253 129.031 41.7129C130.641 38.8117 130.984 38.1173 130.875 38.0092C130.844 37.9784 130.641 38.179 130.422 38.4568Z" fill="#16A34A" style="fill:#16A34A;fill:color(display-p3 0.0863 0.6392 0.2902);fill-opacity:1;"/>
<path d="M134.562 39.8457C133.312 41.9136 131.656 45.3395 130.578 48.1482C129.641 50.5864 128.219 55.1389 128.453 55C128.719 54.8457 129.187 53.7809 130.156 51.0803C131.453 47.5154 132.469 45.1543 134.281 41.5278C135.109 39.8765 135.781 38.4722 135.781 38.3951C135.781 38.0093 135.422 38.4414 134.562 39.8457Z" fill="#16A34A" style="fill:#16A34A;fill:color(display-p3 0.0863 0.6392 0.2902);fill-opacity:1;"/>
<path d="M76.6405 39.9074C71.453 40.6944 60.4687 43.1327 61.2499 43.3179C61.6874 43.4105 78.9062 39.9074 78.9062 39.7222C78.9062 39.6142 78.1093 39.6759 76.6405 39.9074Z" fill="#16A34A" style="fill:#16A34A;fill:color(display-p3 0.0863 0.6392 0.2902);fill-opacity:1;"/>
<path d="M122 42.8704C121 43.966 118.125 48.395 118.125 48.858C118.125 49.3518 122.328 43.7191 122.703 42.716C122.891 42.2068 122.531 42.2839 122 42.8704Z" fill="#16A34A" style="fill:#16A34A;fill:color(display-p3 0.0863 0.6392 0.2902);fill-opacity:1;"/>
<path d="M164 42.9784C163.844 43.3024 163.406 44.6913 163.016 46.0648C162.234 48.8426 161.187 52.1296 160.844 52.9012C160.641 53.3487 160.641 53.4105 160.859 53.4876C161.25 53.6419 161.672 53.1327 162.187 51.9135C163.141 49.645 164.453 44.1666 164.344 42.9475L164.281 42.3611L164 42.9784Z" fill="#16A34A" style="fill:#16A34A;fill:color(display-p3 0.0863 0.6392 0.2902);fill-opacity:1;"/>
<path d="M72.4218 43.1327C66.5624 43.6111 61.1093 44.5833 61.2968 45.108C61.3749 45.3395 61.5156 45.3395 64.2187 44.8611C67.1093 44.3518 69.0781 44.0586 72.5156 43.6728C75.4843 43.3487 75.9374 43.2562 75.5937 43.0401C75.3593 42.8858 75.4531 42.8858 72.4218 43.1327Z" fill="#16A34A" style="fill:#16A34A;fill:color(display-p3 0.0863 0.6392 0.2902);fill-opacity:1;"/>
<path d="M114.734 45.6327C113 47.7624 109.375 53.1482 109.562 53.3179C109.609 53.3642 110.641 52.0371 111.844 50.355C113.062 48.6729 114.516 46.6667 115.062 45.9105C115.625 45.1389 116.094 44.4753 116.094 44.3982C116.094 44.0741 115.734 44.4136 114.734 45.6327Z" fill="#16A34A" style="fill:#16A34A;fill:color(display-p3 0.0863 0.6392 0.2902);fill-opacity:1;"/>
<path d="M160.578 47.1759C160.531 47.2376 159.906 48.7963 159.172 50.6173C157.297 55.3241 155.937 58.3796 154.594 60.9105C153.312 63.3025 152.906 64.2901 153.125 64.429C153.609 64.7222 156.547 59.1667 158.594 54.0895C159.437 52.0062 160.219 49.645 160.562 48.179C160.781 47.2685 160.781 46.8518 160.578 47.1759Z" fill="#16A34A" style="fill:#16A34A;fill:color(display-p3 0.0863 0.6392 0.2902);fill-opacity:1;"/>
<path d="M109 50.6481C106.516 54.5833 101.641 63.4105 101.75 63.7654C101.797 63.8735 102.078 63.5802 102.375 63.1173C103.172 61.9136 109.656 50.571 110.109 49.5833C110.844 48.0247 110.375 48.4568 109 50.6481Z" fill="#16A34A" style="fill:#16A34A;fill:color(display-p3 0.0863 0.6392 0.2902);fill-opacity:1;"/>
<path d="M157.312 49.6914C156.484 51.1728 154.187 55.7407 152.797 58.6728C152.125 60.0926 151.328 61.6358 151.016 62.1142C150.422 62.9784 150.328 63.4414 150.812 63.0864C151.969 62.2222 158.141 49.9691 157.937 48.9506C157.906 48.7809 157.672 49.0741 157.312 49.6914Z" fill="#16A34A" style="fill:#16A34A;fill:color(display-p3 0.0863 0.6392 0.2902);fill-opacity:1;"/>
<path d="M149.391 53.9352C147.063 58.7345 146.359 60.0771 144.109 64.0432C141.25 69.074 140.938 69.645 140.938 69.9845C140.938 70.3858 141.156 70.2469 141.734 69.4753C143.125 67.6234 145.703 63.1636 147.828 58.9197C149.391 55.7716 150.203 53.7037 150.125 53.0247C150.078 52.5926 150 52.6852 149.391 53.9352Z" fill="#16A34A" style="fill:#16A34A;fill:color(display-p3 0.0863 0.6392 0.2902);fill-opacity:1;"/>
<path d="M74.6875 52.9475C68.5469 53.4414 57.8438 55.1852 56.4375 55.9414L56.0156 56.1574L56.5 56.1729C56.7656 56.1729 58.3438 55.8951 60.0313 55.571C64.125 54.7531 67.2813 54.2747 72.9531 53.6266C75.5781 53.3333 77.7813 53.0864 77.875 53.071C77.9688 53.071 77.9063 53.0093 77.7344 52.9321C77.3594 52.7778 76.875 52.7778 74.6875 52.9475Z" fill="#16A34A" style="fill:#16A34A;fill:color(display-p3 0.0863 0.6392 0.2902);fill-opacity:1;"/>
<path d="M102.391 54.1204C100.25 56.8981 96.0938 63.2716 96.0938 63.8117C96.0938 64.213 96.7656 63.3333 99.0312 59.9846C101.828 55.8488 103.531 53.1327 103.406 52.9938C103.359 52.963 102.906 53.4722 102.391 54.1204Z" fill="#16A34A" style="fill:#16A34A;fill:color(display-p3 0.0863 0.6392 0.2902);fill-opacity:1;"/>
<path d="M108.734 54.892C107.828 56.3271 105.781 60.4475 106.078 60.2623C106.25 60.1697 107.719 57.608 108.5 56.0494C109.5 54.0895 109.609 53.5494 108.734 54.892Z" fill="#16A34A" style="fill:#16A34A;fill:color(display-p3 0.0863 0.6392 0.2902);fill-opacity:1;"/>
<path d="M95.8906 56.5895C94.9531 57.7932 93.0156 60.7099 92.5625 61.605C91.7968 63.1019 92.5625 62.2685 94.125 59.9074C95.7656 57.4383 96.8125 55.7099 96.6718 55.7099C96.625 55.7099 96.2656 56.1111 95.8906 56.5895Z" fill="#16A34A" style="fill:#16A34A;fill:color(display-p3 0.0863 0.6392 0.2902);fill-opacity:1;"/>
<path d="M70.7812 56.034C67.2812 56.4198 59.5469 57.7315 57.9375 58.2099C57.6094 58.3025 57.3438 58.4414 57.3438 58.5185C57.3438 58.6883 57.6406 58.642 62.1875 57.9475C64.0312 57.6543 66.9219 57.2068 68.5937 56.9599C71.9375 56.4506 72.875 56.2346 72.7344 56.0031C72.625 55.8488 72.4531 55.8488 70.7812 56.034Z" fill="#16A34A" style="fill:#16A34A;fill:color(display-p3 0.0863 0.6392 0.2902);fill-opacity:1;"/>
<path d="M89.6405 56.821C87.3437 60.0309 84.0468 65.7407 82.9843 68.3796C82.5624 69.4444 82.578 70.2932 83.0468 70.2932C83.3124 70.2932 83.3749 70.1543 83.4687 69.4444C83.5937 68.3642 84.8437 65.8951 87.7499 60.9568C90.203 56.7747 90.6874 55.8642 90.4843 55.8642C90.3905 55.8642 90.0155 56.2963 89.6405 56.821Z" fill="#16A34A" style="fill:#16A34A;fill:color(display-p3 0.0863 0.6392 0.2902);fill-opacity:1;"/>
<path d="M140.172 60.5555C139.75 61.2654 138.469 63.5339 137.328 65.6018C136.203 67.6697 134.172 71.2037 132.844 73.4568C129.641 78.858 129.656 78.8271 129.719 79.0432C129.891 79.5216 132.5 75.5864 135.734 70.0154C138.953 64.4753 141.547 59.2592 141.094 59.2592C141.016 59.2592 140.594 59.8456 140.172 60.5555Z" fill="#16A34A" style="fill:#16A34A;fill:color(display-p3 0.0863 0.6392 0.2902);fill-opacity:1;"/>
<path d="M57.8125 60.3549C54.6875 60.6173 52.1094 61.1265 47.5469 62.4074C45.9375 62.8549 44.3281 63.3025 43.9844 63.3951L43.3594 63.5494L44.0781 63.5648C45.0469 63.5803 46.0156 63.3951 50.3906 62.3457C52.4531 61.8364 55.4063 61.1883 56.9531 60.8796C60.7188 60.1389 60.7656 60.108 57.8125 60.3549Z" fill="#16A34A" style="fill:#16A34A;fill:color(display-p3 0.0863 0.6392 0.2902);fill-opacity:1;"/>
<path d="M136.312 62.0679C135.969 62.608 134.531 65.0463 133.125 67.5154C131.719 69.9691 130.016 72.8858 129.344 73.9969C128.141 75.9568 127.828 76.6204 128.031 76.8055C128.312 77.0833 130.062 74.5216 132.906 69.6759C134.109 67.608 137.187 61.6204 137.187 61.3426C137.187 60.9105 136.953 61.1111 136.312 62.0679Z" fill="#16A34A" style="fill:#16A34A;fill:color(display-p3 0.0863 0.6392 0.2902);fill-opacity:1;"/>
<path d="M58.3593 62.5308C53.6562 63.2407 48.6874 64.4598 48.3593 64.9691C48.1718 65.2623 49.1405 65.1234 53.4218 64.1821C55.7968 63.6574 58.3905 63.1172 59.203 62.9784C61.7499 62.5463 60.9687 62.1296 58.3593 62.5308Z" fill="#16A34A" style="fill:#16A34A;fill:color(display-p3 0.0863 0.6392 0.2902);fill-opacity:1;"/>
<path d="M147.297 63.3796C147.094 63.7037 146.109 65.5093 145.109 67.392C144.109 69.2901 143.109 71.0957 142.875 71.4352C142.156 72.5154 142.531 72.5154 143.625 71.4506C144.609 70.4938 144.719 70.3086 146.078 67.2531C147.703 63.6265 148.016 62.8086 147.812 62.8086C147.719 62.8086 147.5 63.071 147.297 63.3796Z" fill="#16A34A" style="fill:#16A34A;fill:color(display-p3 0.0863 0.6392 0.2902);fill-opacity:1;"/>
<path d="M118.172 67.2377C114.672 72.4691 108.453 81.0031 107.219 82.284C106.875 82.6543 106.719 82.9321 106.781 83.1019C107.016 83.7037 107.891 82.7315 111.984 77.3611C115.844 72.284 117.797 69.4599 119.375 66.605C120.047 65.4012 120.531 64.1975 120.328 64.1975C120.266 64.1975 119.297 65.571 118.172 67.2377Z" fill="#16A34A" style="fill:#16A34A;fill:color(display-p3 0.0863 0.6392 0.2902);fill-opacity:1;"/>
<path d="M122.281 66.5895C120.313 69.5679 117.266 73.7191 114.078 77.7469C110.563 82.2222 110.078 82.8704 110.297 82.8704C111 82.8704 117.547 74.7994 121.172 69.4444C122.875 66.929 123.641 65.5401 123.563 65.0771C123.516 64.8148 123.234 65.1389 122.281 66.5895Z" fill="#16A34A" style="fill:#16A34A;fill:color(display-p3 0.0863 0.6392 0.2902);fill-opacity:1;"/>
<path d="M125.75 66.3889C125.359 66.929 124.328 68.4722 123.437 69.8302C121.266 73.1636 119.437 75.7716 118.047 77.5308C116.797 79.1204 116.484 79.5987 116.625 79.7531C116.797 79.9074 118.422 78.2253 119.641 76.6204C122.578 72.7469 127.125 65.4321 126.594 65.4321C126.531 65.4321 126.141 65.8642 125.75 66.3889Z" fill="#16A34A" style="fill:#16A34A;fill:color(display-p3 0.0863 0.6392 0.2902);fill-opacity:1;"/>
<path d="M52.6563 68.9814C52.4375 69.0586 51.0781 69.429 49.6094 69.8302C43.1406 71.5895 36.25 73.7191 36.25 73.9506C36.25 74.2284 37.5781 73.9814 40.2344 73.2253C45.0469 71.8518 52.7188 69.3827 53.4219 68.9814C53.6406 68.858 53.625 68.8426 53.3594 68.8426C53.1875 68.8426 52.875 68.9043 52.6563 68.9814Z" fill="#16A34A" style="fill:#16A34A;fill:color(display-p3 0.0863 0.6392 0.2902);fill-opacity:1;"/>
<path d="M101.094 71.6358C99.3281 74.4907 95.2968 79.7839 91.8749 83.7346C90.4531 85.3858 90.0781 85.9568 90.4531 85.9568C90.8906 85.9568 94.6874 81.8518 96.8281 79.0432C98.2812 77.1296 100.875 73.2407 101.375 72.1914C102.328 70.2315 102.172 69.9228 101.094 71.6358Z" fill="#16A34A" style="fill:#16A34A;fill:color(display-p3 0.0863 0.6392 0.2902);fill-opacity:1;"/>
<path d="M111.016 73.1019C110.797 73.4259 109.984 74.6296 109.219 75.7716C107.469 78.3796 105.234 81.2346 103.875 82.5926C102.812 83.6265 102.625 83.9506 103.031 83.9506C103.953 83.9506 108.516 78.7809 110.359 75.6482C111.031 74.537 111.719 73.0093 111.719 72.6852C111.719 72.3611 111.391 72.5617 111.016 73.1019Z" fill="#16A34A" style="fill:#16A34A;fill:color(display-p3 0.0863 0.6392 0.2902);fill-opacity:1;"/>
<path d="M125.734 73.9198C124.937 74.784 124.328 75.7253 124.453 75.9105C124.75 76.4043 126.297 74.7994 126.5 73.7654C126.641 73.1327 126.406 73.179 125.734 73.9198Z" fill="#16A34A" style="fill:#16A34A;fill:color(display-p3 0.0863 0.6392 0.2902);fill-opacity:1;"/>
<path d="M122.406 75.108C120.859 77.1296 117.641 81.9598 117.734 82.1142C117.891 82.3611 118.406 81.9753 119.047 81.1265C120.359 79.3827 123.562 74.1512 123.406 73.9814C123.359 73.9506 122.906 74.4444 122.406 75.108Z" fill="#16A34A" style="fill:#16A34A;fill:color(display-p3 0.0863 0.6392 0.2902);fill-opacity:1;"/>
<path d="M47.1094 74.9537C44.375 75.5555 37.8125 77.5617 37.8125 77.8086C37.8125 77.9012 38.0156 77.9167 38.3281 77.8549C40.1563 77.5 47.4219 75.2469 47.5781 75C47.6719 74.8457 47.625 74.8302 47.1094 74.9537Z" fill="#16A34A" style="fill:#16A34A;fill:color(display-p3 0.0863 0.6392 0.2902);fill-opacity:1;"/>
<path d="M103.891 78.2716C101.406 81.6512 99.8281 83.6728 98.9687 84.5833C98.4375 85.1389 97.9219 85.7408 97.8281 85.9259C97.6719 86.2191 97.6875 86.2654 97.9844 86.2654C98.7344 86.2654 102.594 81.8827 104.203 79.213C104.859 78.1327 105.172 77.1605 104.875 77.1605C104.797 77.1605 104.344 77.6698 103.891 78.2716Z" fill="#16A34A" style="fill:#16A34A;fill:color(display-p3 0.0863 0.6392 0.2902);fill-opacity:1;"/>
<path d="M100.125 78.0555C99.5781 78.6111 95.0469 84.4444 93.875 86.0956C93.0937 87.1913 93.125 87.4074 93.9219 86.6512C95.7344 84.9228 101.047 77.8395 100.75 77.5463C100.719 77.5 100.437 77.7314 100.125 78.0555Z" fill="#16A34A" style="fill:#16A34A;fill:color(display-p3 0.0863 0.6392 0.2902);fill-opacity:1;"/>
<path d="M92.4062 78.1173C92.1406 78.3951 90.7343 80.0463 89.2656 81.7901C87.7968 83.534 85.8593 85.787 84.9374 86.8056C83.9999 87.8241 83.1874 88.7809 83.0937 88.9352C82.7968 89.5062 83.5937 88.8889 84.9531 87.5309C88.6874 83.7654 93.1406 78.3488 92.9374 77.7778C92.9062 77.6852 92.6718 77.8395 92.4062 78.1173Z" fill="#16A34A" style="fill:#16A34A;fill:color(display-p3 0.0863 0.6392 0.2902);fill-opacity:1;"/>
<path d="M87.1563 78.966C86.9375 79.2129 86.3438 79.9537 85.8438 80.6327C85.3438 81.3117 83.6719 83.503 82.1094 85.4938C78.2656 90.4166 78.3594 90.2777 78.6094 90.2777C79.125 90.2777 82.2656 86.6666 85.2031 82.6697C87.25 79.9074 88.4688 77.5771 87.1563 78.966Z" fill="#16A34A" style="fill:#16A34A;fill:color(display-p3 0.0863 0.6392 0.2902);fill-opacity:1;"/>
<path d="M75.6874 83.2099C69.6718 89.2747 66.5468 92.6234 66.7499 92.8395C67.1093 93.179 77.3593 82.6852 79.9843 79.2747C80.0937 79.1358 80.1249 79.0123 80.0312 79.0123C79.953 79.0123 77.9999 80.9105 75.6874 83.2099Z" fill="#16A34A" style="fill:#16A34A;fill:color(display-p3 0.0863 0.6392 0.2902);fill-opacity:1;"/>
<path d="M73.3749 80.8951C73.1562 81.1728 72.4999 82.037 71.9218 82.8241C71.3437 83.5957 69.953 85.2161 68.8437 86.4198C66.6718 88.75 65.8437 89.7685 65.9843 89.9228C66.4843 90.4167 72.7187 83.642 73.9218 81.2809C74.4218 80.3395 74.0155 80.0617 73.3749 80.8951Z" fill="#16A34A" style="fill:#16A34A;fill:color(display-p3 0.0863 0.6392 0.2902);fill-opacity:1;"/>
<path d="M40.1093 80.8179C39.9531 80.8642 38.3125 81.3735 36.4687 81.9445C34.625 82.5309 32.625 83.1173 32.0156 83.2408C30.8125 83.4877 30.7031 83.534 30.8593 83.7809C31 84.0278 31.5468 83.9969 33.3281 83.6266C35.875 83.1173 39.9375 81.6821 40.8593 80.9568C41.1718 80.7253 41.1718 80.7253 40.7812 80.7253C40.5625 80.7408 40.2656 80.7716 40.1093 80.8179Z" fill="#16A34A" style="fill:#16A34A;fill:color(display-p3 0.0863 0.6392 0.2902);fill-opacity:1;"/>
<path d="M67.0156 83.6728C65.3125 86.0185 61.4218 90.0617 58.8437 92.1914C57.8906 92.9784 57.8593 93.2716 58.7812 92.8086C61.3593 91.4969 67.5937 84.9537 68.2031 82.9012C68.4062 82.1914 67.8281 82.5772 67.0156 83.6728Z" fill="#16A34A" style="fill:#16A34A;fill:color(display-p3 0.0863 0.6392 0.2902);fill-opacity:1;"/>
<path d="M37.0313 83.7037C36.4688 83.9043 35.125 84.429 34.0313 84.8611C32.9375 85.2932 31.9375 85.6481 31.7969 85.6481C31.375 85.6481 29.8438 86.5432 29.8438 86.7901C29.8438 87.1451 32.9688 86.1728 35.9219 84.892C37.8438 84.0586 38.4375 83.7191 38.4375 83.4876C38.4375 83.2562 38.1563 83.3025 37.0313 83.7037Z" fill="#16A34A" style="fill:#16A34A;fill:color(display-p3 0.0863 0.6392 0.2902);fill-opacity:1;"/>
<path d="M43.7343 85.1852C43.2499 85.6327 43.1093 85.8488 43.2343 85.9722C43.5468 86.2809 44.6874 85.3395 44.6874 84.7839C44.6874 84.429 44.4218 84.537 43.7343 85.1852Z" fill="#16A34A" style="fill:#16A34A;fill:color(display-p3 0.0863 0.6392 0.2902);fill-opacity:1;"/>
<path d="M56.1563 85.7562C55.9531 85.9876 55.1719 87.0216 54.4375 88.0555C53.7031 89.0895 52.6875 90.3858 52.1719 90.9414C51.6719 91.4969 51.25 92.0216 51.25 92.1142C51.25 93.1944 55.0625 89.1821 56.4063 86.713C57.1094 85.4012 56.9844 84.8765 56.1563 85.7562Z" fill="#16A34A" style="fill:#16A34A;fill:color(display-p3 0.0863 0.6392 0.2902);fill-opacity:1;"/>
<path d="M52.4843 86.5432C49.6406 89.5833 45.7343 94.5987 45.9843 94.8457C46.3281 95.1852 52.3906 88.1173 53.375 86.25C53.75 85.5247 53.2812 85.679 52.4843 86.5432Z" fill="#16A34A" style="fill:#16A34A;fill:color(display-p3 0.0863 0.6392 0.2902);fill-opacity:1;"/>
<path d="M33.6406 86.5741C33.4375 86.6512 33.2813 86.7747 33.2813 86.8518C33.2813 87.0524 31.6875 87.8549 30.3906 88.3179C28.7656 88.8889 28.75 88.9043 28.75 89.1358C28.75 89.645 30.5 89.1975 32.5781 88.1481C33.7969 87.5463 34.875 86.7592 34.7656 86.5741C34.6406 86.3889 34.1094 86.3889 33.6406 86.5741Z" fill="#16A34A" style="fill:#16A34A;fill:color(display-p3 0.0863 0.6392 0.2902);fill-opacity:1;"/>
<path d="M74.0156 88.5648C73.2188 89.321 73.1094 89.6296 73.7188 89.429C74.0938 89.321 75.3125 88.1944 75.3125 87.963C75.3125 87.608 74.7656 87.8549 74.0156 88.5648Z" fill="#16A34A" style="fill:#16A34A;fill:color(display-p3 0.0863 0.6392 0.2902);fill-opacity:1;"/>
<path d="M59.4531 89.2284C56.6562 91.7284 53.8906 94.3364 53.9844 94.4135C54.1719 94.5987 55.5781 93.4105 58.2812 90.787C61.2812 87.8703 61.9062 87.037 59.4531 89.2284Z" fill="#16A34A" style="fill:#16A34A;fill:color(display-p3 0.0863 0.6392 0.2902);fill-opacity:1;"/>
<path d="M45.9843 90.679C44.9687 91.929 43.7343 93.4259 43.2499 94.0278C42.3905 95.0617 42.2812 95.3704 42.7187 95.3704C43.2187 95.3704 48.2812 89.2438 48.2812 88.6265C48.2812 88.071 47.6718 88.6111 45.9843 90.679Z" fill="#16A34A" style="fill:#16A34A;fill:color(display-p3 0.0863 0.6392 0.2902);fill-opacity:1;"/>
<path d="M39.2187 90.3858C39 90.5247 38.2343 91.1574 37.5156 91.7901C36.7812 92.4228 35.8437 93.1944 35.4062 93.5031C34.625 94.0432 34.625 94.0586 35.0468 94.1049C35.6406 94.1821 36.8593 93.4414 38.3437 92.0833C39.5625 91.0031 40.2031 90.1234 39.7968 90.1234C39.6875 90.1234 39.4218 90.2469 39.2187 90.3858Z" fill="#16A34A" style="fill:#16A34A;fill:color(display-p3 0.0863 0.6392 0.2902);fill-opacity:1;"/>
</g>
<defs>
<clipPath id="clip0_944_2204">
<rect width="200" height="100" fill="white" style="fill:white;fill-opacity:1;"/>
</clipPath>
</defs>
</svg>
