<svg width="289" height="71" viewBox="0 0 289 71" fill="none" xmlns="http://www.w3.org/2000/svg">
<g opacity="0.2">
<path d="M104.706 70.6624C102.722 69.7831 101.617 65.702 101.594 59.2534C101.594 53.8646 102.338 50.7079 104.526 47.0327C105.969 44.5976 109.779 40.7194 111.741 39.6822C112.507 39.2764 113.206 38.9607 113.296 38.9607C113.364 38.9607 113.116 39.344 112.688 39.84C109.914 43.0869 107.772 49.4453 108.111 53.3911C108.291 55.5782 109.17 59.9298 110.05 63.1541C110.906 66.2431 110.997 67.9793 110.343 68.8812C109.351 70.2566 106.104 71.2938 104.706 70.6624Z" fill="#16A34A" style="fill:#16A34A;fill:color(display-p3 0.0863 0.6392 0.2902);fill-opacity:1;"/>
<path d="M181.39 70.6625C178.865 70.0311 177.895 69.0165 177.895 67.0098C177.895 66.3785 178.391 63.8306 179 61.3729C180.511 55.2625 180.691 54.0675 180.533 51.452C180.308 47.1229 178.549 42.6811 175.979 39.8852C175.167 38.9833 175.122 38.9156 175.64 39.0735C178.188 39.8175 181.976 43.2898 184.186 46.92C186.395 50.505 187.027 53.1431 187.004 58.6898C187.004 64.8678 186.238 68.7685 184.772 70.0537C184.321 70.437 183.848 70.7527 183.69 70.7527C183.532 70.7527 183.216 70.7978 182.968 70.8654C182.72 70.9105 182.021 70.8203 181.39 70.6625Z" fill="#16A34A" style="fill:#16A34A;fill:color(display-p3 0.0863 0.6392 0.2902);fill-opacity:1;"/>
<path d="M119.497 67.8666C116.791 66.1079 114.198 61.7337 113.297 57.4271C112.868 55.3978 112.868 51.3844 113.297 49.3551C114.514 43.5153 118.618 37.7882 123.736 34.7894C125.833 33.5719 129.238 32.4219 131.312 32.2641L132.913 32.1514L131.289 32.9631C126.126 35.4884 122.609 39.5018 120.895 44.823C119.136 50.3021 119.88 55.1498 123.217 59.8171C125.901 63.6051 126.036 65.2736 123.781 67.4833C123.037 68.2273 122.721 68.3626 121.707 68.4303C120.67 68.5204 120.376 68.4303 119.497 67.8666Z" fill="#16A34A" style="fill:#16A34A;fill:color(display-p3 0.0863 0.6392 0.2902);fill-opacity:1;"/>
<path d="M165.765 68.1146C164.75 67.6186 163.51 66.1079 163.329 65.1835C163.104 63.9433 163.397 63.0865 164.953 60.6063C167.794 56.0968 168.673 53.6391 168.673 50.1217C168.673 42.5909 164.073 35.759 156.971 32.7151L155.686 32.174L157.49 32.2867C162.247 32.6024 167.388 35.4433 170.77 39.6597C172.687 42.0723 174.558 45.8152 175.212 48.5434C176.745 54.9694 174.671 62.816 170.364 66.8745C168.583 68.5656 167.343 68.9038 165.765 68.1146Z" fill="#16A34A" style="fill:#16A34A;fill:color(display-p3 0.0863 0.6392 0.2902);fill-opacity:1;"/>
<path d="M89.058 56.9536C87.7502 56.2772 87.0287 55.1949 87.0287 53.9097C87.0287 49.8061 92.7107 40.9449 98.122 36.6158C101.842 33.6395 105.923 32.1063 113.184 30.9564C115.822 30.528 126.058 30.2349 128.223 30.5054L129.531 30.6858L127.501 31.0917C118.009 33.0759 108.336 36.7962 104.661 39.8401C102.181 41.9145 99.7906 45.3417 96.7241 51.204C94.6497 55.1949 93.8606 56.3899 92.8234 56.9987C91.8313 57.6075 90.3206 57.585 89.058 56.9536Z" fill="#16A34A" style="fill:#16A34A;fill:color(display-p3 0.0863 0.6392 0.2902);fill-opacity:1;"/>
<path d="M196.677 56.9987C195.64 56.3899 194.851 55.1949 192.754 51.1589C190.319 46.4465 187.906 42.8389 185.764 40.742C184.344 39.3215 183.577 38.8029 181.367 37.653C175.663 34.7669 169.462 32.67 161.999 31.0917L159.97 30.6858L161.278 30.5054C163.442 30.2349 173.679 30.528 176.317 30.9564C183.577 32.1063 187.658 33.6395 191.378 36.6158C195.685 40.043 200.33 46.4916 201.886 51.1815C202.63 53.346 202.63 54.6538 201.953 55.6684C200.893 57.2693 198.21 57.9457 196.677 56.9987Z" fill="#16A34A" style="fill:#16A34A;fill:color(display-p3 0.0863 0.6392 0.2902);fill-opacity:1;"/>
<path d="M73.7257 52.7372C72.9591 52.4667 72.215 51.9932 71.7641 51.4971C71.1328 50.8207 71.02 50.5276 71.02 49.5806C71.02 46.7396 73.7483 42.0723 77.7843 38.0363C81.933 33.865 86.3298 31.6328 92.3048 30.6858C94.988 30.2799 102.564 30.3927 104.616 30.8887L105.856 31.2044L103.263 31.7004C95.5066 33.2337 90.1177 35.6913 86.3523 39.4117C84.1652 41.5537 82.5869 43.8535 80.3998 47.9572C79.5655 49.4904 78.7087 51.0236 78.4607 51.3844C77.3108 52.9853 75.7099 53.4362 73.7257 52.7372Z" fill="#16A34A" style="fill:#16A34A;fill:color(display-p3 0.0863 0.6392 0.2902);fill-opacity:1;"/>
<path d="M213.092 53.0078C212.122 52.8274 210.747 51.1138 209.236 48.2277C207.094 44.1241 205.335 41.5762 203.148 39.4117C199.383 35.6913 193.994 33.2337 186.238 31.7004L183.645 31.2044L184.885 30.8887C186.937 30.3927 194.513 30.2799 197.196 30.6858C203.238 31.6553 207.613 33.865 211.829 38.149C215.617 41.9821 218.255 46.4239 218.435 49.2649C218.526 50.6629 218.526 50.708 217.646 51.5648C217.06 52.151 216.361 52.5568 215.549 52.8049C214.332 53.1656 214.084 53.1882 213.092 53.0078Z" fill="#16A34A" style="fill:#16A34A;fill:color(display-p3 0.0863 0.6392 0.2902);fill-opacity:1;"/>
<path d="M57.7396 49.4228C55.6201 48.6787 54.3349 47.3258 54.3349 45.9053C54.3574 43.4702 58.8669 37.5177 63.0833 34.3385C66.8262 31.5426 69.3741 30.6407 74.0188 30.4603C77.2206 30.325 79.4753 30.5505 81.8428 31.2269L83.0829 31.5877L80.5125 32.1063C72.0121 33.7974 68.63 36.458 63.5794 45.4995C62.0461 48.2503 61.4824 48.9718 60.5355 49.4228C59.611 49.8737 59.0248 49.8737 57.7396 49.4228Z" fill="#16A34A" style="fill:#16A34A;fill:color(display-p3 0.0863 0.6392 0.2902);fill-opacity:1;"/>
<path d="M228.897 49.4228C227.973 48.9493 227.432 48.2503 225.921 45.4995C220.893 36.4805 217.488 33.7974 208.988 32.1063L206.418 31.5877L207.658 31.227C211.175 30.2123 217.105 30.1221 220.104 31.024C224.794 32.4445 229.822 36.4805 233.159 41.5311C234.67 43.831 235.278 45.4093 235.075 46.5141C234.692 48.566 230.814 50.3923 228.897 49.4228Z" fill="#16A34A" style="fill:#16A34A;fill:color(display-p3 0.0863 0.6392 0.2902);fill-opacity:1;"/>
<path d="M42.4298 46.1308C41.7534 45.8828 40.7613 45.2514 40.2202 44.7329C39.3634 43.9211 39.2281 43.6506 39.2281 42.884C39.2506 41.238 40.5358 39.0509 43.1288 36.3226C45.9247 33.3915 49.3519 31.2495 52.2605 30.6407C54.8986 30.0995 59.4983 30.4378 62.1138 31.3622L63.0157 31.7004L62.3393 31.8582C59.611 32.4896 58.7768 32.7376 57.4464 33.2336C55.3946 34.0228 53.5457 35.2404 52.1252 36.7961C51.0204 38.0137 48.7882 41.5311 47.4805 44.079C47.1873 44.7103 46.556 45.522 46.1051 45.9053C45.1355 46.7621 44.2111 46.8298 42.4298 46.1308Z" fill="#16A34A" style="fill:#16A34A;fill:color(display-p3 0.0863 0.6392 0.2902);fill-opacity:1;"/>
<path d="M243.395 45.9053C242.945 45.522 242.313 44.7103 242.02 44.079C240.712 41.5311 238.48 38.0137 237.375 36.7961C235.955 35.2404 234.106 34.0228 232.054 33.2336C230.724 32.7376 229.89 32.4896 227.161 31.8582L226.485 31.7004L227.387 31.3622C230.002 30.4378 234.602 30.0995 237.24 30.6407C240.149 31.2495 243.576 33.3915 246.372 36.3226C248.965 39.0509 250.25 41.238 250.272 42.884C250.272 43.6506 250.137 43.9211 249.28 44.7329C248.198 45.7475 246.236 46.6268 244.974 46.6268C244.433 46.6268 243.959 46.4239 243.395 45.9053Z" fill="#16A34A" style="fill:#16A34A;fill:color(display-p3 0.0863 0.6392 0.2902);fill-opacity:1;"/>
<path d="M29.5777 43.7182C24.6398 41.8919 24.482 39.4116 29.0591 34.9021C31.2462 32.7601 33.1853 31.4975 35.4626 30.821C37.6046 30.1672 41.5279 30.3025 43.963 31.1142L45.6541 31.6778L43.963 32.1964C40.5809 33.2111 37.9428 34.8796 36.6802 36.7736C36.2518 37.4049 35.2822 39.1185 34.5156 40.539C33.749 41.9595 32.9373 43.3123 32.7344 43.5378C32.1256 44.1466 30.9306 44.2142 29.5777 43.7182Z" fill="#16A34A" style="fill:#16A34A;fill:color(display-p3 0.0863 0.6392 0.2902);fill-opacity:1;"/>
<path d="M257.307 43.9211C256.744 43.6731 256.157 42.7938 254.218 39.1636C253.429 37.6755 252.437 36.2099 251.828 35.5786C250.611 34.361 247.928 32.8954 245.537 32.1739L243.846 31.6778L245.537 31.1142C247.973 30.3025 251.896 30.1672 254.038 30.821C256.315 31.4975 258.254 32.7601 260.441 34.9021C263.733 38.149 264.522 40.1557 263.102 41.7791C261.839 43.2222 258.547 44.4397 257.307 43.9211Z" fill="#16A34A" style="fill:#16A34A;fill:color(display-p3 0.0863 0.6392 0.2902);fill-opacity:1;"/>
<path d="M15.7787 40.2234C13.0279 39.2538 11.9456 38.397 11.9456 37.1795C11.9456 36.3001 13.1406 34.4061 14.3582 33.3238C15.8463 31.9935 16.861 31.3847 18.4618 30.8436C20.7842 30.077 24.9781 30.325 26.9848 31.3847C27.571 31.6779 27.571 31.7004 25.677 32.67C22.8811 34.113 21.4832 35.6011 20.4009 38.2392C19.9274 39.3891 19.3637 40.4263 19.1383 40.5616C18.4844 40.8998 17.3345 40.787 15.7787 40.2234Z" fill="#16A34A" style="fill:#16A34A;fill:color(display-p3 0.0863 0.6392 0.2902);fill-opacity:1;"/>
<path d="M270.295 40.4939C270.092 40.3361 269.505 39.2313 269.009 38.0588C267.905 35.4433 266.642 34.1355 263.801 32.67C261.929 31.6779 261.929 31.6779 262.516 31.3847C264.522 30.325 268.716 30.077 271.039 30.8436C273.429 31.6553 275.774 33.4817 276.878 35.4433C277.69 36.8638 277.735 37.5853 276.991 38.4647C275.841 39.8401 271.219 41.238 270.295 40.4939Z" fill="#16A34A" style="fill:#16A34A;fill:color(display-p3 0.0863 0.6392 0.2902);fill-opacity:1;"/>
<path d="M4.25693 36.0521C1.73162 35.06 0.243484 33.4366 0.536601 31.9485C0.874813 30.077 3.98636 27.3262 7.18811 26.0185C12.622 23.8314 19.9725 24.6656 23.1517 27.8223C24.3242 29.0173 24.3918 29.3555 23.3321 28.9045C22.2498 28.4536 19.5441 28.4987 17.5599 29.0173C14.1327 29.8966 11.2241 31.6553 8.87917 34.3385C6.91754 36.5707 6.21856 36.8187 4.25693 36.0521Z" fill="#16A34A" style="fill:#16A34A;fill:color(display-p3 0.0863 0.6392 0.2902);fill-opacity:1;"/>
<path d="M282.515 36.1648C282.2 35.9845 281.343 35.1727 280.621 34.3385C278.254 31.6553 275.368 29.8966 271.941 29.0173C269.956 28.4987 267.251 28.4536 266.168 28.9045C265.109 29.3555 265.176 29.0173 266.349 27.8223C269.528 24.6656 276.878 23.8314 282.312 26.0185C285.514 27.3262 288.626 30.077 288.964 31.9485C289.257 33.4591 287.746 35.0826 285.176 36.0746C283.891 36.5481 283.282 36.5707 282.515 36.1648Z" fill="#16A34A" style="fill:#16A34A;fill:color(display-p3 0.0863 0.6392 0.2902);fill-opacity:1;"/>
<path d="M29.8709 29.6035C27.4358 28.9046 25.4516 27.687 23.3096 25.545C21.2352 23.4706 20.2882 21.9825 20.2882 20.81C20.2882 18.9611 25.6771 16.5034 27.3456 17.6083C27.6612 17.8112 28.5406 19.2317 29.3974 20.8777C30.6375 23.2677 31.1561 24.0568 32.3511 25.1842C33.952 26.7174 36.1616 27.9125 37.785 28.0928C38.3262 28.1379 38.7771 28.2732 38.7771 28.3634C38.7771 28.4536 38.1458 28.8144 37.3792 29.1751C36.1391 29.7388 35.6656 29.829 33.4785 29.8741C31.8551 29.8966 30.615 29.8065 29.8709 29.6035Z" fill="#16A34A" style="fill:#16A34A;fill:color(display-p3 0.0863 0.6392 0.2902);fill-opacity:1;"/>
<path d="M45.3159 29.4006C42.9259 28.679 42.4975 28.4761 40.8289 27.3487C39.0477 26.1763 36.4322 23.5382 35.3274 21.8246C33.4334 18.8483 33.8618 17.3827 37.0861 15.7593C38.7997 14.88 40.2653 14.8123 41.077 15.579C41.3926 15.8721 42.1142 16.9994 42.7229 18.1268C44.662 21.7344 45.3835 22.8167 46.6913 24.1019C48.8333 26.2214 51.3586 27.5291 54.6731 28.2281L56.0259 28.4987L55.3044 28.882C53.1173 30.0319 48.2245 30.3025 45.3159 29.4006Z" fill="#16A34A" style="fill:#16A34A;fill:color(display-p3 0.0863 0.6392 0.2902);fill-opacity:1;"/>
<path d="M64.0528 29.6035C60.1746 28.7467 57.469 27.3713 54.876 24.9137C52.5987 22.7491 51.1557 20.8777 50.141 18.7807C49.0362 16.526 49.1489 15.331 50.6145 14.1134C51.3135 13.5046 53.3428 12.8057 54.4025 12.8057C56.1161 12.8057 56.7249 13.4595 58.8218 17.4279C61.302 22.0952 63.1735 23.9441 67.7506 26.2214C70.0279 27.3488 72.8914 28.3183 75.1913 28.7242L76.0932 28.882L75.4167 29.0849C72.4856 29.9643 66.9163 30.2123 64.0528 29.6035Z" fill="#16A34A" style="fill:#16A34A;fill:color(display-p3 0.0863 0.6392 0.2902);fill-opacity:1;"/>
<path d="M85.5631 29.6035C77.9646 28.2281 72.8914 24.8009 68.63 18.217C66.037 14.181 65.8341 11.8135 67.9761 10.348C69.0358 9.62644 70.8847 9.13039 71.8092 9.28822C72.8689 9.49115 74.2443 11.1146 75.7099 13.9105C77.3784 17.0671 79.2949 19.9081 80.738 21.3511C82.9927 23.6059 86.9385 25.8606 91.0873 27.2586C93.3871 28.0252 96.7241 28.7918 97.7162 28.8143C98.9563 28.8143 98.0093 29.2202 95.935 29.581C93.4773 30.0094 87.8404 30.0319 85.5631 29.6035Z" fill="#16A34A" style="fill:#16A34A;fill:color(display-p3 0.0863 0.6392 0.2902);fill-opacity:1;"/>
<path d="M108.562 29.7839C104.435 29.2653 99.768 27.9576 96.8368 26.5371C92.0342 24.1921 87.1865 19.0964 84.3005 13.3017C83.2858 11.295 83.1054 10.7764 83.0378 9.3559C82.9476 8.00306 83.0152 7.61975 83.4211 6.98842C84.0299 5.99633 85.8788 5.13953 87.3444 5.13953C88.3815 5.13953 88.5394 5.20717 89.5089 6.22181C90.0726 6.80804 91.0196 8.25108 91.6284 9.42355C94.5596 15.0604 96.6114 18.1269 98.9789 20.3365C101.504 22.6589 106.239 25.1391 111.515 26.8978C114.334 27.8448 119.452 29.0398 120.715 29.0398C121.03 29.0398 121.301 29.13 121.301 29.2202C121.301 29.7388 111.538 30.1672 108.562 29.7839Z" fill="#16A34A" style="fill:#16A34A;fill:color(display-p3 0.0863 0.6392 0.2902);fill-opacity:1;"/>
<path d="M132.913 29.6937C123.105 28.7693 115.145 26.4244 109.757 22.8844C105.856 20.3365 102.609 17.0446 99.768 12.8057C97.4231 9.28827 96.3859 6.31201 96.4761 3.35829C96.4987 2.3211 98.0319 0.787873 99.4073 0.404566C101.594 -0.181669 103.195 1.21627 105.157 5.38756C107.705 10.8215 111.741 15.9398 115.844 18.9611C121.008 22.7491 129.666 26.244 140.804 29.0624L144.187 29.8967H139.564C137.016 29.8967 134.04 29.8065 132.913 29.6937Z" fill="#16A34A" style="fill:#16A34A;fill:color(display-p3 0.0863 0.6392 0.2902);fill-opacity:1;"/>
<path d="M148.696 29.0624C159.835 26.2439 168.493 22.7491 173.656 18.9611C177.76 15.9397 181.796 10.8215 184.344 5.38753C185.719 2.4789 186.846 1.01332 188.132 0.517274C189.079 0.156514 189.214 0.156514 190.274 0.517274C191.694 0.990771 193.002 2.34362 193.024 3.40335C193.115 6.28943 192.077 9.28824 189.732 12.8056C186.892 17.0446 183.645 20.3365 179.744 22.8844C172.912 27.3939 161.774 29.9868 149.485 29.9192L145.314 29.8966L148.696 29.0624Z" fill="#16A34A" style="fill:#16A34A;fill:color(display-p3 0.0863 0.6392 0.2902);fill-opacity:1;"/>
<path d="M169.958 29.6712C168.29 29.4457 167.546 29.0399 168.786 29.0399C171.244 29.0399 179.248 26.74 183.194 24.8911C190.431 21.509 193.07 18.7357 197.872 9.42355C198.481 8.25108 199.428 6.80804 199.992 6.22181C200.961 5.20717 201.119 5.13953 202.156 5.13953C203.622 5.13953 205.471 5.99633 206.079 6.98842C206.485 7.61975 206.553 8.00306 206.463 9.3559C206.395 10.7764 206.215 11.295 205.2 13.3017C202.359 18.9837 197.511 24.147 192.867 26.4469C190.657 27.5292 187.748 28.4987 184.547 29.1751C182.179 29.6937 181.187 29.7614 176.768 29.829C173.972 29.8741 170.905 29.8065 169.958 29.6712Z" fill="#16A34A" style="fill:#16A34A;fill:color(display-p3 0.0863 0.6392 0.2902);fill-opacity:1;"/>
<path d="M193.34 29.581C191.446 29.2202 190.612 28.8143 191.784 28.8143C192.776 28.7918 196.113 28.0252 198.413 27.2586C202.584 25.8606 206.44 23.651 208.763 21.3286C210.206 19.9081 212.122 17.0671 213.791 13.9105C215.256 11.1146 216.632 9.49115 217.691 9.28822C218.616 9.13039 220.465 9.62644 221.524 10.348C223.666 11.8135 223.463 14.181 220.87 18.217C217.083 24.0568 212.55 27.4615 206.418 29.0624C203.937 29.7162 203.374 29.7839 199.428 29.8515C196.316 29.8966 194.648 29.829 193.34 29.581Z" fill="#16A34A" style="fill:#16A34A;fill:color(display-p3 0.0863 0.6392 0.2902);fill-opacity:1;"/>
<path d="M216.226 29.6035C215.414 29.4232 214.467 29.1977 214.084 29.0849L213.407 28.882L214.309 28.7016C217.398 28.1379 220.465 27.0331 223.08 25.545C226.688 23.4932 228.018 22.1403 230.16 18.3072C230.791 17.2024 231.626 15.7143 232.032 14.9928C232.888 13.4595 233.835 12.8057 235.121 12.8057C236.158 12.8057 238.187 13.5046 238.886 14.1134C240.352 15.331 240.464 16.526 239.359 18.7807C237.646 22.3432 233.948 26.1312 230.589 27.7997C227.409 29.3555 225.583 29.7614 221.299 29.8516C218.796 29.8967 217.24 29.829 216.226 29.6035Z" fill="#16A34A" style="fill:#16A34A;fill:color(display-p3 0.0863 0.6392 0.2902);fill-opacity:1;"/>
<path d="M236.225 29.6035C235.526 29.4231 234.602 29.1074 234.196 28.882L233.475 28.4987L234.827 28.2281C238.142 27.5291 240.667 26.2214 242.809 24.1019C244.117 22.8167 244.838 21.7344 246.778 18.1268C247.386 16.9994 248.108 15.8721 248.424 15.579C249.235 14.8123 250.701 14.88 252.414 15.7593C254.827 16.9769 255.639 18.1268 255.21 19.7051C254.602 21.8697 250.971 25.9959 248.13 27.732C247.386 28.183 245.966 28.8369 244.974 29.1751C243.441 29.7162 242.742 29.8064 240.352 29.874C238.458 29.8966 237.105 29.829 236.225 29.6035Z" fill="#16A34A" style="fill:#16A34A;fill:color(display-p3 0.0863 0.6392 0.2902);fill-opacity:1;"/>
<path d="M253.767 29.7839C253.001 29.6035 250.723 28.5438 250.723 28.3634C250.723 28.2732 251.174 28.1379 251.715 28.0928C253.339 27.9125 255.549 26.7174 257.149 25.1842C258.344 24.0568 258.863 23.2677 260.103 20.8777C260.96 19.2317 261.839 17.8112 262.155 17.6083C263.823 16.5034 269.212 18.9611 269.212 20.81C269.212 21.9825 268.265 23.4706 266.191 25.545C264.004 27.7321 261.997 28.9496 259.517 29.6035C258.344 29.9192 254.782 30.0319 253.767 29.7839Z" fill="#16A34A" style="fill:#16A34A;fill:color(display-p3 0.0863 0.6392 0.2902);fill-opacity:1;"/>
</g>
</svg>
