<svg width="140" height="362" viewBox="0 0 140 362" fill="none" xmlns="http://www.w3.org/2000/svg">
<g opacity="0.2">
<path d="M77.9259 0.428986C77.5814 0.657806 77.2368 0.772186 77.1507 0.686401C77.0645 0.600586 76.4042 1.31561 75.6576 2.2594C74.9398 3.23181 74.2794 4.004 74.222 4.004C74.1646 4.004 74.2794 3.6322 74.423 3.20319C74.624 2.71701 74.6527 2.03061 74.5091 1.5444L74.2794 0.714996L73.7913 1.83041C73.3893 2.68839 73.3319 3.1174 73.5616 3.77521C73.82 4.5188 73.7052 4.80481 72.3557 6.80679C70.3745 9.6954 70.2309 9.80978 70.4606 8.55139C70.6329 7.52179 70.2022 6.00601 69.7428 6.00601C69.628 6.00601 69.427 6.578 69.3409 7.2644C69.1973 8.20819 69.2547 8.6944 69.628 9.26639C70.1161 9.98138 70.0874 10.0386 68.623 12.441C67.7904 13.7852 67.0439 14.872 66.9864 14.872C66.929 14.872 66.929 14.1856 67.0439 13.3562C67.1587 12.2122 67.1013 11.6402 66.6993 10.8966C65.9528 9.43799 65.5795 9.49521 65.3498 11.1254C65.1775 12.4982 65.5508 14.014 66.0676 14.014C66.2112 14.014 66.4409 14.2714 66.6132 14.5574C66.8429 14.9864 66.6419 15.6156 65.5795 17.5604C64.8617 18.9046 64.2013 20.02 64.1152 20.02C64.029 20.02 64.029 19.3908 64.1439 18.6472C64.23 17.875 64.23 16.874 64.1439 16.3878C63.9716 15.444 62.7657 13.7566 62.4786 14.0426C62.3637 14.1284 62.2201 15.0436 62.134 16.0446C61.9617 17.8464 61.9617 17.9036 62.9954 19.1048C63.9716 20.306 64.0003 20.3918 63.6271 21.2498C62.3924 24.1098 61.8469 25.168 61.6746 25.168C61.531 25.168 61.4449 24.3958 61.4449 23.452C61.4449 21.4786 60.9855 20.163 59.9518 19.2192L59.2053 18.5614L59.033 19.8484C58.7172 21.9076 59.0905 23.166 60.3825 24.5102L61.531 25.7114L60.3538 28.8574C59.6934 30.602 58.7746 33.4334 58.3152 35.2066C57.8271 36.9512 57.3964 38.4384 57.339 38.5242C57.1954 38.6672 56.6786 37.3802 56.2766 35.893C55.7598 33.8624 54.8123 32.5754 53.1757 31.6602L51.6539 30.8022L51.8549 31.9176C52.2569 34.1484 53.1183 36.5222 53.7499 37.1228C54.1232 37.4374 54.9271 37.9236 55.5588 38.2096C57.3964 38.9532 57.3677 38.9246 56.9657 41.5272C56.7648 42.8428 56.5063 44.6446 56.4202 45.5884C56.3054 46.5036 56.1331 47.1328 55.9895 47.0184C55.8747 46.8754 55.444 45.8458 55.0133 44.7018C53.9509 41.899 52.9173 40.5548 51.0797 39.6396C50.247 39.2392 49.4143 38.896 49.2133 38.896C48.4955 38.896 50.6777 44.6732 51.7688 45.7028C52.1133 46.046 53.2331 46.5894 54.2668 46.9612L56.1331 47.619L56.3054 51.337C56.4202 53.3962 56.6499 55.8272 56.8222 56.7424C56.9945 57.6862 57.0806 58.487 57.0232 58.5442C56.8509 58.7158 55.5588 56.914 54.841 55.5126C53.8361 53.5106 51.5678 51.2798 49.845 50.6792C48.151 50.05 46.2272 49.6496 46.2272 49.9356C46.2272 50.05 46.8302 51.3084 47.6054 52.7384C49.7876 56.8854 51.8262 58.63 54.64 58.63C55.0707 58.63 55.8747 58.8016 56.3915 59.0304C57.2242 59.3736 57.3964 59.631 57.7123 60.9466C58.0568 62.4338 58.8895 64.779 59.837 67.0098L60.3251 68.0966L59.5212 67.6676C59.0905 67.4388 57.6836 66.4092 56.4202 65.3796C55.1856 64.3214 53.4341 63.1202 52.544 62.6912C51.1371 62.0048 50.6777 61.919 48.0074 61.9476C46.3995 61.9476 44.9352 62.0906 44.7629 62.2622C44.3896 62.634 48.7252 66.6952 50.9361 68.0394C52.8886 69.212 54.238 69.4122 56.5351 68.8116C57.5113 68.5542 58.8033 68.354 59.3776 68.354C60.3538 68.354 60.4974 68.4684 61.1578 69.6982C62.0479 71.3856 64.6894 75.3896 66.4122 77.649C67.13 78.5642 67.6755 79.3936 67.6181 79.4508C67.4458 79.6224 65.2637 78.1352 63.7993 76.8196C61.9043 75.1608 60.0667 73.931 58.2291 73.073C56.9945 72.501 56.2479 72.358 54.238 72.358C51.3668 72.358 49.0985 72.6154 49.0985 72.9586C49.0985 73.073 50.5628 74.4744 52.3143 76.076C57.5113 80.6806 59.9231 81.6244 63.7132 80.4804C65.6082 79.937 67.9914 79.8798 68.4795 80.4232C69.025 80.9666 73.8774 88.088 75.7725 91.091C76.6913 92.4924 77.6675 94.0368 77.9546 94.5229C78.5002 95.3524 78.5002 95.381 77.9833 94.952C77.6675 94.7232 76.5477 93.4648 75.4566 92.1492C71.9537 87.9736 69.3696 85.8286 66.728 84.9134C65.1201 84.3414 58.1717 83.5406 57.8271 83.8838C57.5113 84.1984 62.536 90.662 65.0053 93.093C66.2973 94.38 67.9627 95.7242 68.7666 96.0959C70.1161 96.7538 70.4894 96.811 74.7101 96.811C77.323 96.811 79.3328 96.9254 79.5051 97.097C80.4526 98.098 89.2387 114.858 88.9228 115.144C88.7218 115.344 85.8506 111.797 84.2714 109.395C80.1655 103.217 76.6626 100.472 71.4943 99.4136C68.623 98.8416 65.3211 98.5269 65.5508 98.8416C65.6369 98.9846 66.6993 100.701 67.9052 102.674C70.8913 107.507 72.2983 109.452 74.3656 111.483C76.921 114.057 78.0408 114.486 82.5486 114.715C86.3387 114.886 88.205 115.229 89.0664 115.887C89.6119 116.288 92.5693 123.438 94.4644 128.843C96.0148 133.247 97.6227 138.51 97.4792 138.653C97.1921 138.939 94.5218 134.792 92.9713 131.703C88.3486 122.494 85.0753 119.519 77.2081 117.289C73.3032 116.202 72.9299 116.116 72.9299 116.402C72.9299 116.516 73.8487 118.661 74.9685 121.15C77.8972 127.785 80.3665 131.817 82.8645 134.248C84.5872 135.907 86.4536 136.651 90.4733 137.251C94.5218 137.852 97.5079 138.967 97.9099 139.997C98.7138 142.085 100.695 151.637 101.499 157.157C102.073 161.132 102.762 167.71 102.619 167.853C102.303 168.197 99.8623 162.105 99.0584 159.016C96.7614 150.093 93.8901 145.174 89.1525 141.942C87.2575 140.683 80.4239 137.166 80.1942 137.366C80.1368 137.452 80.6249 139.854 81.2566 142.743C84.013 154.869 86.5397 160.16 90.7604 162.648C91.6218 163.134 93.7465 164.021 95.498 164.593C97.6227 165.308 99.3168 166.08 100.666 166.995L102.647 168.34L102.848 170.771C103.48 179.208 102.82 191.706 101.154 202.202C100.695 204.976 100.638 205.119 100.465 204.061C100.092 202.116 100.178 197.683 100.666 192.764C101.068 188.846 101.097 187.473 100.839 184.584C100.236 178.292 99.3455 175.833 96.0435 171.428C94.4931 169.369 89.6694 164.164 89.3248 164.164C89.0664 164.164 87.6308 174.46 87.2575 178.893C86.7981 184.356 87.3724 190.133 88.607 192.564C89.5545 194.451 91.4495 196.539 94.1772 198.77C97.0772 201.115 98.3693 202.488 99.7475 204.719L100.523 205.949L99.9197 209.009C98.5415 215.987 96.2445 224.253 93.6891 231.546L92.598 234.663L92.5119 231.546C92.4545 229.229 92.598 227.484 93.1436 224.539C94.1772 218.819 94.2347 218.218 94.2059 213.814C94.2059 207.207 93.3733 204.376 90.0139 199.371C87.8605 196.139 83.9556 191.42 83.6971 191.677C83.5536 191.82 81.4576 201.516 80.8259 204.919C80.1942 208.294 79.9358 216.702 80.3665 218.819C81.0269 221.965 82.2041 223.824 85.5922 227.17C89.2387 230.802 90.3585 232.118 91.4495 234.177L92.2535 235.664L90.8753 239.182C88.5496 245.045 85.9654 250.65 82.4625 257.514C79.8209 262.691 79.0744 263.921 79.017 263.292C78.8734 262.005 79.7922 256.714 80.5675 254.454C82.5199 248.82 83.812 242.099 83.8407 237.58C83.8407 232.547 81.716 227.198 76.7774 219.82C75.8299 218.39 75.1982 217.703 75.1121 217.961C75.0259 218.189 74.5665 219.505 74.0497 220.935C69.9151 232.747 68.6518 237.609 68.4221 243.014C68.3072 245.674 68.3646 247.218 68.623 248.162C69.2547 250.507 70.8626 253.196 73.5329 256.428C75.9447 259.316 77.7824 262.405 78.2418 264.321C78.4715 265.179 78.213 265.694 74.1359 272.415C70.0874 279.107 62.3924 290.462 62.1053 290.175C61.9043 289.975 62.8805 285.657 63.5696 283.712C63.9429 282.682 64.8904 280.051 65.6944 277.849C68.0775 271.214 69.226 264.235 68.5943 260.289C68.0201 256.571 65.3211 250.107 62.1914 244.959L61.1865 243.272L60.8707 244.101C60.6984 244.53 59.6073 247.104 58.4588 249.792C54.2668 259.545 52.4292 265.608 52.0846 270.842C51.7975 275.189 52.7737 278.049 56.1618 282.711C59.0905 286.743 59.4637 287.401 60.2677 289.632L61.1003 291.834L58.4875 295.295C54.0658 301.129 47.8064 308.708 42.552 314.571L41.8916 315.315L42.0639 314.171C42.4372 311.683 43.7867 307.679 45.5094 303.875C48.553 297.097 50.0173 292.035 50.4193 286.829C50.649 283.769 50.2757 281.567 48.7539 277.134C47.5767 273.759 44.3896 266.838 44.0164 266.867C43.758 266.867 39.1639 276.305 37.3263 280.537C35.7472 284.17 34.0244 289.403 33.5937 291.892C33.3927 293.007 33.2779 295.066 33.364 296.61C33.5363 300.014 34.2541 301.844 37.3551 306.592C39.1352 309.366 39.853 310.767 40.5421 312.941L41.4322 315.744L40.3125 317.088C38.561 319.233 21.5919 336.078 16.4236 340.797C7.55141 348.891 6.69003 349.606 4.30689 350.893C1.03365 352.638 0 353.582 0 354.84C0 356.985 3.35937 361.475 5.34054 361.961C6.37419 362.219 7.72368 361.218 10.6811 358.015C12.1454 356.442 14.3276 354.382 15.5335 353.467C21.9651 348.577 37.4699 333.104 46.9451 322.122L49.2133 319.462L50.3619 319.662C53.3192 320.091 55.9321 321.006 59.6073 322.865C64.5746 325.353 66.3835 325.868 70.03 325.697C73.4468 325.525 76.6339 324.524 81.9744 321.921C85.4773 320.205 87.8605 318.833 95.4119 314.228L98.5128 312.34L97.1346 311.74C94.8376 310.71 88.4347 308.68 85.8506 308.136C82.3764 307.421 78.5576 307.478 75.3705 308.279C70.7478 309.452 65.6944 311.654 60.1528 314.914C57.9133 316.23 52.6014 318.461 50.4193 319.004C49.3856 319.262 48.9836 319.834 54.9846 312.426C57.5113 309.28 60.6697 305.219 62.0192 303.389C63.5409 301.272 64.6607 300.014 64.9765 300.014C66.8142 299.985 70.2884 301.101 74.0784 302.874C80.2803 305.82 82.8358 306.249 87.1714 305.162C92.7416 303.76 97.393 301.329 109.452 293.55C111.146 292.464 112.525 291.491 112.553 291.405C112.553 291.148 109.165 289.918 105.634 288.888C97.0198 286.429 92.3396 286.572 84.9318 289.546C81.6298 290.862 80.0794 291.663 75.9447 294.151C74.0497 295.295 71.9537 296.496 71.2646 296.839C70.1448 297.411 65.6369 299.156 65.2924 299.156C65.2062 299.156 65.7231 298.355 66.4409 297.383C67.1587 296.382 69.5418 292.893 71.6953 289.604L75.6576 283.626L79.1031 283.798C81.6298 283.912 83.209 284.17 84.9605 284.684C86.31 285.085 88.4634 285.571 89.7555 285.771C94.9525 286.515 99.9485 284.77 108.103 279.336C110.917 277.477 120.909 269.927 120.765 269.784C120.507 269.526 115.367 268.811 111.979 268.583C106.61 268.182 103.308 268.525 99.7188 269.87C95.0099 271.586 90.8753 273.959 84.8456 278.335C83.5823 279.25 81.0269 280.795 79.1318 281.767C76.2319 283.226 75.7438 283.397 76.117 282.825C77.3804 280.909 81.7447 273.302 83.8694 269.326L86.2813 264.779L89.5832 264.922C92.1961 265.036 93.5168 265.265 95.9 265.98C98.2831 266.724 99.6039 266.924 102.217 267.038C105.232 267.181 105.72 267.124 107.816 266.409C112.553 264.836 117.923 261.518 126.68 254.74C129.81 252.309 131.389 250.936 131.159 250.793C130.958 250.679 129.379 250.364 127.627 250.078C123.579 249.421 115.109 249.335 112.984 249.935C108.333 251.251 102.389 254.368 97.3069 258.172C93.804 260.746 91.6792 262.062 88.6931 263.463L86.4823 264.493L88.6357 260.088C89.8129 257.657 91.3921 254.225 92.1386 252.452L93.5168 249.249L94.9238 248.906C96.7327 248.448 98.5128 248.391 104.112 248.677C108.361 248.877 108.878 248.849 110.716 248.305C115.511 246.847 121.052 242.242 130.613 231.717L132.997 229.086H129.752C124.469 229.086 119.157 229.83 116.2 231.002C114.621 231.631 111.118 233.719 108.964 235.349C108.017 236.036 105.174 238.638 102.647 241.098C98.1396 245.474 93.5743 249.163 94.0337 248.076C95.3257 244.873 97.8237 238.066 99.0297 234.491L100.523 230.03L102.159 229.515C103.308 229.172 105.433 228.972 109.251 228.8C115.367 228.571 117.061 228.171 119.961 226.34C121.827 225.139 126.565 220.62 129.063 217.646C131.762 214.414 137.591 206.721 137.447 206.578C137.246 206.406 131.791 207.035 129.092 207.522C126.364 208.036 122.603 209.18 121.023 210.01C117.578 211.754 112.869 215.959 108.677 221.078C105.921 224.424 101.183 229.286 100.896 229.029C100.839 228.943 101.097 227.828 101.499 226.483C102.332 223.538 103.394 219.219 104.37 214.5C104.801 212.527 105.289 210.839 105.461 210.725C106.524 210.038 110.543 209.066 113.558 208.78C117.693 208.408 119.042 208.094 121.454 206.978C123.809 205.891 127.828 201.945 130.987 197.626C133.198 194.566 139.4 184.785 139.227 184.642C139.055 184.499 133.025 185.814 130.929 186.415C127.972 187.273 124.699 188.674 123.234 189.675C119.703 192.106 115.338 196.968 111.548 202.717C109.395 206.006 105.375 210.525 105.375 209.667C105.375 209.381 105.49 208.494 105.662 207.665C106.064 205.52 107.04 197.597 107.27 194.623C107.385 193.193 107.586 191.877 107.758 191.677C107.902 191.506 107.931 191.334 107.787 191.334C107.643 191.334 107.615 189.218 107.701 186.558C107.959 179.093 107.672 172.086 106.782 164.45C106.122 158.473 106.064 159.016 107.356 157.529C108.017 156.785 109.596 155.47 110.859 154.583C115.195 151.551 116.544 149.635 117.664 145.002C118.439 141.799 118.784 138.51 119.042 132.418L119.243 127.442L118.124 128.328C116.257 129.815 112.123 134.163 111.032 135.764C109.194 138.481 107.873 143.229 107.385 148.863C106.983 153.668 106.208 158.158 105.921 157.414C105.806 157.128 105.375 155.069 104.973 152.867C104.542 150.665 103.882 147.462 103.48 145.774C102.734 142.685 102.734 142.657 103.25 141.627C103.566 141.084 105.059 139.282 106.581 137.652C110.63 133.333 111.405 131.36 111.405 125.154C111.405 121.893 110.342 111.597 109.969 111.168C109.739 110.911 107.356 113.714 105.748 116.116C102.332 121.178 101.729 124.639 102.274 136.708C102.533 142.085 102.734 142.285 100.35 134.849C99.69 132.79 98.6851 129.901 98.1396 128.414L97.1059 125.668L97.9099 123.981C98.3406 123.037 99.4316 121.35 100.35 120.263C103.681 116.202 104.37 113.542 103.566 107.507C103.107 104.19 101.068 94.952 100.752 94.952C100.465 94.952 97.0198 100.901 96.302 102.645C94.8089 106.335 94.7228 110.625 96.0148 117.46C96.6752 120.835 97.1633 124.982 96.9336 124.982C96.8762 124.982 96.5317 124.238 96.1584 123.323C95.8139 122.437 94.4356 119.319 93.0862 116.402L90.6743 111.14L91.1624 109.538C91.4208 108.68 92.3396 106.878 93.201 105.534C94.0337 104.19 94.9238 102.531 95.1822 101.845C95.7277 100.243 95.7277 96.9539 95.1535 94.1512C94.7228 91.949 91.7367 82.7112 91.3347 82.2822C91.0476 81.9962 88.3486 87.7448 87.6882 89.947C87.3149 91.3198 87.2288 92.3208 87.3724 95.095C87.5446 98.4126 87.7456 99.4422 89.3535 104.962C89.7555 106.306 90.1575 108.108 90.2723 108.966L90.4446 110.539L89.2387 108.308C88.5496 107.078 86.7694 103.932 85.2476 101.33C82.0318 95.8386 82.0892 96.1532 84.214 91.663C85.3625 89.2034 85.4199 88.9746 85.3912 86.515C85.3625 84.5416 85.1902 83.4548 84.6159 81.9104C83.7833 79.508 80.3378 72.072 80.0794 72.072C79.7635 72.072 78.3853 76.1332 77.8972 78.4784C77.4952 80.4518 77.4952 81.1096 77.7824 82.9114C78.1843 85.2566 79.2754 88.7458 80.1942 90.519C80.8259 91.806 82.1467 95.524 81.9457 95.524C81.8883 95.524 80.8833 94.0654 79.7348 92.2922C78.5863 90.5476 76.4329 87.4588 74.9972 85.4282C73.5329 83.4262 72.3557 81.653 72.3557 81.4814C72.3557 80.9666 73.1883 79.5938 74.6527 77.6776C76.3754 75.361 76.7774 74.0454 76.5764 71.1568C76.4329 68.8402 74.9685 61.776 74.6527 61.776C74.423 61.776 72.2408 65.5798 71.6379 67.0384C70.8339 68.926 70.7765 71.8146 71.4656 75.7042C71.7814 77.5918 72.0686 79.651 72.0686 80.223V81.2812L70.0012 78.6214C68.8527 77.1342 67.3023 75.1608 66.5557 74.217C65.8092 73.2732 64.8043 71.9004 64.3449 71.1568L63.4835 69.784L64.5459 68.7258C65.1488 68.1252 66.2973 67.0956 67.1013 66.4378C68.2211 65.5226 68.7379 64.8362 69.1686 63.635C69.7428 62.0906 70.3458 57.4002 70.3458 54.34V52.7956L68.4508 54.626C65.3211 57.7148 64.6033 59.488 64.0577 65.4368C63.8855 67.21 63.6558 68.8688 63.5122 69.0976C62.8231 70.2988 58.8033 60.0886 58.4588 56.2848C58.4014 55.7414 58.2865 55.1408 58.1717 54.9406C57.7697 54.2828 57.6261 46.5036 57.9707 43.472C58.4301 39.5252 59.1479 35.9502 59.5499 35.6928C59.7221 35.5784 60.5835 35.5498 61.5023 35.6642C62.9092 35.8072 63.2825 35.7214 64.3736 35.0922C65.0627 34.6918 66.326 33.6336 67.1874 32.747L68.7666 31.1168L66.9003 31.317C64.4597 31.5744 63.6271 31.9462 61.6172 33.7194C60.1241 35.0064 59.435 35.4354 59.435 35.0636C59.435 35.0064 59.837 33.6336 60.3251 32.032C61.3875 28.3998 63.3686 23.3948 63.828 23.1088C64.029 22.9944 64.8043 22.88 65.5508 22.88C66.8716 22.88 67.0726 22.7656 68.7092 21.164L70.4894 19.448H69.3983C68.0488 19.448 66.929 20.02 65.2924 21.5072C64.6033 22.1364 64.029 22.5654 64.029 22.4224C64.029 22.2794 64.5746 21.0496 65.235 19.6768L66.4122 17.16H68.1636C69.8003 17.16 70.0012 17.0742 71.5804 15.8444C72.4705 15.1294 73.2171 14.4144 73.2171 14.2714C73.2171 13.871 71.322 13.9568 70.2597 14.4144C69.7428 14.6146 68.7666 15.2724 68.1062 15.8444C67.4171 16.4164 66.8142 16.874 66.7567 16.874C66.6993 16.874 67.3023 15.7014 68.1062 14.3L69.5418 11.726H70.8052C71.8676 11.726 72.2695 11.5544 73.1596 10.725L74.222 9.75259L73.1883 9.724C72.4992 9.724 71.7814 10.01 70.9201 10.6392L69.628 11.583L70.2884 10.582C70.6329 10.0386 71.3507 8.92319 71.8389 8.09381C72.7289 6.66379 72.7864 6.63519 73.9636 6.66379C74.825 6.69238 75.3705 6.54941 75.715 6.20621C76.1745 5.7486 76.1745 5.72 75.2556 5.72C74.7388 5.72 74.0784 5.86301 73.7626 6.00601C73.4755 6.17761 73.2171 6.2348 73.2171 6.14899C73.2171 6.0632 74.021 4.89059 74.9972 3.57501C76.5477 1.42999 76.8635 1.14401 77.6388 1.14401C78.1269 1.14401 78.9309 0.886597 79.3903 0.571991L80.2516 0H79.3903C78.9021 0 78.2418 0.200195 77.9259 0.428986Z" fill="#16A34A" style="fill:#16A34A;fill:color(display-p3 0.0863 0.6392 0.2902);fill-opacity:1;"/>
<path d="M55.5304 26.3982C55.8175 29.1438 56.1621 29.9446 57.6264 30.917C58.3155 31.4032 58.9472 31.7464 59.0333 31.6892C59.1482 31.5462 58.6888 28.6576 58.4016 27.6566C58.2007 26.9702 56.6502 25.2256 55.9036 24.8252C55.3581 24.5392 55.3294 24.5964 55.5304 26.3982Z" fill="#16A34A" style="fill:#16A34A;fill:color(display-p3 0.0863 0.6392 0.2902);fill-opacity:1;"/>
<path d="M66.2394 25.8544C65.2345 26.2262 64.0573 26.9412 62.3345 28.2854L61.6167 28.8288L63.2246 29.029C65.0622 29.2578 66.2968 28.7716 68.4216 26.9126L69.7424 25.7972L68.8523 25.6256C67.7038 25.3968 67.5028 25.4254 66.2394 25.8544Z" fill="#16A34A" style="fill:#16A34A;fill:color(display-p3 0.0863 0.6392 0.2902);fill-opacity:1;"/>
<path d="M64.4596 37.8088C63.3686 38.1806 61.9904 39.1816 59.8943 41.0978L58.229 42.6136H60.2963C61.4161 42.6136 62.7369 42.442 63.2537 42.2132C64.3161 41.7842 66.9002 39.5248 67.7903 38.295L68.3645 37.4656L66.8428 37.4942C66.0101 37.4942 64.9477 37.6372 64.4596 37.8088Z" fill="#16A34A" style="fill:#16A34A;fill:color(display-p3 0.0863 0.6392 0.2902);fill-opacity:1;"/>
<path d="M67.1877 44.7016C64.2877 45.9028 62.565 47.6188 60.7561 51.1938C59.9809 52.681 59.1482 54.1396 58.9185 54.4256C58.3155 55.112 58.6601 55.3122 59.6363 54.826C60.067 54.5972 60.8997 54.3112 61.4452 54.1968C63.0818 53.8536 64.4887 52.9956 65.4362 51.7944C66.3263 50.679 69.657 44.1296 69.456 43.9008C69.3699 43.8436 68.3649 44.2154 67.1877 44.7016Z" fill="#16A34A" style="fill:#16A34A;fill:color(display-p3 0.0863 0.6392 0.2902);fill-opacity:1;"/>
<path d="M126.306 146.517C118.037 151.065 115.223 154.64 111.835 164.85C111.002 167.395 109.768 170.57 109.107 171.857C108.447 173.172 107.987 174.288 108.045 174.374C108.131 174.431 108.878 173.973 109.71 173.344C110.572 172.686 112.668 171.599 114.39 170.856C119.071 168.911 120.621 167.767 122.43 164.936C123.665 163.019 125.416 159.13 126.421 156.012C127.167 153.696 129.493 145.545 129.493 145.202C129.493 144.83 129.034 145.001 126.306 146.517Z" fill="#16A34A" style="fill:#16A34A;fill:color(display-p3 0.0863 0.6392 0.2902);fill-opacity:1;"/>
<path d="M132.078 165.852C126.134 167.911 123.78 169.255 120.88 172.144C118.123 174.918 115.941 178.064 113.213 183.155C112.209 185.042 110.601 187.616 109.653 188.875C108.706 190.105 107.988 191.163 108.045 191.22C108.103 191.306 109.108 190.905 110.285 190.333C111.462 189.79 113.472 189.132 114.85 188.903C121.655 187.645 124.297 185.843 128.288 179.894C129.752 177.692 136.385 165.194 136.385 164.593C136.385 164.336 136.097 164.422 132.078 165.852Z" fill="#16A34A" style="fill:#16A34A;fill:color(display-p3 0.0863 0.6392 0.2902);fill-opacity:1;"/>
</g>
</svg>
