<svg width="145" height="40" viewBox="0 0 145 40" fill="none" xmlns="http://www.w3.org/2000/svg">
<path d="M24.825 0.0200954C24.1688 0.10447 23.7938 0.220095 23.1219 0.551345C22.05 1.07947 20.9906 1.8951 20.2938 2.7326C19.9125 3.18572 19.2563 4.16385 19.0313 4.6076C18.875 4.91697 18.7969 5.3826 18.6719 6.7701C18.6063 7.47947 18.5781 7.85135 18.4344 9.84822C18.2969 11.742 18.2031 12.6826 18.1406 12.792C18.0906 12.8826 17.9813 12.0888 17.6688 9.3951C17.2219 5.53572 17.1063 4.87635 16.7 3.92322C16.0938 2.51072 14.6813 1.33572 12.9031 0.766971C12.0125 0.482595 11.2875 0.476345 10.3188 0.74197C9.475 0.976346 8.75625 1.36072 7.95625 2.01697C7.2375 2.60447 6.83438 3.03572 5.9 4.2076C5.02188 5.3076 4.525 5.9826 4.34063 6.32322C4.27813 6.44197 4.21563 6.5076 4.125 6.55447C3.96875 6.63572 3.90938 6.6826 3.1375 7.31385C2.27813 8.0201 1.90938 8.3451 1.55938 8.71385C0.834375 9.47635 0.453125 10.1013 0.20625 10.942C0.040625 11.5045 0 11.8138 0 12.5045C0.003125 13.3482 0.096875 13.9732 0.284375 14.3451C0.44375 14.667 1.01875 15.3482 1.4125 15.6857C2.025 16.2107 3.34063 16.9013 4.30625 17.2076C5.575 17.6076 6.79688 17.8045 9.52813 18.0513C11.7375 18.2513 12.5656 18.3513 12.7906 18.4451L12.8969 18.4888L12.7906 18.6013C12.6594 18.7357 12.5 18.7857 11.9813 18.8451C11.425 18.9107 10.675 18.9513 9.2625 18.9888C6.6625 19.0576 5.54688 19.1451 4.73125 19.3482C3.64063 19.6201 2.23438 20.5763 1.41875 21.5982C0.5625 22.6763 0.23125 23.6388 0.059375 25.5513C-0.003125 26.2263 -0.003125 26.867 0.059375 27.0701C0.14375 27.3576 0.6125 28.0576 1.2875 28.9045C1.77813 29.517 2.14375 29.9014 2.70938 30.392L3.24688 30.8607L3.525 31.4576C3.67813 31.7857 3.87188 32.1764 3.95625 32.3264C4.46563 33.217 5.325 34.3451 5.99063 34.9982C6.61875 35.6139 7.05625 35.867 7.8625 36.0795C8.95313 36.3701 10.6313 36.4951 11.3594 36.3389C12.1938 36.1639 13.2406 35.5545 14.0188 34.7951C14.3688 34.4545 14.7313 33.9326 15.0281 33.3357C15.3938 32.6014 15.6844 31.4014 16.0906 28.9107C16.3906 27.092 16.5781 26.0888 16.7 25.6982C16.8219 25.3076 17.0031 25.1263 17.3375 25.0638L17.4563 25.042L17.4375 25.3045C17.4125 25.6482 17.3063 27.9607 17.2594 29.1764C17.2188 30.2045 17.2375 31.8482 17.2938 32.3326C17.4313 33.5357 17.8625 34.9701 18.4656 36.2326C18.9063 37.1514 19.2781 37.6701 20.025 38.4107C20.6063 38.9889 20.9438 39.2514 21.4188 39.4889C21.7875 39.6732 22.0781 39.767 22.7063 39.8951C23.2531 40.0107 23.2688 40.0076 23.325 39.8045C23.3406 39.742 23.3844 39.5295 23.4219 39.3326C23.5094 38.8576 23.4906 38.6795 23.3188 38.3326C23.2 38.0889 23.1438 38.0201 22.6 37.4795C21.6469 36.5264 21.3906 36.192 21.0125 35.4107C20.1438 33.6201 19.8156 32.1545 19.6531 29.3482C19.5719 27.9763 19.5906 26.8107 19.7 26.317C19.7625 26.0232 19.7656 26.0201 19.8313 26.2076C20.1563 27.1513 20.3906 28.0013 20.6656 29.2545C21.0438 30.9514 21.1219 31.1545 21.7875 32.1045C22.6969 33.4045 23.3969 34.1732 24.3875 34.9576C25.2594 35.6482 25.8969 35.9639 26.7844 36.142C27.9531 36.3764 28.8156 36.267 29.7625 35.7639C30.2594 35.4982 30.5594 35.2826 30.7688 35.042C30.875 34.9201 31.0813 34.7201 31.2281 34.5951C31.8 34.1232 32.0438 33.7639 32.7375 32.3795C33.2344 31.392 33.5531 30.8764 34.1344 30.1295C34.5688 29.5732 34.9375 29.2295 35.3688 28.9732L35.7406 28.7545L35.8875 28.4732C35.9688 28.317 36.1125 28.0576 36.2125 27.8951C36.5031 27.4107 36.6375 26.9982 36.7781 26.1638C36.9094 25.3732 36.9625 24.7451 36.9625 23.9732C36.9594 23.0951 36.9344 22.9732 36.5938 22.2857C35.875 20.8388 34.9906 20.017 33.5438 19.4482C32.8313 19.1701 32.2 19.0076 31.4656 18.9138C30.5156 18.792 30.2563 18.7857 26.7781 18.7857C24.8469 18.7857 23.3531 18.7732 23.3281 18.7576C23.2938 18.7357 23.2938 18.7263 23.3313 18.7045C23.4313 18.6482 24.1438 18.5576 26.0906 18.3482C28.6625 18.0701 29.35 17.9545 30.1844 17.6451C31.5281 17.1513 32.5344 16.6107 33.5906 15.817C34.7875 14.917 35.3844 14.1076 35.7469 12.892C35.9906 12.0857 36.1688 10.867 36.1688 10.0513C36.1656 9.39822 36.0844 9.06072 35.7625 8.41072C35.2969 7.47322 34.8063 6.92635 33.9281 6.3576C33.6813 6.19822 33.1219 5.8326 32.6875 5.5451C31.5625 4.8076 31.2688 4.51385 30.4313 3.30135C29.9563 2.6076 29.6375 2.19822 29.2875 1.81072C28.4625 0.904471 27.4344 0.282595 26.4188 0.0794704C26.0719 0.00759538 25.1875 -0.0236546 24.825 0.0200954Z" fill="#16A34A" style="fill:#16A34A;fill:color(display-p3 0.0863 0.6392 0.2902);fill-opacity:1;"/>
<path d="M47.8625 15.596V2.39597H50.7425V15.596H47.8625ZM43.9625 4.81597V2.39597H54.6425V4.81597H43.9625Z" fill="#16A34A" style="fill:#16A34A;fill:color(display-p3 0.0863 0.6392 0.2902);fill-opacity:1;"/>
<path d="M55.9381 15.596V5.09597H58.3181L58.3381 8.67597H58.7181C58.8248 7.78264 59.0048 7.05597 59.2581 6.49597C59.5248 5.93597 59.8915 5.52264 60.3581 5.25597C60.8248 4.98931 61.4048 4.85597 62.0981 4.85597C62.2181 4.85597 62.3448 4.86264 62.4781 4.87597C62.6248 4.87597 62.7915 4.89597 62.9781 4.93597L62.8581 7.99597C62.6581 7.90264 62.4381 7.83597 62.1981 7.79597C61.9581 7.75597 61.7448 7.73597 61.5581 7.73597C61.0381 7.73597 60.5915 7.85597 60.2181 8.09597C59.8448 8.33597 59.5381 8.68264 59.2981 9.13597C59.0715 9.57597 58.9181 10.116 58.8381 10.756V15.596H55.9381Z" fill="#16A34A" style="fill:#16A34A;fill:color(display-p3 0.0863 0.6392 0.2902);fill-opacity:1;"/>
<path d="M64.61 15.596V5.09597H67.49V15.596H64.61ZM66.07 3.51597C65.51 3.51597 65.0767 3.40264 64.77 3.17597C64.4767 2.93597 64.33 2.58931 64.33 2.13597C64.33 1.66931 64.4767 1.31597 64.77 1.07597C65.0767 0.835973 65.51 0.715973 66.07 0.715973C66.6433 0.715973 67.0767 0.835973 67.37 1.07597C67.6767 1.31597 67.83 1.66931 67.83 2.13597C67.83 2.57597 67.6767 2.91597 67.37 3.15597C67.0767 3.39597 66.6433 3.51597 66.07 3.51597Z" fill="#16A34A" style="fill:#16A34A;fill:color(display-p3 0.0863 0.6392 0.2902);fill-opacity:1;"/>
<path d="M50.2825 35.876C49.2025 35.876 48.2292 35.6293 47.3625 35.136C46.5092 34.6293 45.8292 33.8826 45.3225 32.896C44.8292 31.896 44.5825 30.6426 44.5825 29.136C44.5825 28.0293 44.7225 27.0493 45.0025 26.196C45.2958 25.3293 45.7158 24.596 46.2625 23.996C46.8225 23.3826 47.5092 22.916 48.3225 22.596C49.1358 22.276 50.0758 22.116 51.1425 22.116C51.9425 22.116 52.6692 22.2093 53.3225 22.396C53.9758 22.5826 54.5425 22.8493 55.0225 23.196C55.5025 23.5426 55.8758 23.9626 56.1425 24.456C56.4225 24.936 56.5758 25.4826 56.6025 26.096L53.8825 26.936C53.8558 26.376 53.7092 25.916 53.4425 25.556C53.1892 25.196 52.8492 24.9293 52.4225 24.756C52.0092 24.5693 51.5425 24.476 51.0225 24.476C50.3025 24.476 49.6825 24.6426 49.1625 24.976C48.6558 25.296 48.2692 25.796 48.0025 26.476C47.7358 27.1426 47.6025 27.9893 47.6025 29.016C47.6025 29.8026 47.6758 30.4826 47.8225 31.056C47.9825 31.616 48.2158 32.0826 48.5225 32.456C48.8292 32.8293 49.1958 33.1093 49.6225 33.296C50.0492 33.4693 50.5425 33.556 51.1025 33.556C51.6892 33.556 52.1958 33.4626 52.6225 33.276C53.0625 33.076 53.4092 32.776 53.6625 32.376C53.9292 31.9626 54.0758 31.4426 54.1025 30.816H51.6025V28.736H56.9425V35.596H54.9425L54.9825 32.216H54.6225C54.4092 33.016 54.1225 33.6893 53.7625 34.236C53.4025 34.7693 52.9358 35.176 52.3625 35.456C51.8025 35.736 51.1092 35.876 50.2825 35.876Z" fill="#16A34A" style="fill:#16A34A;fill:color(display-p3 0.0863 0.6392 0.2902);fill-opacity:1;"/>
<path d="M61.7966 35.876C61.2099 35.876 60.6899 35.7626 60.2366 35.536C59.7832 35.296 59.4299 34.956 59.1766 34.516C58.9232 34.076 58.7966 33.5293 58.7966 32.876C58.7966 32.3026 58.9032 31.8226 59.1166 31.436C59.3432 31.0493 59.6699 30.736 60.0966 30.496C60.5232 30.256 61.0499 30.056 61.6766 29.896C62.3032 29.736 63.0166 29.596 63.8166 29.476C64.2432 29.4093 64.5899 29.3493 64.8566 29.296C65.1366 29.2293 65.3432 29.1293 65.4766 28.996C65.6099 28.8493 65.6766 28.6426 65.6766 28.376C65.6766 28.0026 65.5432 27.6826 65.2766 27.416C65.0099 27.1493 64.5899 27.016 64.0166 27.016C63.6299 27.016 63.2699 27.0826 62.9366 27.216C62.6166 27.3493 62.3366 27.5493 62.0966 27.816C61.8699 28.0826 61.7032 28.4226 61.5966 28.836L59.0566 28.056C59.2166 27.5093 59.4432 27.036 59.7366 26.636C60.0432 26.236 60.4099 25.9026 60.8366 25.636C61.2632 25.356 61.7499 25.1493 62.2966 25.016C62.8432 24.8826 63.4366 24.816 64.0766 24.816C65.1032 24.816 65.9366 24.9826 66.5766 25.316C67.2299 25.636 67.7166 26.1426 68.0366 26.836C68.3566 27.516 68.5166 28.396 68.5166 29.476V31.276C68.5166 31.7426 68.5232 32.216 68.5366 32.696C68.5632 33.176 68.5899 33.6626 68.6166 34.156C68.6566 34.636 68.6966 35.116 68.7366 35.596H66.1966C66.1432 35.2626 66.0899 34.8826 66.0366 34.456C65.9966 34.016 65.9632 33.576 65.9366 33.136H65.5766C65.3899 33.6426 65.1232 34.1026 64.7766 34.516C64.4299 34.9293 64.0032 35.2626 63.4966 35.516C63.0032 35.756 62.4366 35.876 61.7966 35.876ZM63.0166 33.796C63.2699 33.796 63.5232 33.7493 63.7766 33.656C64.0432 33.5626 64.2966 33.436 64.5366 33.276C64.7899 33.1026 65.0166 32.8893 65.2166 32.636C65.4299 32.3826 65.6032 32.096 65.7366 31.776L65.6966 30.096L66.1566 30.196C65.9166 30.3693 65.6366 30.5093 65.3166 30.616C64.9966 30.7093 64.6632 30.7826 64.3166 30.836C63.9832 30.8893 63.6499 30.9493 63.3166 31.016C62.9832 31.0826 62.6832 31.1693 62.4166 31.276C62.1632 31.3826 61.9566 31.5293 61.7966 31.716C61.6499 31.8893 61.5766 32.136 61.5766 32.456C61.5766 32.8693 61.7099 33.196 61.9766 33.436C62.2432 33.676 62.5899 33.796 63.0166 33.796Z" fill="#16A34A" style="fill:#16A34A;fill:color(display-p3 0.0863 0.6392 0.2902);fill-opacity:1;"/>
<path d="M71.0358 35.596V25.096H73.4158L73.4358 28.676H73.8158C73.9224 27.7826 74.1024 27.056 74.3558 26.496C74.6224 25.936 74.9891 25.5226 75.4558 25.256C75.9224 24.9893 76.5024 24.856 77.1958 24.856C77.3158 24.856 77.4424 24.8626 77.5758 24.876C77.7224 24.876 77.8891 24.896 78.0758 24.936L77.9558 27.996C77.7558 27.9026 77.5358 27.836 77.2958 27.796C77.0558 27.756 76.8424 27.736 76.6558 27.736C76.1358 27.736 75.6891 27.856 75.3158 28.096C74.9424 28.336 74.6358 28.6826 74.3958 29.136C74.1691 29.576 74.0158 30.116 73.9358 30.756V35.596H71.0358Z" fill="#16A34A" style="fill:#16A34A;fill:color(display-p3 0.0863 0.6392 0.2902);fill-opacity:1;"/>
<path d="M83.4886 35.876C82.6086 35.876 81.8353 35.6493 81.1686 35.196C80.5153 34.7426 80.0086 34.1026 79.6486 33.276C79.2886 32.4493 79.1086 31.4693 79.1086 30.336C79.1086 29.2693 79.2686 28.3226 79.5886 27.496C79.9086 26.6693 80.3819 26.0226 81.0086 25.556C81.6353 25.0893 82.4153 24.856 83.3486 24.856C84.0286 24.856 84.6019 24.9826 85.0686 25.236C85.5353 25.4893 85.9153 25.8626 86.2086 26.356C86.5153 26.836 86.7553 27.416 86.9286 28.096H87.3886C87.2953 27.6693 87.2086 27.256 87.1286 26.856C87.0619 26.4426 87.0086 26.0493 86.9686 25.676C86.9286 25.3026 86.9086 24.976 86.9086 24.696V21.296H89.7886V35.596H87.3886V32.556H86.9886C86.8419 33.3026 86.6153 33.9226 86.3086 34.416C86.0019 34.9093 85.6086 35.276 85.1286 35.516C84.6619 35.756 84.1153 35.876 83.4886 35.876ZM84.4486 33.516C84.8886 33.516 85.2619 33.4226 85.5686 33.236C85.8753 33.0493 86.1286 32.8093 86.3286 32.516C86.5286 32.2093 86.6753 31.8826 86.7686 31.536C86.8619 31.176 86.9086 30.8426 86.9086 30.536V30.156C86.9086 29.9026 86.8686 29.6426 86.7886 29.376C86.7219 29.096 86.6219 28.8226 86.4886 28.556C86.3553 28.2893 86.1886 28.056 85.9886 27.856C85.7886 27.6426 85.5553 27.476 85.2886 27.356C85.0219 27.236 84.7286 27.176 84.4086 27.176C83.9286 27.176 83.5219 27.3093 83.1886 27.576C82.8553 27.8426 82.5953 28.216 82.4086 28.696C82.2219 29.1626 82.1286 29.7093 82.1286 30.336C82.1286 30.976 82.2219 31.536 82.4086 32.016C82.6086 32.496 82.8819 32.8693 83.2286 33.136C83.5753 33.3893 83.9819 33.516 84.4486 33.516Z" fill="#16A34A" style="fill:#16A34A;fill:color(display-p3 0.0863 0.6392 0.2902);fill-opacity:1;"/>
<path d="M97.322 35.876C96.4554 35.876 95.682 35.756 95.002 35.516C94.3354 35.276 93.7687 34.9293 93.302 34.476C92.8354 34.0226 92.4754 33.4626 92.222 32.796C91.982 32.1293 91.862 31.376 91.862 30.536C91.862 29.7093 91.9754 28.9493 92.202 28.256C92.442 27.5493 92.7887 26.9426 93.242 26.436C93.6954 25.916 94.2487 25.516 94.902 25.236C95.5554 24.956 96.2954 24.816 97.122 24.816C97.922 24.816 98.6354 24.9493 99.262 25.216C99.8887 25.4693 100.409 25.856 100.822 26.376C101.249 26.896 101.555 27.536 101.742 28.296C101.942 29.0426 102.015 29.9026 101.962 30.876L93.722 30.956V29.376L100.302 29.316L99.282 30.116C99.3754 29.4093 99.3287 28.8293 99.142 28.376C98.9554 27.9226 98.682 27.5893 98.322 27.376C97.9754 27.1626 97.5887 27.056 97.162 27.056C96.6554 27.056 96.2087 27.1893 95.822 27.456C95.4354 27.7226 95.1354 28.116 94.922 28.636C94.7087 29.1426 94.602 29.756 94.602 30.476C94.602 31.6093 94.8487 32.4426 95.342 32.976C95.8487 33.5093 96.5087 33.776 97.322 33.776C97.6954 33.776 98.0087 33.7293 98.262 33.636C98.5287 33.5293 98.742 33.396 98.902 33.236C99.0754 33.076 99.2087 32.896 99.302 32.696C99.4087 32.496 99.4954 32.296 99.562 32.096L102.062 32.636C101.942 33.1293 101.762 33.576 101.522 33.976C101.295 34.3626 100.989 34.7026 100.602 34.996C100.215 35.276 99.7487 35.4893 99.202 35.636C98.6687 35.796 98.042 35.876 97.322 35.876Z" fill="#16A34A" style="fill:#16A34A;fill:color(display-p3 0.0863 0.6392 0.2902);fill-opacity:1;"/>
<path d="M104.063 35.596V25.096H106.423L106.403 28.236H106.803C106.976 27.476 107.223 26.8426 107.543 26.336C107.863 25.8293 108.263 25.4493 108.743 25.196C109.236 24.9426 109.816 24.816 110.483 24.816C111.696 24.816 112.616 25.2426 113.243 26.096C113.883 26.9493 114.203 28.2893 114.203 30.116V35.596H111.303V30.436C111.303 29.316 111.136 28.5026 110.803 27.996C110.483 27.476 110.01 27.216 109.383 27.216C108.85 27.216 108.403 27.3826 108.043 27.716C107.683 28.0493 107.41 28.4893 107.223 29.036C107.05 29.5693 106.956 30.1693 106.943 30.836V35.596H104.063Z" fill="#16A34A" style="fill:#16A34A;fill:color(display-p3 0.0863 0.6392 0.2902);fill-opacity:1;"/>
<path d="M116.68 35.596V25.096H119.56V35.596H116.68ZM118.14 23.516C117.58 23.516 117.147 23.4026 116.84 23.176C116.547 22.936 116.4 22.5893 116.4 22.136C116.4 21.6693 116.547 21.316 116.84 21.076C117.147 20.836 117.58 20.716 118.14 20.716C118.714 20.716 119.147 20.836 119.44 21.076C119.747 21.316 119.9 21.6693 119.9 22.136C119.9 22.576 119.747 22.916 119.44 23.156C119.147 23.396 118.714 23.516 118.14 23.516Z" fill="#16A34A" style="fill:#16A34A;fill:color(display-p3 0.0863 0.6392 0.2902);fill-opacity:1;"/>
<path d="M122.227 35.596V25.096H124.587L124.567 28.236H124.967C125.141 27.476 125.387 26.8426 125.707 26.336C126.027 25.8293 126.427 25.4493 126.907 25.196C127.401 24.9426 127.981 24.816 128.647 24.816C129.861 24.816 130.781 25.2426 131.407 26.096C132.047 26.9493 132.367 28.2893 132.367 30.116V35.596H129.467V30.436C129.467 29.316 129.301 28.5026 128.967 27.996C128.647 27.476 128.174 27.216 127.547 27.216C127.014 27.216 126.567 27.3826 126.207 27.716C125.847 28.0493 125.574 28.4893 125.387 29.036C125.214 29.5693 125.121 30.1693 125.107 30.836V35.596H122.227Z" fill="#16A34A" style="fill:#16A34A;fill:color(display-p3 0.0863 0.6392 0.2902);fill-opacity:1;"/>
<path d="M139.004 39.256C137.858 39.256 136.911 39.1626 136.164 38.976C135.431 38.8026 134.891 38.5426 134.544 38.196C134.198 37.8493 134.024 37.416 134.024 36.896C134.024 36.2826 134.264 35.7826 134.744 35.396C135.238 35.0093 135.958 34.776 136.904 34.696V34.296C136.184 34.296 135.631 34.2226 135.244 34.076C134.858 33.916 134.664 33.6426 134.664 33.256C134.664 32.8826 134.851 32.5493 135.224 32.256C135.611 31.9626 136.244 31.7293 137.124 31.556V31.156C136.298 31.1026 135.651 30.836 135.184 30.356C134.718 29.876 134.484 29.256 134.484 28.496C134.484 27.8293 134.671 27.236 135.044 26.716C135.418 26.1826 135.971 25.7626 136.704 25.456C137.451 25.136 138.364 24.976 139.444 24.976H144.764V27.176L141.464 26.716V27.176C142.318 27.296 142.931 27.5093 143.304 27.816C143.691 28.1226 143.884 28.5493 143.884 29.096C143.884 29.6426 143.704 30.1226 143.344 30.536C142.984 30.9493 142.471 31.276 141.804 31.516C141.151 31.7426 140.364 31.856 139.444 31.856C139.271 31.856 139.084 31.8493 138.884 31.836C138.684 31.8226 138.351 31.7893 137.884 31.736C137.631 31.9226 137.431 32.0893 137.284 32.236C137.151 32.3693 137.084 32.496 137.084 32.616C137.084 32.7093 137.131 32.7893 137.224 32.856C137.331 32.9226 137.464 32.9693 137.624 32.996C137.798 33.0226 137.971 33.036 138.144 33.036H141.144C141.411 33.036 141.758 33.056 142.184 33.096C142.611 33.1226 143.038 33.2226 143.464 33.396C143.891 33.5693 144.251 33.8493 144.544 34.236C144.838 34.6093 144.984 35.1493 144.984 35.856C144.984 36.6293 144.764 37.2693 144.324 37.776C143.898 38.2826 143.238 38.656 142.344 38.896C141.464 39.136 140.351 39.256 139.004 39.256ZM139.324 36.956C140.138 36.956 140.771 36.9093 141.224 36.816C141.678 36.736 141.998 36.596 142.184 36.396C142.384 36.2093 142.484 35.9693 142.484 35.676C142.484 35.4093 142.424 35.2026 142.304 35.056C142.198 34.9093 142.051 34.8093 141.864 34.756C141.691 34.6893 141.511 34.6493 141.324 34.636C141.151 34.6093 140.998 34.596 140.864 34.596H138.344C137.784 34.6493 137.378 34.8026 137.124 35.056C136.884 35.296 136.764 35.576 136.764 35.896C136.764 36.1893 136.858 36.4093 137.044 36.556C137.231 36.7026 137.511 36.8026 137.884 36.856C138.271 36.9226 138.751 36.956 139.324 36.956ZM139.284 30.356C139.924 30.356 140.404 30.2026 140.724 29.896C141.044 29.576 141.204 29.1626 141.204 28.656C141.204 28.1226 141.038 27.6826 140.704 27.336C140.384 26.9893 139.911 26.816 139.284 26.816C138.671 26.816 138.191 26.9893 137.844 27.336C137.498 27.6693 137.324 28.1026 137.324 28.636C137.324 28.9693 137.398 29.2693 137.544 29.536C137.704 29.7893 137.931 29.9893 138.224 30.136C138.518 30.2826 138.871 30.356 139.284 30.356Z" fill="#16A34A" style="fill:#16A34A;fill:color(display-p3 0.0863 0.6392 0.2902);fill-opacity:1;"/>
</svg>
