<svg width="37" height="40" viewBox="0 0 37 40" fill="none" xmlns="http://www.w3.org/2000/svg">
<path d="M24.825 0.0200954C24.1688 0.10447 23.7938 0.220095 23.1219 0.551345C22.05 1.07947 20.9906 1.8951 20.2938 2.7326C19.9125 3.18572 19.2563 4.16385 19.0313 4.6076C18.875 4.91697 18.7969 5.3826 18.6719 6.7701C18.6063 7.47947 18.5781 7.85135 18.4344 9.84822C18.2969 11.742 18.2031 12.6826 18.1406 12.792C18.0906 12.8826 17.9813 12.0888 17.6688 9.3951C17.2219 5.53572 17.1063 4.87635 16.7 3.92322C16.0938 2.51072 14.6813 1.33572 12.9031 0.766971C12.0125 0.482595 11.2875 0.476345 10.3188 0.74197C9.475 0.976346 8.75625 1.36072 7.95625 2.01697C7.2375 2.60447 6.83438 3.03572 5.9 4.2076C5.02188 5.3076 4.525 5.9826 4.34063 6.32322C4.27813 6.44197 4.21563 6.5076 4.125 6.55447C3.96875 6.63572 3.90938 6.6826 3.1375 7.31385C2.27813 8.0201 1.90938 8.3451 1.55938 8.71385C0.834375 9.47635 0.453125 10.1013 0.20625 10.942C0.040625 11.5045 0 11.8138 0 12.5045C0.003125 13.3482 0.096875 13.9732 0.284375 14.3451C0.44375 14.667 1.01875 15.3482 1.4125 15.6857C2.025 16.2107 3.34063 16.9013 4.30625 17.2076C5.575 17.6076 6.79688 17.8045 9.52813 18.0513C11.7375 18.2513 12.5656 18.3513 12.7906 18.4451L12.8969 18.4888L12.7906 18.6013C12.6594 18.7357 12.5 18.7857 11.9813 18.8451C11.425 18.9107 10.675 18.9513 9.2625 18.9888C6.6625 19.0576 5.54688 19.1451 4.73125 19.3482C3.64063 19.6201 2.23438 20.5763 1.41875 21.5982C0.5625 22.6763 0.23125 23.6388 0.059375 25.5513C-0.003125 26.2263 -0.003125 26.867 0.059375 27.0701C0.14375 27.3576 0.6125 28.0576 1.2875 28.9045C1.77813 29.517 2.14375 29.9014 2.70938 30.392L3.24688 30.8607L3.525 31.4576C3.67813 31.7857 3.87188 32.1764 3.95625 32.3264C4.46563 33.217 5.325 34.3451 5.99063 34.9982C6.61875 35.6139 7.05625 35.867 7.8625 36.0795C8.95313 36.3701 10.6313 36.4951 11.3594 36.3389C12.1938 36.1639 13.2406 35.5545 14.0188 34.7951C14.3688 34.4545 14.7313 33.9326 15.0281 33.3357C15.3938 32.6014 15.6844 31.4014 16.0906 28.9107C16.3906 27.092 16.5781 26.0888 16.7 25.6982C16.8219 25.3076 17.0031 25.1263 17.3375 25.0638L17.4563 25.042L17.4375 25.3045C17.4125 25.6482 17.3063 27.9607 17.2594 29.1764C17.2188 30.2045 17.2375 31.8482 17.2938 32.3326C17.4313 33.5357 17.8625 34.9701 18.4656 36.2326C18.9063 37.1514 19.2781 37.6701 20.025 38.4107C20.6063 38.9889 20.9438 39.2514 21.4188 39.4889C21.7875 39.6732 22.0781 39.767 22.7063 39.8951C23.2531 40.0107 23.2688 40.0076 23.325 39.8045C23.3406 39.742 23.3844 39.5295 23.4219 39.3326C23.5094 38.8576 23.4906 38.6795 23.3188 38.3326C23.2 38.0889 23.1438 38.0201 22.6 37.4795C21.6469 36.5264 21.3906 36.192 21.0125 35.4107C20.1438 33.6201 19.8156 32.1545 19.6531 29.3482C19.5719 27.9763 19.5906 26.8107 19.7 26.317C19.7625 26.0232 19.7656 26.0201 19.8313 26.2076C20.1563 27.1513 20.3906 28.0013 20.6656 29.2545C21.0438 30.9514 21.1219 31.1545 21.7875 32.1045C22.6969 33.4045 23.3969 34.1732 24.3875 34.9576C25.2594 35.6482 25.8969 35.9639 26.7844 36.142C27.9531 36.3764 28.8156 36.267 29.7625 35.7639C30.2594 35.4982 30.5594 35.2826 30.7688 35.042C30.875 34.9201 31.0813 34.7201 31.2281 34.5951C31.8 34.1232 32.0438 33.7639 32.7375 32.3795C33.2344 31.392 33.5531 30.8764 34.1344 30.1295C34.5688 29.5732 34.9375 29.2295 35.3688 28.9732L35.7406 28.7545L35.8875 28.4732C35.9688 28.317 36.1125 28.0576 36.2125 27.8951C36.5031 27.4107 36.6375 26.9982 36.7781 26.1638C36.9094 25.3732 36.9625 24.7451 36.9625 23.9732C36.9594 23.0951 36.9344 22.9732 36.5938 22.2857C35.875 20.8388 34.9906 20.017 33.5438 19.4482C32.8313 19.1701 32.2 19.0076 31.4656 18.9138C30.5156 18.792 30.2563 18.7857 26.7781 18.7857C24.8469 18.7857 23.3531 18.7732 23.3281 18.7576C23.2938 18.7357 23.2938 18.7263 23.3313 18.7045C23.4313 18.6482 24.1438 18.5576 26.0906 18.3482C28.6625 18.0701 29.35 17.9545 30.1844 17.6451C31.5281 17.1513 32.5344 16.6107 33.5906 15.817C34.7875 14.917 35.3844 14.1076 35.7469 12.892C35.9906 12.0857 36.1688 10.867 36.1688 10.0513C36.1656 9.39822 36.0844 9.06072 35.7625 8.41072C35.2969 7.47322 34.8063 6.92635 33.9281 6.3576C33.6813 6.19822 33.1219 5.8326 32.6875 5.5451C31.5625 4.8076 31.2688 4.51385 30.4313 3.30135C29.9563 2.6076 29.6375 2.19822 29.2875 1.81072C28.4625 0.904471 27.4344 0.282595 26.4188 0.0794704C26.0719 0.00759538 25.1875 -0.0236546 24.825 0.0200954Z" fill="#16A34A" style="fill:#16A34A;fill:color(display-p3 0.0863 0.6392 0.2902);fill-opacity:1;"/>
</svg>
