<?xml version="1.0" standalone="no"?>
<!DOCTYPE svg PUBLIC "-//W3C//DTD SVG 20010904//EN"
 "http://www.w3.org/TR/2001/REC-SVG-20010904/DTD/svg10.dtd">
<svg version="1.0" xmlns="http://www.w3.org/2000/svg"
 width="1280.000000pt" height="1054.000000pt" viewBox="0 0 1280.000000 1054.000000"
 preserveAspectRatio="xMidYMid meet">
<metadata>
Created by potrace 1.15, written by Peter Selinger 2001-2017
</metadata>
<g transform="translate(0.000000,1054.000000) scale(0.100000,-0.100000)"
fill="#0079004d" stroke="none">
<path d="M677 10491 c-26 -63 -55 -189 -68 -288 l-12 -93 -65 61 c-99 93 -269
196 -289 175 -4 -3 1 -22 10 -41 26 -55 22 -167 -15 -350 -22 -112 -32 -191
-32 -263 -1 -79 -4 -99 -12 -87 -7 9 -15 36 -19 61 -4 27 -10 42 -17 38 -22
-14 -67 -133 -97 -258 -18 -71 -38 -141 -46 -157 -13 -24 -15 -619 -15 -4659
l0 -4630 6400 0 6400 0 0 590 c0 583 0 590 -20 590 -17 0 -20 -7 -21 -42 -1
-25 -4 -33 -6 -20 -7 38 -25 20 -48 -49 -12 -35 -24 -57 -27 -49 -2 8 -8 -14
-11 -48 -9 -88 -19 -97 -33 -32 l-12 55 -2 -40 c-3 -39 -3 -39 -12 15 -5 30
-11 81 -14 112 -3 32 -10 58 -15 58 -11 0 -10 8 -10 -145 -1 -89 -3 -110 -9
-80 -4 22 -6 72 -4 110 l4 70 -14 -55 c-8 -30 -18 -77 -22 -105 -11 -78 -22
-29 -24 105 l-2 115 -18 -60 c-10 -33 -27 -85 -38 -115 -19 -52 -20 -54 -27
-27 -4 15 -5 58 -3 96 3 56 1 66 -9 52 -7 -9 -13 -24 -13 -33 0 -30 -24 -108
-32 -108 -4 0 -8 16 -8 36 0 43 -22 42 -31 -2 l-5 -29 -9 35 -9 35 -7 -30 -7
-30 -2 35 c-5 83 -17 84 -22 2 -7 -126 -28 -130 -29 -7 -1 97 -2 98 -10 41
-10 -71 -19 -84 -19 -30 0 77 -17 72 -43 -12 l-24 -79 -8 125 -9 125 -9 -115
c-9 -112 -23 -129 -27 -35 -2 37 -3 35 -19 -30 l-17 -70 -13 63 c-7 37 -10 92
-7 130 6 66 6 66 -7 27 -11 -32 -15 -36 -19 -20 -3 11 -6 -16 -7 -60 -1 -44
-6 -98 -10 -120 l-8 -40 -8 29 c-4 16 -5 81 -2 145 3 66 2 105 -3 91 -6 -20
-8 -15 -9 27 -1 28 -6 55 -12 58 -17 11 -18 3 -8 -45 17 -81 21 -126 11 -112
-7 10 -11 -2 -14 -40 -3 -29 -12 -69 -21 -88 l-15 -35 -1 84 c-1 46 -4 82 -7
78 -3 -3 -14 -36 -23 -74 l-18 -68 -12 120 c-7 66 -13 127 -15 135 -1 8 -6
-33 -10 -92 -9 -133 -24 -192 -25 -103 -1 33 -6 67 -11 75 -8 12 -10 11 -10
-7 0 -12 -4 -24 -9 -27 -5 -3 -13 27 -17 67 l-8 72 -8 -110 c-5 -60 -12 -113
-17 -118 -4 -4 -11 31 -15 79 -11 146 -23 131 -32 -42 l-9 -159 -5 130 -5 130
-20 -105 -20 -105 -7 55 c-5 30 -6 84 -3 120 5 75 1 71 -19 -20 -8 -36 -14
-53 -15 -37 -1 40 -19 33 -26 -10 -18 -112 -24 -103 -22 34 1 78 0 137 -4 130
-3 -7 -14 -65 -24 -130 -20 -122 -28 -130 -40 -38 -9 70 -25 48 -25 -36 0 -35
-4 -63 -9 -63 -9 0 -16 26 -36 149 -8 46 -17 86 -20 89 -3 3 -6 -46 -6 -109
-1 -63 -4 -127 -8 -144 -7 -28 -8 -27 -15 18 -4 27 -5 83 -2 125 4 51 3 70 -3
57 -9 -18 -10 -17 -10 8 -1 15 -5 27 -9 27 -4 0 -6 -16 -4 -35 2 -19 -4 -69
-14 -112 -14 -64 -19 -74 -25 -53 -4 14 -8 43 -9 65 l-2 40 -13 -48 c-22 -80
-28 -68 -22 48 6 132 -6 119 -23 -25 -14 -111 -16 -111 -40 4 -12 59 -29 62
-30 6 0 -14 -5 -32 -10 -40 -7 -11 -10 4 -11 50 -1 65 -2 65 -10 20 -4 -25 -8
-70 -9 -100 0 -45 -3 -52 -11 -36 -6 10 -11 51 -11 90 0 47 -3 64 -8 51 -7
-16 -9 -14 -10 15 -2 34 -3 34 -11 -10 -4 -25 -12 -58 -18 -75 -9 -29 -9 -29
-12 -5 -1 14 -5 3 -9 -25 l-7 -50 -2 60 c-3 53 -4 56 -11 27 -12 -50 -18 -49
-25 5 -14 98 -40 171 -30 81 3 -24 0 -68 -8 -98 l-13 -55 -18 70 c-10 39 -24
90 -31 115 l-13 45 -1 -65 c-1 -36 -8 -94 -15 -130 l-13 -65 -6 45 c-4 25 -11
74 -16 110 l-9 65 -2 -70 c-1 -38 -6 -92 -10 -120 -7 -36 -8 -8 -6 100 2 116
1 138 -6 95 -5 -30 -14 -63 -19 -72 -5 -10 -9 -28 -10 -40 0 -22 -1 -22 -8 -3
-7 16 -11 8 -21 -38 -7 -31 -17 -57 -22 -57 -4 0 -8 35 -9 78 0 44 -4 69 -8
58 -5 -14 -11 -5 -21 38 -7 31 -19 64 -26 74 -11 15 -13 13 -18 -18 -3 -19
-12 -69 -20 -110 -13 -65 -14 -68 -10 -20 3 30 7 69 9 85 5 29 4 29 -9 -5 -13
-32 -15 -33 -16 -10 -2 47 -19 -2 -26 -76 -4 -38 -10 -78 -14 -89 -10 -27 -25
144 -16 188 4 22 3 28 -4 17 -5 -8 -12 -41 -16 -72 -7 -59 -24 -80 -24 -30 0
21 -2 24 -10 12 -5 -8 -10 -42 -10 -74 0 -109 -15 -46 -20 87 -6 143 -11 136
-31 -43 l-12 -105 -17 75 c-17 73 -25 77 -33 15 -2 -16 -5 6 -6 51 -1 68 3 88
24 130 30 60 33 85 8 61 -17 -15 -18 -8 -15 133 2 82 -1 170 -6 196 l-10 46
40 -6 41 -7 -8 58 c-23 177 -21 553 5 1078 15 294 8 627 -14 730 -9 39 -32
103 -52 143 l-37 72 12 158 c38 484 98 875 190 1237 47 184 94 308 129 341 23
21 243 177 278 197 7 4 9 -2 6 -18 -7 -37 22 -72 88 -105 33 -16 62 -30 65
-30 3 0 -6 17 -20 39 -35 52 -41 99 -20 145 l18 37 28 -34 c28 -34 103 -77
135 -77 11 0 7 9 -15 30 -67 67 -49 163 53 281 116 133 165 238 173 369 6 91
-17 169 -77 264 -31 49 -42 79 -52 142 -11 73 -12 76 -18 41 -4 -20 -9 -40
-12 -42 -3 -3 -26 30 -51 73 -41 71 -54 85 -137 141 -50 35 -96 71 -103 82
-17 27 -27 23 -27 -11 0 -35 1 -35 -82 -15 -105 25 -171 46 -223 72 l-50 24
31 -29 31 -29 -96 -7 c-125 -9 -297 -47 -377 -85 -132 -62 -239 -220 -279
-413 -8 -38 -15 -83 -15 -99 0 -31 -9 -35 -42 -18 -30 16 -32 5 -3 -30 42 -49
18 -84 -74 -112 -23 -7 -46 -20 -52 -30 -10 -20 3 -64 28 -91 14 -16 13 -20
-16 -48 -38 -38 -38 -46 -4 -82 22 -23 25 -31 16 -50 -9 -19 -7 -26 14 -44 25
-20 25 -21 9 -53 -38 -73 -18 -117 72 -157 28 -13 52 -28 52 -33 0 -15 108
-89 141 -96 16 -4 29 -10 29 -13 -1 -4 -24 -52 -53 -107 l-52 -100 -109 -71
c-59 -40 -135 -98 -167 -130 l-60 -59 -102 1 c-186 2 -326 32 -653 138 -109
36 -228 72 -264 81 -36 9 -143 40 -239 68 -142 42 -182 58 -220 88 -97 77
-166 93 -266 62 l-60 -19 -43 33 c-57 43 -114 60 -153 46 -27 -10 -38 -8 -98
23 -52 26 -75 33 -99 28 -22 -4 -32 -12 -32 -24 0 -20 -43 -35 -65 -22 -13 7
-13 11 1 30 11 16 25 22 55 22 24 0 38 4 34 10 -3 6 -21 10 -38 10 l-32 1 28
21 c16 11 32 31 37 44 7 18 19 24 57 29 26 3 64 10 83 15 30 8 27 9 -20 5
l-55 -4 80 25 c108 34 167 55 163 60 -6 5 -202 -59 -338 -111 l-35 -13 -17 85
c-44 223 -124 391 -301 631 -65 87 -83 96 -117 62 -11 -11 -27 -20 -35 -20
-27 0 -83 -60 -100 -108 -9 -26 -20 -86 -25 -133 -5 -47 -17 -103 -26 -125
-13 -30 -15 -58 -11 -125 l6 -86 -40 -39 c-55 -54 -79 -108 -79 -179 0 -85 28
-134 136 -242 103 -104 121 -110 194 -73 22 11 51 20 65 20 36 0 91 30 149 81
46 41 49 42 62 24 11 -14 14 -15 14 -4 0 8 14 28 30 44 26 25 40 30 88 31 72
3 86 -7 252 -175 69 -70 152 -144 185 -166 l60 -40 145 0 145 0 183 -93 c151
-76 183 -96 177 -110 -15 -38 -16 -107 -3 -124 7 -9 155 -73 328 -143 173 -69
318 -130 323 -134 4 -4 -7 -33 -24 -64 -62 -116 -113 -289 -138 -470 -6 -43
-15 -194 -21 -335 -5 -141 -12 -301 -16 -354 l-6 -97 51 -3 52 -3 59 -175 c87
-263 136 -380 370 -885 86 -187 168 -365 182 -396 25 -55 27 -57 74 -63 27 -4
83 -12 125 -18 l76 -11 62 -316 c34 -174 62 -333 61 -353 0 -58 -20 -45 -21
15 l-2 52 -8 -45 c-4 -25 -8 -70 -9 -100 -3 -77 -17 -29 -20 65 -1 49 -4 63
-10 45 l-7 -25 -5 30 -5 30 -2 -30 c-1 -16 -8 -48 -15 -70 -14 -40 -14 -40
-18 -11 -5 44 -28 46 -28 2 0 -58 -15 -41 -29 31 -17 87 -31 113 -29 53 4 -74
-1 -140 -10 -140 -7 0 -50 127 -66 195 -2 5 -6 -38 -9 -96 -9 -152 -18 -161
-38 -40 -10 57 -20 105 -22 107 -2 2 -1 -46 1 -106 3 -78 1 -110 -7 -110 -7 0
-11 43 -12 138 -2 140 -4 139 -25 -18 -7 -49 -9 -51 -14 -25 -6 27 -8 23 -20
-35 -11 -54 -15 -61 -21 -40 -4 14 -8 52 -8 85 -1 40 -4 55 -10 46 -7 -11 -14
2 -28 47 -26 89 -40 86 -48 -10 -10 -110 -24 -153 -19 -58 3 52 1 67 -5 50 -7
-20 -9 -13 -11 35 -2 76 -16 47 -26 -53 -4 -37 -10 -73 -14 -81 -10 -19 -24
150 -16 192 4 21 3 27 -3 18 -5 -8 -13 -41 -16 -73 -7 -55 -24 -72 -26 -25 -1
46 -18 -16 -19 -73 -3 -97 -20 -10 -21 109 -1 63 -5 98 -10 90 -5 -8 -9 -27
-9 -43 0 -16 -5 -70 -12 -120 l-11 -91 -15 65 c-21 96 -32 96 -32 0 0 -46 -3
-81 -6 -77 -13 13 -44 152 -34 155 5 2 10 11 10 20 0 14 -2 15 -9 3 -8 -12
-11 -8 -16 15 -4 16 -8 34 -10 39 -2 6 -3 -45 -2 -112 1 -79 -3 -127 -10 -134
-14 -14 -28 120 -19 178 3 21 3 32 0 26 -10 -24 -24 -13 -26 20 0 17 -4 -18
-8 -79 -8 -138 -21 -163 -35 -74 l-11 65 -8 -52 c-14 -94 -26 -69 -26 54 0 72
-4 113 -9 104 -7 -11 -10 -10 -14 5 -3 10 -3 -21 -1 -71 l3 -90 -9 75 c-23
188 -23 187 -61 76 -20 -58 -25 -65 -30 -45 -5 18 -7 12 -8 -21 -2 -62 -12
-120 -22 -120 -4 0 -11 26 -16 57 l-8 58 -6 -50 -6 -50 -1 57 c-1 31 -6 60
-12 63 -5 3 -10 30 -11 58 0 29 -4 61 -9 72 -5 12 -9 -36 -9 -128 -1 -108 -4
-146 -12 -141 -8 5 -10 40 -6 118 l6 111 -22 -107 c-11 -60 -24 -108 -27 -108
-12 0 -20 114 -13 184 3 36 3 66 0 66 -3 0 -17 -37 -32 -83 -14 -45 -32 -95
-39 -112 -13 -30 -13 -29 -21 36 -4 37 -4 82 -1 100 7 33 6 34 -7 9 -8 -14
-20 -53 -27 -88 -13 -63 -30 -68 -30 -10 0 37 -30 26 -31 -11 -1 -21 -4 -17
-15 19 -8 25 -12 59 -9 75 3 22 2 26 -5 15 -5 -8 -10 -24 -11 -35 -1 -17 -2
-16 -9 5 -6 19 -8 8 -9 -40 -1 -36 -8 -78 -16 -95 -12 -28 -14 -22 -16 80 l-2
110 -10 -75 -11 -75 -7 45 c-3 25 -7 38 -8 30 -2 -11 -5 -9 -10 5 -7 17 -10
14 -20 -21 -6 -22 -14 -54 -17 -72 -13 -63 -24 -30 -25 71 -1 135 -17 176 -19
47 -2 -118 -14 -159 -24 -83 -4 29 -4 57 0 64 4 7 3 9 -3 6 -6 -4 -14 -28 -18
-53 -3 -26 -10 -56 -14 -68 -13 -33 -32 99 -26 175 l5 64 -13 -40 c-13 -37
-14 -38 -19 -15 -3 14 -6 -13 -7 -60 -2 -47 -6 -105 -10 -130 l-8 -45 -8 39
c-4 22 -5 89 -2 150 4 67 2 103 -3 91 -7 -15 -9 -10 -9 25 -1 45 -14 80 -26
68 -4 -4 -2 -28 5 -55 20 -82 23 -113 11 -113 -6 0 -11 -15 -12 -32 0 -18 -9
-55 -19 -83 l-18 -50 -1 88 c-1 49 -5 86 -10 83 -5 -3 -15 -35 -22 -71 -7 -36
-16 -65 -20 -65 -4 0 -10 53 -14 119 -8 132 -25 186 -25 81 0 -102 -12 -203
-21 -188 -5 7 -9 29 -9 48 0 19 -3 46 -7 60 -7 24 -8 23 -13 -10 -6 -32 -7
-33 -13 -10 -3 14 -10 50 -15 80 l-9 55 -2 -80 c-3 -94 -15 -177 -24 -155 -3
8 -8 51 -12 94 -11 136 -22 117 -31 -55 l-9 -164 -5 130 c-5 138 -8 137 -34
-15 l-13 -75 -8 49 c-4 27 -5 85 -3 130 l6 81 -19 -74 c-20 -84 -29 -99 -29
-51 0 52 -13 26 -26 -53 l-12 -72 -3 65 c-2 36 -2 101 0 145 2 44 1 78 -2 75
-3 -3 -15 -63 -27 -135 -11 -71 -22 -130 -24 -132 -2 -2 -9 31 -16 74 l-14 78
-7 -45 c-4 -25 -8 -65 -8 -90 -1 -25 -5 -40 -9 -35 -15 17 -34 125 -27 158 5
24 4 28 -4 17 -9 -12 -11 -9 -12 15 0 17 -4 39 -9 50 -5 13 -8 -23 -9 -95 0
-63 -4 -128 -9 -145 -9 -30 -9 -29 -17 18 -4 26 -5 82 -2 125 4 48 3 68 -2 52
l-9 -25 -2 25 c-1 14 -5 34 -10 45 -6 13 -8 -5 -8 -55 1 -79 -19 -183 -34
-174 -4 3 -8 24 -9 47 0 23 -4 51 -9 62 -7 16 -9 12 -10 -20 -1 -22 -5 -49
-10 -60 -6 -13 -9 18 -11 90 l-2 110 -13 -75 c-7 -41 -13 -94 -13 -117 -1 -66
-16 -51 -30 32 -15 84 -33 94 -42 24 l-5 -44 -7 35 c-4 19 -8 51 -10 70 -1 19
-6 -12 -11 -70 -6 -81 -10 -100 -18 -85 -6 10 -11 50 -11 89 1 64 0 67 -9 36
-6 -19 -14 -46 -19 -60 -7 -20 -8 -19 -3 9 4 23 3 31 -5 27 -6 -4 -11 -19 -12
-34 l-1 -27 -8 25 c-7 24 -7 23 -12 -10 -4 -25 -5 -21 -3 13 3 59 -10 62 -20
5 -6 -38 -8 -40 -16 -21 -4 13 -11 46 -15 75 -8 64 -25 101 -23 48 3 -51 -12
-161 -21 -155 -4 2 -18 50 -31 105 -13 55 -27 100 -31 100 -5 0 -8 -31 -8 -70
0 -38 -5 -93 -12 -122 l-12 -53 -7 50 c-5 28 -12 79 -17 115 l-9 65 -2 -85
c-1 -47 -6 -103 -11 -125 -7 -28 -8 4 -6 110 2 83 0 137 -4 120 -4 -16 -8 -45
-9 -62 0 -18 -5 -33 -11 -33 -5 0 -10 -15 -10 -32 0 -24 -3 -29 -9 -19 -7 10
-12 2 -21 -30 -21 -77 -25 -76 -28 11 -2 53 -6 79 -12 71 -6 -10 -15 8 -30 58
-12 40 -24 70 -27 67 -4 -3 -15 -50 -25 -104 l-18 -97 5 70 c4 68 4 69 -10 35
l-13 -35 -2 35 -2 35 -9 -35 c-4 -19 -11 -70 -15 -114 -10 -111 -26 -73 -28
65 -1 112 -8 117 -21 14 -4 -33 -10 -53 -12 -45 -13 44 -15 46 -23 25 -5 -11
-9 -47 -10 -80 -2 -56 -3 -57 -11 -25 -4 19 -9 85 -10 145 -1 134 -13 115 -30
-50 l-12 -120 -13 50 c-28 115 -28 115 -34 15 l-5 -95 -17 57 c-10 31 -18 75
-18 98 0 25 -4 39 -10 35 -13 -8 -13 38 -1 51 6 5 13 34 16 64 6 51 5 54 -9
36 -9 -11 -16 -38 -17 -60 -1 -36 -2 -38 -10 -16 -5 15 -6 -17 -2 -81 6 -115
-4 -210 -18 -174 -4 11 -8 65 -9 120 -1 55 -5 91 -8 80 -4 -16 -8 -12 -18 20
l-14 40 6 -62 c5 -60 -14 -198 -25 -187 -3 3 -11 33 -17 67 l-10 62 -8 -58
c-12 -93 -26 -65 -27 56 -1 93 -3 103 -9 62 -5 -27 -9 -80 -9 -117 -1 -37 -5
-69 -9 -72 -5 -3 -17 29 -26 70 -10 41 -20 73 -22 71 -3 -2 -11 -24 -18 -48
l-14 -44 -2 45 c-1 25 -5 54 -10 65 -6 13 -9 -17 -10 -85 0 -86 -3 -101 -13
-85 -6 11 -12 52 -12 92 0 61 -2 68 -12 50 -12 -21 -12 -21 -14 8 -1 17 -7 -1
-13 -40 l-12 -70 -13 40 c-12 34 -15 37 -22 20 -4 -11 -8 -33 -9 -50 -1 -42
-15 -15 -28 55 -6 30 -16 66 -22 80 -10 23 -10 22 -5 -9 6 -39 -5 -161 -14
-161 -3 0 -6 26 -7 58 -1 31 -7 71 -14 87 l-13 30 -7 -30 -6 -30 -8 40 c-16
87 -26 70 -27 -45 -1 -164 -12 -178 -34 -42 -10 62 -20 112 -23 112 -3 0 -2
-30 1 -67 3 -38 2 -86 -3 -108 -5 -29 -8 -1 -10 100 l-3 140 -11 -71 c-6 -39
-17 -78 -24 -87 -7 -8 -9 -17 -3 -19 5 -2 6 -20 1 -43 l-8 -40 -2 40 -2 40
-12 -52 c-13 -58 -31 -86 -24 -36 2 18 1 33 -4 33 -4 0 -8 26 -9 58 -1 55 -16
129 -18 89 -2 -31 -19 -9 -26 33 -4 22 -10 42 -15 45 -10 6 -16 -22 -30 -140
-14 -113 -23 -125 -16 -20 4 52 3 71 -3 55 -7 -20 -9 -13 -10 35 -2 100 -21
33 -42 -149 -4 -30 -18 89 -19 159 l-2 80 -18 -70 c-10 -40 -19 -59 -20 -45
-1 23 -2 23 -10 5 -5 -11 -13 -45 -18 -75 l-9 -55 -4 80 c-1 44 -2 106 -2 138
2 81 -14 62 -22 -28 -4 -41 -11 -75 -15 -75 -5 0 -10 -10 -12 -22 -3 -21 -3
-21 -14 3 -7 13 -16 35 -22 49 -9 21 -10 16 -5 -25 2 -27 0 -68 -6 -90 -10
-37 -10 -34 -7 32 2 40 -1 74 -5 75 -5 2 -10 43 -13 91 -2 49 -7 91 -10 94 -3
3 -10 -16 -17 -42 -7 -27 -15 -42 -19 -35 -5 7 -9 3 -13 -11 -9 -33 -16 -20
-10 18 3 18 9 30 14 27 28 -17 -7 109 -38 138 l-25 23 6 -30 c4 -18 -2 -54
-13 -90 -14 -45 -19 -53 -20 -32 -1 40 -20 24 -27 -24 -11 -69 -19 -42 -13 46
5 85 5 86 51 133 50 51 92 126 102 182 7 40 -2 24 -30 -53 -9 -26 -35 -68 -57
-93 -35 -40 -42 -44 -47 -28 -7 17 -8 17 -14 -4 -8 -23 -41 -44 -88 -56 -27
-6 -28 -5 -28 39 0 25 4 45 9 45 10 0 36 88 28 97 -4 3 -12 -7 -18 -23 -7 -16
-18 -43 -25 -61 -8 -17 -14 -47 -14 -67 0 -26 -4 -36 -15 -36 -11 0 -14 7 -10
23 2 12 1 47 -3 77 l-8 55 -8 -60 c-11 -91 -15 -105 -31 -105 -10 0 -15 11
-16 33 l-1 32 -14 -34 c-22 -49 -27 -32 -15 48 21 132 6 131 -19 -1 -11 -61
-15 -68 -36 -68 l-24 0 -1 128 c-1 157 -10 192 -28 101 -23 -116 -77 -254 -66
-168 8 62 15 222 10 217 -3 -2 -11 -42 -20 -89 -8 -46 -21 -102 -30 -124 l-15
-40 6 47 c3 26 16 93 30 149 13 56 22 104 20 107 -3 2 -14 -28 -26 -67 -12
-39 -25 -71 -30 -71 -4 0 -13 -20 -20 -45 -7 -25 -15 -43 -18 -41 -2 3 1 19 7
37 19 55 5 43 -27 -23 -30 -61 -30 -62 -31 -28 0 33 6 69 23 130 l7 25 -14
-24 c-14 -23 -14 -22 -20 24 -4 26 -7 63 -7 81 0 18 -4 35 -9 38 -8 5 -47 -91
-76 -182 -4 -13 -9 -22 -11 -19 -3 2 7 40 20 83 16 50 20 72 11 60 -8 -11 -15
-25 -15 -32 0 -7 -5 -16 -11 -20 -9 -5 -10 1 -5 20 4 15 3 25 -1 23 -5 -3 -22
-48 -38 -99 -36 -115 -45 -128 -39 -52 12 140 12 140 62 180 26 20 58 49 70
63 30 33 82 112 82 124 0 5 -18 -18 -41 -52 -46 -68 -128 -139 -140 -120 -4 8
-9 5 -13 -8 -7 -21 -83 -69 -94 -59 -3 4 -1 32 6 63 17 83 7 77 -19 -10 -16
-57 -27 -77 -45 -86 -22 -10 -24 -8 -24 15 0 14 -4 23 -10 19 -6 -3 -10 -15
-10 -25 0 -16 -26 -40 -43 -40 -8 0 -13 66 -6 76 4 5 30 34 57 64 84 93 116
183 94 263 -10 34 -8 38 18 57 42 30 121 62 159 64 19 1 36 6 38 12 2 6 16 9
30 6 20 -4 32 1 47 21 44 53 233 91 425 85 91 -2 124 -1 105 5 -16 6 -92 10
-169 10 -134 0 -200 -9 -345 -49 -25 -7 -25 -7 -7 14 24 27 18 54 -16 70 -15
7 -27 19 -27 27 0 8 -9 19 -21 25 -16 9 -26 8 -45 -5 -14 -9 -31 -14 -39 -12
-7 3 -23 -1 -35 -10 -17 -12 -21 -22 -16 -44 3 -16 1 -29 -4 -29 -14 0 -22
-38 -11 -58 12 -23 -25 -74 -72 -98 -29 -16 -31 -15 -49 7 l-19 24 11 -23 c6
-13 10 -25 8 -26 -17 -13 -141 -76 -149 -76 -5 0 -24 -10 -40 -22 -28 -21 -42
-23 -137 -22 -59 0 -124 4 -144 8 l-37 7 33 43 c61 81 73 202 27 296 l-21 44
42 44 c24 24 71 56 105 73 60 28 62 29 91 12 31 -18 33 -18 102 22 19 11 21
15 8 15 -11 0 -18 8 -18 20 0 11 6 20 14 20 17 0 56 47 56 67 0 8 -12 26 -27
41 -17 17 -26 35 -24 50 6 47 -47 79 -91 56 -16 -8 -28 -11 -28 -6 0 5 -11 14
-25 20 -44 20 -85 -7 -85 -57 0 -10 -11 -23 -25 -29 -39 -18 -52 -55 -31 -87
10 -14 23 -28 30 -31 8 -3 11 -15 8 -29 -2 -14 3 -36 11 -49 15 -22 14 -24 -9
-34 -13 -7 -45 -31 -70 -54 l-46 -42 -30 34 -30 35 26 -37 26 -37 -58 -90
c-32 -50 -76 -131 -97 -181 -22 -49 -44 -90 -50 -90 -15 0 -218 64 -323 102
l-83 30 103 98 c57 53 130 129 162 168 47 56 81 84 155 129 105 62 194 143
216 197 16 37 20 143 7 161 -4 6 -20 21 -36 33 l-29 22 50 0 c56 0 73 12 73
52 0 31 -23 47 -67 49 -22 1 -15 6 32 21 64 22 244 31 315 15 29 -6 31 -5 11
3 -14 6 -57 15 -96 21 -68 10 -157 4 -233 -17 -21 -6 -22 -4 -16 20 8 31 -18
66 -49 66 -10 0 -34 -16 -52 -36 l-33 -36 5 39 c7 53 -10 83 -45 83 -40 0 -52
-17 -52 -74 l0 -51 -25 38 c-28 41 -62 49 -89 21 -27 -26 -19 -60 20 -92 l35
-29 -49 5 c-45 4 -52 2 -67 -22 -16 -24 -16 -28 -1 -51 13 -20 25 -25 57 -25
38 0 29 -7 -213 -168 -244 -163 -386 -250 -455 -279 l-33 -13 -1 32 c0 33 0
33 -11 8 -10 -24 -11 -24 -22 20 -12 44 -11 46 25 98 44 62 63 133 57 207 -4
50 -3 54 21 65 62 28 153 104 195 163 l44 62 119 39 c366 120 539 222 610 358
23 45 27 65 27 138 1 47 -5 102 -13 123 -20 59 -23 38 -5 -41 43 -190 -61
-321 -353 -446 -66 -28 -365 -136 -378 -136 -1 0 0 20 3 45 7 70 -17 195 -43
220 -16 14 -20 26 -15 40 18 48 -37 98 -82 74 -16 -9 -24 -7 -42 10 -12 12
-32 21 -43 21 -22 0 -63 -43 -63 -66 0 -7 -9 -16 -20 -19 -50 -16 -66 -69 -31
-102 13 -12 19 -30 18 -57 -1 -48 23 -70 72 -62 24 4 41 0 59 -14 13 -11 30
-20 37 -20 22 0 55 34 58 60 3 15 12 26 23 29 10 2 25 8 32 14 19 15 23 4 25
-70 2 -106 3 -104 -141 -158 -262 -97 -437 -197 -532 -303 l-52 -57 35 65
c114 212 102 421 -37 624 -49 73 -136 170 -136 153 0 -4 23 -32 51 -63 62 -69
114 -148 148 -228 22 -54 25 -75 26 -181 0 -111 -2 -126 -31 -195 -16 -41 -47
-102 -68 -135 -35 -54 -40 -58 -50 -41 -6 10 -21 31 -33 45 -18 21 -22 23 -23
8 0 -10 6 -33 14 -52 14 -32 14 -34 -7 -41 -12 -3 -73 -27 -135 -51 -62 -25
-114 -44 -116 -42 -1 2 -8 18 -16 34 l-14 30 -6 -45 -5 -45 -8 35 c-8 41 -56
106 -57 77 0 -10 11 -40 25 -67 l25 -48 -45 -26 c-24 -14 -46 -26 -50 -26 -3
0 -22 -12 -41 -26 l-34 -26 -9 23 c-5 13 -11 33 -14 44 -2 11 -5 -5 -6 -36 -1
-47 -5 -59 -24 -72 -22 -14 -22 -14 -34 37 l-12 51 1 -62 c1 -35 -2 -66 -5
-70 -7 -6 -9 21 -8 137 0 48 -2 58 -9 40 -4 -14 -8 -49 -9 -77 -1 -29 -5 -53
-11 -53 -5 0 -10 -15 -11 -32 -1 -31 -1 -32 -9 -8 -8 24 -8 24 -9 3 -1 -22
-33 -48 -44 -36 -4 3 -4 26 0 52 5 41 4 44 -9 27 -15 -19 -12 -25 -54 122 -10
36 -23 1 -34 -90 -15 -131 -21 -146 -16 -38 4 81 4 83 -9 45 l-13 -40 -1 64
c-1 35 -3 62 -6 59 -6 -5 -20 -85 -31 -173 l-8 -60 -7 50 c-4 28 -8 88 -9 135
l-3 85 -11 -60 c-12 -60 -12 -59 -19 95 -19 399 -83 697 -227 1057 -20 51 -35
95 -32 98 3 3 16 5 29 5 36 0 165 45 252 89 42 21 148 83 236 138 267 168 418
233 627 274 117 23 176 24 202 4 11 -8 27 -15 36 -15 9 0 24 -19 35 -42 27
-59 65 -67 169 -39 42 12 97 21 121 21 43 0 45 1 35 20 -17 32 -127 109 -166
116 -50 9 -97 -3 -139 -36 -45 -36 -54 -37 -97 -7 -29 19 -33 26 -28 52 18 84
48 102 137 80 105 -26 188 -9 244 52 49 52 99 179 99 251 0 33 -1 34 -17 20
-33 -28 -61 -38 -189 -63 -137 -28 -155 -34 -196 -73 -32 -30 -37 -72 -14
-127 13 -31 13 -35 0 -35 -23 0 -59 -44 -74 -90 -8 -23 -21 -45 -29 -49 -25
-12 -266 -34 -295 -27 -36 9 -33 33 9 96 41 61 44 72 11 41 l-24 -22 -5 38
c-3 28 1 43 14 59 22 23 25 65 7 97 -6 12 -35 49 -65 81 -29 33 -53 68 -53 78
0 37 -20 16 -36 -38 -22 -77 -15 -156 17 -190 13 -15 43 -35 67 -46 37 -17 42
-23 42 -53 0 -40 -23 -64 -167 -172 -111 -84 -305 -183 -403 -208 -36 -8 -135
-23 -220 -31 -85 -8 -181 -21 -212 -28 l-57 -13 -47 111 c-112 264 -186 503
-215 692 -9 64 -9 95 0 145 17 88 106 264 191 378 74 98 237 288 286 331 29
27 24 9 -9 -27 l-20 -23 45 0 c25 0 65 7 89 15 45 16 58 10 59 -25 0 -10 8 -6
25 13 28 29 74 62 79 56 6 -8 -82 -299 -104 -344 -12 -26 -38 -62 -58 -81 -19
-19 -32 -37 -28 -41 10 -10 150 15 229 41 40 13 73 23 73 23 1 -1 -3 -33 -8
-72 -8 -64 -3 -158 9 -178 3 -5 19 7 35 27 36 44 55 54 223 120 71 29 148 64
170 79 l39 27 14 -33 c91 -209 117 -318 94 -386 -10 -27 -9 -31 7 -31 26 0
106 60 189 143 160 157 237 329 204 449 l-10 37 50 -40 c60 -47 82 -51 67 -12
-15 39 -3 89 57 256 30 81 57 171 60 201 l6 53 56 -33 c51 -31 63 -34 134 -34
44 0 109 7 146 15 70 16 193 72 199 90 2 6 -16 16 -39 22 -28 8 -65 31 -106
69 -35 31 -61 58 -59 60 10 10 172 -61 203 -88 l34 -30 0 35 0 36 56 -34 c62
-37 144 -65 193 -65 l30 0 -24 48 c-14 26 -29 81 -35 122 -13 87 -37 179 -52
198 -6 7 -9 14 -7 16 8 8 172 -63 195 -85 l24 -22 0 39 c0 53 -24 137 -55 197
-27 54 -30 61 -15 52 5 -3 81 3 169 14 141 18 166 19 206 7 25 -8 45 -11 45
-7 0 36 -145 193 -224 244 -89 57 -218 49 -317 -20 -57 -39 -75 -41 -83 -11
-7 29 -4 32 80 57 69 20 121 59 136 103 4 10 11 8 29 -9 37 -33 109 -63 157
-63 124 0 212 93 355 376 87 171 129 231 181 259 42 23 45 30 14 39 -58 15
-296 -4 -374 -30 -11 -3 -5 5 14 21 41 34 41 45 -1 45 -38 0 -99 36 -202 120
-38 31 -89 70 -112 87 l-42 30 37 11 c20 6 79 32 130 57 65 31 106 45 134 45
l41 0 -24 26 c-33 35 -134 90 -191 104 l-48 12 53 101 c28 55 67 115 86 133
l34 34 -72 0 -72 0 31 45 c63 91 110 226 110 313 l0 44 -31 -26 c-34 -29 -97
-50 -219 -71 -124 -22 -122 -22 -148 35 -26 57 -83 129 -229 290 -107 118
-153 192 -153 247 0 18 -4 33 -8 33 -26 0 -91 -169 -113 -291 -7 -41 -19 -80
-26 -87 -7 -8 -18 -22 -23 -33 -15 -28 -75 -63 -213 -125 -67 -30 -124 -54
-126 -54 -2 0 17 16 42 35 65 49 135 85 168 85 44 0 35 14 -28 48 -83 44 -189
73 -296 81 l-92 7 37 17 c21 9 47 17 59 17 17 0 19 3 10 14 -9 11 0 19 44 41
73 37 164 120 214 196 47 71 52 94 19 83 -40 -14 -120 -6 -225 22 l-102 27 40
46 c77 87 149 232 184 366 15 58 20 115 10 115 -3 0 -23 -13 -46 -29 -53 -39
-139 -57 -329 -71 -146 -11 -271 -29 -314 -46 -16 -6 -18 -4 -11 12 39 91 76
225 86 309 12 99 7 175 -11 175 -6 0 -10 -4 -10 -9 0 -19 -60 -69 -114 -94
-56 -27 -355 -112 -363 -104 -2 3 3 19 11 36 22 42 20 87 -9 178 -32 101 -114
238 -189 316 l-60 62 -5 -51 c-7 -62 -31 -98 -145 -229 -48 -55 -97 -116 -108
-137 -20 -36 -38 -49 -38 -29 0 5 -47 74 -105 152 -115 158 -154 227 -162 288
-3 23 -9 41 -13 41 -4 0 -15 -18 -23 -39z m384 -783 c-3 -84 -4 -90 -15 -61
-16 46 -23 49 -52 22 -22 -20 -20 -16 9 28 20 29 38 66 42 83 12 56 20 23 16
-72z m93 52 c43 -18 45 -21 34 -40 -16 -26 -32 -26 -25 0 6 24 -1 25 -24 4
-17 -16 -19 -15 -29 10 -11 29 -13 46 -6 46 2 0 25 -9 50 -20z m83 -60 c-6
-16 -13 -27 -16 -25 -2 3 -10 -3 -17 -13 -12 -16 -13 -16 -14 4 0 20 33 64 50
64 4 0 3 -13 -3 -30z m-378 -77 c13 -10 -11 -13 -28 -3 -18 9 -21 8 -21 -12
-1 -18 -3 -20 -9 -8 -5 8 -11 27 -15 42 l-6 27 37 -21 c21 -12 40 -23 42 -25z
m-180 -99 c1 -17 -4 -20 -29 -16 l-29 4 21 42 c21 40 22 40 29 16 4 -14 7 -34
8 -46z m1098 -146 c13 -67 12 -74 -11 -65 -12 5 -14 16 -9 53 7 51 2 52 -44
11 l-23 -20 0 30 c0 25 5 32 33 41 17 5 34 10 37 11 3 1 11 -27 17 -61z
m-1361 32 c29 0 43 -4 39 -10 -4 -6 -15 -8 -26 -5 -14 5 -21 0 -27 -15 -7 -20
-9 -19 -37 11 -21 23 -25 30 -12 26 10 -4 39 -7 63 -7z m1484 -226 c0 -2 -7
-4 -15 -4 -8 0 -15 4 -15 10 0 5 7 7 15 4 8 -4 15 -8 15 -10z m168 -40 c19 -4
22 -11 22 -52 l0 -47 -66 -2 c-76 -1 -76 16 0 24 25 3 46 9 46 14 0 13 -43 38
-78 45 -32 6 -39 14 -25 27 6 7 41 3 101 -9z m-1970 -191 c-6 -8 -21 -13 -32
-11 -19 3 -21 11 -24 78 l-2 75 35 -64 c27 -50 32 -67 23 -78z m1993 57 l24
-20 -40 16 c-49 20 -54 24 -28 24 12 0 31 -9 44 -20z m29 -71 c-25 -11 -58
-32 -75 -47 l-30 -27 24 28 c26 29 23 33 -12 16 -22 -10 -22 -10 -2 7 31 25
77 43 110 43 28 0 28 -1 -15 -20z m-84 -270 c3 -6 -1 -18 -10 -27 -15 -15 -16
-14 -16 11 0 27 13 36 26 16z m81 -61 c-17 -34 -32 -58 -33 -53 -1 6 -4 31 -7
57 -4 42 -2 47 17 51 56 11 56 10 23 -55z m13 -110 c0 -4 -11 -8 -25 -8 -27 0
-33 18 -13 38 10 10 15 9 25 -5 7 -9 13 -20 13 -25z m317 -26 c-9 -9 -20 -29
-26 -42 l-10 -25 0 27 c-1 17 7 33 21 42 29 21 35 20 15 -2z m-247 -46 c0 -2
-7 -6 -15 -10 -8 -3 -15 -1 -15 4 0 6 7 10 15 10 8 0 15 -2 15 -4z m967 -162
c2 -6 -6 -14 -19 -17 -27 -7 -30 -5 -22 17 7 18 35 18 41 0z m60 -65 c-23 -15
-44 -26 -46 -23 -3 3 3 20 13 38 16 31 20 33 46 23 l28 -11 -41 -27z m103 -5
c6 -7 -49 -51 -94 -73 -22 -11 -42 -18 -45 -15 -10 10 33 76 58 90 23 12 67
11 81 -2z m186 -28 c0 0 -10 -16 -23 -35 -23 -33 -23 -33 -23 -8 l0 25 -39
-21 c-22 -12 -42 -20 -44 -17 -2 3 -7 20 -10 38 l-7 32 73 -6 c39 -4 72 -7 73
-8z m-157 -47 c1 -9 -8 -19 -19 -22 -17 -4 -19 -1 -14 21 11 53 15 59 24 37 5
-11 9 -27 9 -36z m91 -139 c0 -31 -6 -47 -27 -66 -14 -13 -29 -22 -32 -18 -3
3 2 11 12 18 9 7 17 20 17 28 0 18 20 78 26 78 2 0 4 -18 4 -40z m50 -68 c-1
-4 -17 -25 -36 -47 l-35 -40 20 35 c26 43 27 58 3 37 -29 -27 -35 -20 -11 13
18 23 26 27 41 19 10 -5 18 -13 18 -17z m-33 -122 c10 -27 9 -30 -9 -30 -14 0
-18 5 -14 15 3 8 1 15 -4 15 -6 0 -10 7 -10 15 0 26 25 16 37 -15z m-40 -396
c-1 -1 -29 4 -62 11 -47 10 -53 14 -26 14 31 1 33 3 26 29 -6 25 -4 25 28 -13
19 -22 34 -41 34 -41z m257 -99 l-37 -35 -36 27 -36 28 60 6 c33 3 66 6 73 7
7 1 -3 -14 -24 -33z m-594 -85 c0 -11 -4 -20 -10 -20 -5 0 -23 -21 -39 -46
-17 -28 -31 -42 -35 -35 -4 6 -18 11 -32 11 -15 0 -23 4 -19 11 4 6 20 8 38 4
27 -5 29 -4 14 6 -12 7 -36 8 -64 4 -53 -8 -51 7 3 25 28 9 38 9 51 -2 14 -11
20 -8 47 24 35 43 46 47 46 18z m520 -5 c0 -4 -31 -87 -35 -92 -1 -2 -26 -7
-55 -13 -60 -11 -82 -27 -100 -71 -10 -24 -17 -28 -34 -23 -25 8 -106 72 -106
84 0 4 16 11 35 14 19 4 76 24 127 45 134 55 168 67 168 56z m-60 -271 l0 -76
-38 38 -38 39 36 36 c19 20 36 37 38 38 1 0 2 -33 2 -75z m-141 32 c-2 -2 -20
-6 -39 -9 l-35 -6 35 18 c20 11 37 15 39 10 1 -6 1 -12 0 -13z m-93 -31 c-22
-17 -46 -20 -46 -6 0 8 21 16 55 19 6 1 1 -5 -9 -13z m-43 -17 c15 -7 27 -19
27 -26 0 -7 11 -24 25 -38 25 -25 28 -25 122 -18 l97 7 -15 -24 c-21 -33 -78
-59 -142 -66 l-54 -6 -26 54 c-14 30 -37 71 -51 92 -27 40 -25 44 17 25z m127
-310 c0 -18 3 -43 6 -55 5 -17 2 -23 -10 -23 -12 0 -16 10 -16 39 0 22 -3 46
-6 55 -4 11 -1 16 10 16 11 0 16 -9 16 -32z m-40 -62 c10 -13 10 -16 -1 -16
-8 0 -25 -3 -39 -5 -25 -6 -25 -6 -2 5 21 9 22 11 8 26 -9 8 -16 18 -16 20 0
8 36 -14 50 -30z m-86 -84 c-20 -48 -13 -84 21 -118 22 -22 23 -25 7 -30 -9
-3 -27 -10 -40 -15 -19 -7 -24 -5 -32 15 -5 13 -19 31 -32 40 -12 9 -19 16
-14 16 4 0 19 -9 33 -20 14 -11 28 -20 32 -20 3 0 4 23 2 51 -2 34 3 64 15 90
22 51 28 45 8 -9z m-64 -137 c11 -13 11 -29 -1 -91 l-14 -76 -25 39 c-16 24
-44 47 -75 63 l-50 25 39 3 c41 4 86 -26 86 -57 1 -14 3 -13 14 2 15 19 11 50
-11 82 -20 29 -17 48 5 36 10 -5 25 -17 32 -26z m-330 -142 c0 -7 -4 -13 -9
-13 -5 0 -13 6 -19 13 -8 10 -6 13 9 13 10 0 19 -6 19 -13z m-292 -58 c-6 -14
-15 -22 -20 -17 -12 12 1 42 18 42 11 0 11 -5 2 -25z m-2284 -54 c3 -4 18 -6
33 -3 l28 5 -20 -24 c-11 -13 -20 -25 -21 -26 0 -2 -10 11 -23 27 -12 17 -17
30 -12 30 5 0 12 -4 15 -9z m2291 -99 c-8 -9 -15 3 -20 39 l-6 34 16 -34 c8
-19 13 -36 10 -39z m-1986 1 c-10 -11 -14 -11 -20 -1 -14 21 -10 26 11 21 16
-4 18 -8 9 -20z m1816 -13 c-10 -11 -21 -18 -23 -15 -3 3 3 12 14 20 27 20 30
18 9 -5z m-67 -65 c2 -2 -1 -13 -8 -24 -13 -25 -48 -27 -76 -6 -18 14 -17 14
15 8 31 -6 33 -4 26 17 -6 20 -4 21 17 15 12 -4 24 -9 26 -10z m-1426 -75 c5
-70 13 -82 34 -51 20 28 91 73 110 69 9 -2 -13 -30 -60 -77 l-75 -75 -11 30
c-18 47 -28 164 -14 164 7 0 13 -23 16 -60z m-534 -62 c68 -114 82 -147 82
-185 0 -25 1 -25 19 -9 11 10 32 42 48 72 15 30 30 54 34 54 3 0 20 -16 39
-35 l34 -35 -17 -88 c-34 -177 -103 -254 -230 -256 l-62 -1 -34 68 c-52 103
-54 187 -10 374 19 78 35 143 35 143 1 0 29 -46 62 -102z m1895 -10 c-7 -29
-11 -68 -8 -87 l6 -34 -40 32 c-70 55 -95 104 -39 75 23 -12 33 -13 36 -5 4
11 51 71 56 71 2 0 -3 -24 -11 -52z m-857 34 c-5 -8 -66 -4 -66 4 0 2 16 4 36
4 19 0 33 -4 30 -8z m724 -61 c0 -11 -8 -21 -17 -23 -21 -5 -63 11 -63 24 0
12 24 10 38 -4 9 -9 13 -7 18 5 8 23 24 21 24 -2z m-275 -178 c-10 -41 -16
-48 -39 -51 -14 -2 -26 -2 -26 0 0 2 7 23 14 48 l15 45 1 -35 c1 -33 2 -34 11
-11 9 22 28 51 34 51 1 0 -3 -21 -10 -47z m1057 -2520 c-33 -46 -83 -90 -146
-127 -33 -20 -63 -36 -66 -36 -3 0 -11 12 -18 28 l-11 27 5 -33 c6 -32 4 -33
-58 -61 -52 -24 -118 -48 -317 -118 -31 -11 55 70 127 119 40 27 115 69 165
94 82 39 309 131 330 133 5 1 -1 -11 -11 -26z m-217 -297 c-7 -54 -42 -131
-73 -159 -19 -17 -20 -17 -27 10 -7 27 -8 25 -20 -22 -7 -27 -13 -41 -14 -30
-1 15 -6 11 -17 -15 -15 -32 -17 -33 -24 -15 -8 19 -9 19 -9 -2 -1 -19 -26
-43 -46 -43 -4 0 -5 22 -3 49 4 66 -8 55 -17 -14 -4 -34 -11 -55 -18 -52 -6 2
-20 -6 -31 -17 l-21 -21 -8 45 c-4 25 -5 68 -2 95 4 32 3 45 -3 35 -5 -8 -12
-51 -16 -95 -5 -58 -12 -84 -24 -93 -15 -12 -18 -9 -28 25 l-12 38 -7 -43 c-4
-23 -11 -44 -14 -47 -16 -9 -34 16 -35 49 -1 20 -4 36 -8 36 -13 0 -9 42 8 89
8 25 14 59 12 77 -1 18 0 35 3 38 3 3 79 32 170 65 90 32 189 70 219 83 l55
25 8 -21 c5 -12 6 -43 2 -70z m971 16 c28 3 34 1 34 -14 0 -31 -36 -91 -82
-135 -37 -36 -168 -126 -174 -120 -2 1 17 42 42 91 24 48 44 94 44 101 0 7 12
20 26 30 24 15 26 22 22 67 l-5 49 30 -36 c26 -32 35 -36 63 -33z m-304 11
c20 -25 65 -15 92 20 l26 32 0 -44 c0 -26 6 -52 15 -61 14 -15 13 -23 -5 -71
-12 -30 -42 -85 -68 -124 -46 -68 -50 -71 -193 -150 -172 -94 -204 -114 -285
-177 l-62 -47 -96 37 -96 37 -1 70 c-1 68 -1 69 -13 35 l-13 -35 -6 49 c-4 27
-6 50 -5 51 2 1 59 30 126 65 68 34 223 129 345 211 176 118 223 145 226 132
2 -10 8 -24 13 -30z m-1165 -145 c-14 -22 -25 -55 -43 -123 l-8 -30 -6 35 c-6
27 -8 19 -9 -37 -1 -65 -3 -73 -21 -73 -10 0 -24 8 -29 18 -6 9 -11 11 -11 5
0 -7 -7 -13 -15 -13 -10 0 -15 10 -15 29 0 20 13 43 46 77 25 27 62 70 82 96
36 48 56 59 29 16z m-78 -25 c-75 -87 -73 -85 -81 -66 -5 14 -7 13 -7 -8 -1
-25 -62 -95 -73 -83 -4 3 -9 -4 -13 -15 -10 -33 -22 -25 -31 22 l-8 42 -4 -47
c-2 -34 -7 -48 -18 -48 -8 0 -14 11 -15 28 l-1 27 -8 -25 -7 -25 -5 30 -5 30
-2 -34 c-1 -31 -3 -33 -31 -29 -16 3 -30 1 -30 -4 0 -4 -9 -8 -20 -8 -11 0
-20 6 -20 13 0 6 -3 21 -6 33 -4 17 5 26 55 53 54 28 61 30 62 14 1 -17 2 -17
6 0 6 21 40 40 163 88 118 46 131 48 99 12z m90 -45 c-1 -39 -2 -41 -8 -13 -4
17 -5 36 -3 43 8 23 12 12 11 -30z m-13 -165 c-3 -3 -13 -3 -22 1 -13 5 -15
15 -10 54 15 107 20 111 29 29 5 -43 6 -81 3 -84z m355 46 l-9 -44 -1 41 c-1
22 2 44 6 47 12 12 13 1 4 -44z m-55 -11 c-3 -13 -6 -31 -6 -40 0 -10 -7 -18
-15 -18 -18 0 -21 50 -3 68 19 19 31 14 24 -10z m-778 -15 c-2 -22 -9 -29 -30
-31 -35 -4 -38 20 -6 42 32 23 40 20 36 -11z m302 12 c0 -8 -7 -15 -16 -15
-14 0 -14 3 -4 15 7 8 14 15 16 15 2 0 4 -7 4 -15z m370 -56 c0 -11 -4 -17
-10 -14 -5 3 -10 13 -10 21 0 8 5 14 10 14 6 0 10 -9 10 -21z m882 -36 c-37
-44 -109 -116 -205 -203 l-37 -34 -55 19 c-30 10 -55 21 -55 24 0 11 142 107
230 157 47 26 99 56 115 66 48 29 50 21 7 -29z m-942 27 c0 -5 -4 -10 -10 -10
-5 0 -10 5 -10 10 0 6 5 10 10 10 6 0 10 -4 10 -10z m153 -35 c-7 -21 -13 -19
-13 6 0 11 4 18 10 14 5 -3 7 -12 3 -20z m1232 -180 c0 -86 -11 -116 -68 -188
-29 -38 -32 -39 -76 -32 -25 4 -52 10 -58 14 -20 11 77 217 145 310 l25 34 16
-29 c11 -20 16 -55 16 -109z m-972 26 c42 -18 46 -23 52 -65 6 -38 3 -49 -18
-78 -28 -37 -66 -110 -78 -148 -4 -14 -8 49 -8 143 -1 92 1 167 3 167 2 0 25
-9 49 -19z m107 -51 c0 -5 -4 -12 -10 -15 -5 -3 -10 -4 -10 -1 0 2 -3 12 -6
20 -5 12 -2 15 10 10 9 -3 16 -10 16 -14z m114 -35 l37 -16 -53 -45 c-39 -34
-54 -41 -56 -30 -6 26 -19 18 -35 -21 l-16 -38 0 64 c-1 54 3 69 21 88 24 26
36 25 102 -2z m1366 15 c0 -5 -13 -16 -30 -25 -33 -17 -36 -14 -18 15 13 20
48 28 48 10z m-871 -186 c6 -5 -31 -104 -39 -104 -5 0 -16 -3 -26 -7 -14 -5
-16 -3 -11 11 4 10 3 15 -3 11 -6 -3 -10 -12 -10 -19 0 -13 -81 -36 -126 -36
-21 0 -24 5 -24 34 0 49 -16 53 -30 9 -14 -44 -36 -72 -26 -33 l7 25 -16 -25
c-16 -25 -16 -24 -12 23 5 55 -1 53 -23 -6 -18 -48 -50 -64 -50 -24 0 13 7 46
15 72 23 77 10 64 -21 -22 -27 -72 -29 -75 -32 -44 -3 33 -4 34 -15 11 -17
-33 -37 -37 -37 -8 0 13 7 54 15 92 8 38 13 71 11 74 -2 2 -17 -38 -33 -90
-20 -65 -34 -94 -46 -96 -13 -3 -17 4 -17 27 0 39 -18 50 -22 14 -2 -20 -9
-29 -25 -31 -19 -3 -23 1 -23 23 0 14 5 36 12 48 10 20 10 21 -5 8 -15 -11
-17 -11 -17 1 0 17 37 68 48 66 4 -1 39 30 77 69 l71 70 214 -70 c118 -39 217
-72 219 -73z m-629 49 c0 -35 -5 -45 -30 -63 l-30 -21 0 46 c0 32 7 57 21 77
26 36 39 24 39 -39z m1347 -19 c13 -33 -16 -125 -52 -165 -19 -22 -35 -45 -35
-53 0 -7 -7 -19 -15 -26 -19 -16 -19 -7 1 31 8 17 14 40 12 52 -3 22 -4 22
-18 -3 -7 -14 -17 -43 -21 -65 -5 -29 -7 -13 -8 57 0 53 -3 102 -6 110 -2 8
19 24 58 44 75 38 76 38 84 18z m-1417 -33 c0 -28 -7 -49 -24 -68 -13 -15 -27
-25 -30 -22 -6 6 42 129 50 129 2 0 4 -18 4 -39z m798 -21 c8 -4 -5 -16 -38
-34 -28 -15 -53 -26 -56 -24 -2 3 3 21 11 42 14 32 18 36 43 30 15 -4 33 -10
40 -14z m82 -57 c8 -27 16 -54 18 -61 2 -7 -19 -23 -50 -37 l-53 -25 -7 23
c-6 21 -6 20 -7 -4 -1 -20 -9 -30 -31 -39 -17 -7 -32 -11 -35 -9 -2 3 -5 26
-6 51 -3 60 -14 53 -23 -14 -7 -47 -18 -67 -38 -68 -3 0 3 30 15 66 21 63 24
67 77 95 30 15 69 37 85 48 17 12 32 21 35 21 3 0 12 -21 20 -47z m203 33 c38
11 13 -8 -52 -41 l-70 -35 -6 30 c-9 39 -25 29 -25 -16 0 -19 -4 -34 -10 -34
-5 0 -10 15 -10 33 0 17 -3 41 -6 52 -5 20 -3 21 78 13 46 -4 91 -5 101 -2z
m172 -45 c20 -69 14 -165 -11 -175 -12 -5 -14 -1 -9 17 5 20 5 20 -9 -3 -15
-25 -15 -24 -17 25 -1 53 -4 48 -14 -26 -5 -37 -11 -49 -32 -58 -21 -10 -28
-9 -34 1 -7 10 -9 9 -9 -4 0 -10 -6 -18 -14 -18 -11 0 -11 12 0 77 15 85 12
109 -6 42 -31 -120 -36 -134 -53 -137 -13 -3 -17 4 -17 26 0 17 -3 38 -6 46
-6 15 -8 15 -20 -1 -7 -10 -14 -27 -14 -38 0 -11 -5 -27 -10 -35 -7 -10 -9 9
-5 60 l4 75 -15 -65 c-20 -87 -22 -90 -34 -90 -13 0 -13 45 0 89 11 41 5 54
-10 20 -10 -22 -10 -21 -5 9 3 20 1 31 -5 27 -6 -3 -10 -16 -10 -29 0 -12 -3
-26 -7 -30 -5 -4 -13 -22 -20 -39 -11 -30 -12 -31 -13 -7 -1 14 -5 34 -9 45
-7 17 -10 14 -21 -20 -21 -66 -30 -64 -30 8 l0 67 50 25 c28 14 50 22 50 19 0
-4 7 -1 15 6 8 7 15 9 15 5 0 -5 8 -1 18 7 26 23 253 138 272 138 12 0 22 -17
35 -59z m-1202 1 c-6 -45 -25 -53 -31 -13 -3 19 25 67 34 58 1 -1 0 -22 -3
-45z m-63 -22 c0 -5 -4 -10 -10 -10 -5 0 -10 5 -10 10 0 6 5 10 10 10 6 0 10
-4 10 -10z m48 -60 c3 -21 2 -22 -12 -11 -19 16 -21 44 -3 39 6 -3 14 -15 15
-28z m606 3 c-10 -40 -14 -41 -14 -5 0 18 5 32 10 32 6 0 8 -11 4 -27z m-57
-23 c-6 -22 -13 -37 -16 -34 -3 3 -11 -12 -18 -33 -7 -21 -11 -28 -9 -15 6 30
-1 28 -19 -8 -19 -36 -50 -42 -42 -7 10 42 17 92 11 80 -9 -21 -24 -15 -24 11
0 21 6 25 58 34 31 5 60 10 63 11 3 0 1 -17 -4 -39z m28 -29 c-4 -34 -12 -61
-17 -61 -10 0 -8 22 8 103 10 50 16 20 9 -42z m-501 32 c-9 -36 -13 -40 -24
-23 -17 26 -11 50 10 50 17 0 19 -4 14 -27z m55 0 c0 -10 -4 -27 -9 -38 -7
-16 -9 -13 -9 18 -1 20 4 37 9 37 6 0 10 -8 9 -17z m57 -35 c-6 -23 -12 -34
-14 -24 -5 23 6 66 17 66 4 0 3 -19 -3 -42z m104 30 c0 -23 -21 -90 -26 -85
-9 8 7 97 17 97 5 0 9 -6 9 -12z m59 -44 c-7 -27 -14 -43 -16 -37 -5 14 16 97
23 90 3 -2 -1 -26 -7 -53z m391 -9 c0 -11 -42 -136 -45 -133 -1 2 -6 29 -9 61
-7 54 -6 58 16 66 27 11 38 13 38 6z m-116 -62 c-4 -16 -13 -39 -20 -53 -13
-24 -13 -23 -14 22 0 36 4 48 18 51 9 3 18 5 20 6 1 0 -1 -11 -4 -26z m183
-15 c-3 -8 -6 -5 -6 6 -1 11 2 17 5 13 3 -3 4 -12 1 -19z m51 -9 c-6 -16 -12
-28 -15 -26 -7 7 8 57 18 57 4 0 3 -14 -3 -31z m354 -9 c-3 -28 -11 -44 -25
-51 -19 -11 -20 -9 -13 32 6 38 19 58 36 59 3 0 4 -18 2 -40z m234 -16 l-15
-39 0 36 c-1 19 5 41 11 47 19 19 20 1 4 -44z m-887 39 c0 -5 -4 -17 -9 -28
-8 -18 -9 -17 -9 8 -1 15 4 27 9 27 6 0 10 -3 9 -7z m853 -36 c-5 -7 -13 -31
-17 -54 -11 -67 -26 -63 -19 4 4 35 13 63 23 71 18 15 29 -1 13 -21z m-615
-19 c-3 -7 -5 -2 -5 12 0 14 2 19 5 13 2 -7 2 -19 0 -25z m338 15 c-4 -10 -10
-26 -12 -36 -7 -24 -27 -16 -31 13 -4 23 12 40 37 40 9 0 11 -6 6 -17z m-71
-27 c-3 -9 -10 -16 -15 -16 -6 0 -5 9 1 21 13 24 24 20 14 -5z m276 7 c-1 -10
-7 -31 -15 -48 l-13 -30 -1 41 c-1 22 2 44 6 47 12 13 23 7 23 -10z m-323 -9
c-3 -3 -12 -4 -19 -1 -8 3 -5 6 6 6 11 1 17 -2 13 -5z m255 -29 c-5 -28 -17
-33 -26 -9 -7 19 1 34 18 34 9 0 12 -9 8 -25z m-72 1 c0 -3 -4 -8 -10 -11 -5
-3 -10 -1 -10 4 0 6 5 11 10 11 6 0 10 -2 10 -4z m-24 -63 c-10 -10 -19 5 -10
18 6 11 8 11 12 0 2 -7 1 -15 -2 -18z m1018 -175 c-10 -40 -21 -77 -26 -82 -4
-6 -8 24 -8 65 0 69 2 77 23 86 12 6 24 9 26 7 2 -2 -5 -36 -15 -76z m-47 30
c-3 -13 -9 -45 -13 -73 -9 -62 -22 -37 -23 43 -1 46 1 52 20 52 17 0 20 -5 16
-22z m179 -59 c-6 -21 -15 -41 -19 -45 -4 -4 -7 -21 -8 -38 0 -17 -5 -40 -10
-51 -10 -22 -5 126 7 184 l7 34 17 -23 c14 -19 15 -29 6 -61z m-402 44 c-10
-47 -14 -54 -24 -48 -5 3 -10 22 -10 41 0 27 4 34 20 34 17 0 19 -5 14 -27z
m155 0 c0 -16 -6 -46 -14 -68 l-13 -40 -1 52 c-1 28 2 58 5 67 10 26 24 18 23
-11z m-109 13 c0 -3 -4 -8 -10 -11 -5 -3 -10 -1 -10 4 0 6 5 11 10 11 6 0 10
-2 10 -4z m43 -16 c-3 -11 -10 -23 -16 -27 -7 -4 -8 0 -4 11 4 10 7 22 7 27 0
5 4 9 9 9 5 0 7 -9 4 -20z m338 -156 c-5 -21 -9 -30 -10 -19 -1 24 10 67 15
62 3 -2 0 -22 -5 -43z m3179 -44 c0 -5 -4 -10 -10 -10 -5 0 -10 5 -10 10 0 6
5 10 10 10 6 0 10 -4 10 -10z m97 -37 c-3 -10 -5 -2 -5 17 0 19 2 27 5 18 2
-10 2 -26 0 -35z m50 -55 c-2 -18 -4 -6 -4 27 0 33 2 48 4 33 2 -15 2 -42 0
-60z m2620 50 c-3 -8 -6 -5 -6 6 -1 11 2 17 5 13 3 -3 4 -12 1 -19z m-103 -32
c-3 -15 -8 -25 -11 -23 -2 3 -1 17 3 31 3 15 8 25 11 23 2 -3 1 -17 -3 -31z
m-5017 -23 c-3 -10 -5 -2 -5 17 0 19 2 27 5 18 2 -10 2 -26 0 -35z m810 5 c-3
-7 -5 -2 -5 12 0 14 2 19 5 13 2 -7 2 -19 0 -25z m3100 -20 c-3 -7 -5 -2 -5
12 0 14 2 19 5 13 2 -7 2 -19 0 -25z m-50 -65 c-2 -16 -4 -3 -4 27 0 30 2 43
4 28 2 -16 2 -40 0 -55z"/>
<path d="M2317 2631 c-15 -18 -30 -43 -33 -56 -12 -48 2 -44 35 9 39 64 38 94
-2 47z"/>
<path d="M6128 8533 c-29 -7 -27 -41 8 -163 16 -56 24 -110 24 -161 0 -43 5
-81 10 -84 6 -4 -9 -24 -34 -47 -58 -50 -75 -100 -57 -166 28 -106 120 -212
184 -212 17 0 52 14 80 31 37 22 48 26 43 14 -4 -13 -2 -16 9 -11 19 7 19 8
-10 -57 -24 -52 -25 -58 -12 -90 43 -101 243 -173 333 -118 17 10 42 36 54 57
13 22 25 40 26 42 1 2 11 -1 22 -7 14 -8 37 -7 77 1 48 9 76 8 166 -7 59 -10
119 -15 133 -11 22 5 26 12 26 44 0 21 -12 61 -26 90 -47 95 -168 183 -390
281 -58 26 -105 52 -104 57 0 5 31 8 68 7 77 -2 72 4 -13 15 -46 5 -62 12 -70
28 -9 18 -13 19 -23 8 -7 -8 -16 -14 -20 -14 -4 0 -37 51 -74 114 -122 207
-230 320 -335 352 -47 14 -64 15 -95 7z"/>
<path d="M6668 8190 c2 -47 6 -87 8 -89 7 -8 2 124 -6 149 -4 14 -5 -13 -2
-60z"/>
<path d="M6850 8010 c34 -11 60 -11 35 0 -11 5 -29 8 -40 8 -16 0 -15 -2 5 -8z"/>
<path d="M4216 6106 c-28 -13 -28 -13 25 -19 101 -12 136 -62 103 -150 -13
-37 -19 -77 -19 -142 0 -79 3 -95 27 -135 29 -50 90 -98 170 -135 59 -27 159
-55 196 -55 l23 0 -26 34 c-27 35 -39 84 -69 283 -8 56 -25 123 -37 148 -37
78 -105 104 -186 70 -19 -8 -37 -15 -38 -15 -2 0 -9 16 -15 35 -9 26 -24 42
-64 65 -30 16 -55 30 -57 29 -2 0 -17 -6 -33 -13z"/>
<path d="M7181 5394 c0 -11 3 -14 6 -6 3 7 2 16 -1 19 -3 4 -6 -2 -5 -13z"/>
<path d="M3559 5298 c-1 -7 -1 -19 0 -27 2 -10 -2 -10 -19 2 -40 28 -66 1 -33
-35 15 -17 15 -18 -10 -18 -14 0 -28 -4 -31 -9 -12 -18 7 -41 32 -41 24 0 25
-1 7 -14 -23 -16 -14 -46 15 -46 11 0 20 5 20 10 0 6 5 10 10 10 6 0 10 -6 9
-12 -3 -28 2 -38 20 -38 20 0 35 25 25 41 -8 13 10 11 23 -2 15 -15 43 -4 43
16 0 9 -8 19 -17 23 -14 5 -12 8 12 12 21 4 30 11 30 25 0 14 -9 22 -30 26
-24 5 -27 7 -12 13 21 10 23 42 2 50 -8 3 -21 -1 -29 -9 -20 -20 -23 -19 -22
8 1 16 -5 23 -21 25 -14 2 -23 -2 -24 -10z"/>
<path d="M5530 5076 c-121 -34 -173 -76 -205 -165 -8 -24 -15 -69 -15 -101 0
-48 -4 -60 -26 -81 -21 -20 -35 -24 -85 -23 -54 1 -57 0 -38 -13 30 -22 111 0
143 38 20 24 26 26 36 14 22 -26 79 -39 121 -26 51 15 94 68 163 201 37 72 69
120 94 140 l37 30 -90 -1 c-50 0 -110 -6 -135 -13z"/>
<path d="M3473 4942 c-9 -16 -26 -33 -37 -38 -26 -11 -32 -46 -12 -63 10 -8
13 -22 10 -40 -7 -33 16 -56 48 -48 13 4 29 0 39 -9 23 -21 51 -14 65 15 7 13
22 28 35 35 30 14 36 42 15 65 -10 10 -14 25 -10 35 9 24 -25 58 -51 52 -11
-3 -29 2 -39 10 -29 21 -45 17 -63 -14z"/>
<path d="M3860 4861 c-5 -11 -10 -25 -10 -32 0 -7 -10 -23 -21 -35 -21 -22
-21 -25 -5 -49 9 -14 21 -25 26 -25 6 0 10 -11 10 -25 0 -31 32 -50 59 -35 11
5 32 7 48 5 35 -7 54 5 56 36 0 13 9 30 19 37 24 18 23 59 -2 72 -11 6 -20 19
-20 28 0 36 -51 57 -77 31 -8 -8 -13 -8 -17 0 -12 18 -54 13 -66 -8z"/>
<path d="M3675 4686 c-37 -21 -40 -26 -40 -66 0 -38 4 -46 30 -62 50 -30 57
-32 69 -16 6 9 20 17 31 19 17 4 20 12 20 54 0 41 -4 51 -21 60 -12 6 -28 16
-35 22 -11 8 -24 6 -54 -11z"/>
<path d="M4475 4634 c14 -34 18 -151 5 -189 -26 -79 -180 -195 -259 -195 -30
0 -43 -5 -51 -20 -6 -11 -15 -18 -19 -15 -5 2 -19 -4 -33 -14 -13 -11 -102
-46 -198 -79 -96 -33 -193 -67 -215 -75 -22 -9 -64 -17 -93 -20 l-53 -4 35 29
c43 35 49 80 15 98 -31 17 -64 4 -88 -32 l-21 -33 0 51 c0 57 -12 74 -52 74
-35 0 -52 -30 -45 -83 l5 -40 -29 37 c-34 40 -66 47 -92 18 -25 -28 -21 -51
17 -86 l34 -31 -44 4 c-52 4 -74 -11 -74 -49 0 -39 22 -53 75 -48 l45 3 -35
-32 c-39 -36 -44 -62 -16 -87 19 -17 19 -18 -9 -59 -15 -23 -33 -59 -41 -79
-11 -33 -16 -37 -38 -31 -14 3 -34 14 -44 24 -22 24 -30 24 -51 0 -10 -11 -28
-21 -40 -23 -18 -3 -21 -10 -23 -61 -1 -47 2 -59 18 -67 10 -6 19 -7 19 -3 0
4 9 -3 20 -15 25 -26 33 -27 56 -5 37 37 51 27 58 -42 6 -61 43 -201 51 -193
2 2 -5 34 -15 72 -11 37 -22 101 -26 140 -12 131 39 261 135 343 l47 41 0 -46
c-1 -39 3 -48 24 -59 39 -20 64 3 68 62 l3 48 29 -31 c45 -50 100 -39 100 19
0 19 -10 35 -32 53 l-33 26 47 0 c39 0 50 4 63 24 8 13 13 30 10 38 -7 18 27
33 257 111 160 55 190 57 167 14 -16 -28 4 -67 33 -67 13 0 29 -9 36 -20 7
-11 21 -20 32 -20 11 0 25 9 32 20 7 11 22 20 34 20 32 0 41 19 42 88 0 51 -3
64 -19 73 -11 5 -24 7 -29 4 -6 -3 -10 -2 -10 3 0 5 14 15 31 23 18 7 55 30
83 51 106 79 147 172 126 284 -7 35 -17 67 -23 71 -7 4 -8 0 -2 -13z"/>
<path d="M3894 4554 c-19 -18 -24 -32 -20 -48 4 -18 0 -28 -19 -40 -38 -25
-35 -81 5 -104 20 -12 30 -26 32 -47 2 -20 12 -34 31 -45 25 -14 30 -13 59 3
22 12 34 15 42 7 5 -5 22 -10 38 -10 34 0 63 39 54 74 -4 18 -1 25 14 29 11 3
25 17 31 31 15 32 -1 75 -31 83 -12 3 -20 14 -20 27 0 55 -60 85 -105 52 -17
-12 -22 -12 -39 0 -29 20 -43 18 -72 -12z"/>
<path d="M4264 4535 c-4 -8 -14 -15 -24 -15 -28 0 -38 -21 -36 -80 1 -50 3
-55 25 -58 13 -2 32 -13 41 -24 14 -17 20 -19 38 -9 12 6 22 16 22 21 0 6 9
10 19 10 27 0 36 17 37 70 1 51 -10 70 -38 70 -10 0 -21 7 -24 15 -4 8 -17 15
-30 15 -14 0 -27 -7 -30 -15z"/>
<path d="M4840 4303 c-8 -3 -67 -26 -130 -51 -72 -29 -131 -47 -157 -47 -24 0
-43 -3 -43 -7 0 -15 98 -89 157 -118 149 -72 229 -63 336 41 77 74 106 78 169
22 26 -24 39 -31 35 -20 -4 10 -7 22 -7 27 0 16 -101 51 -130 45 -25 -6 -29
-3 -40 29 -18 56 -62 86 -123 85 -29 0 -59 -3 -67 -6z"/>
<path d="M6746 4231 c-13 -15 -26 -18 -56 -14 -33 5 -40 2 -56 -22 -13 -20
-15 -33 -8 -53 8 -22 6 -30 -9 -43 -38 -30 -10 -109 38 -109 7 0 18 -14 24
-30 16 -48 78 -60 103 -20 9 13 20 16 48 13 50 -7 74 17 67 68 -4 28 0 40 14
53 38 32 9 106 -41 106 -13 0 -20 7 -20 18 0 46 -72 69 -104 33z"/>
<path d="M6377 4112 c-10 -10 -17 -23 -17 -28 0 -5 -10 -14 -22 -19 -27 -12
-35 -49 -16 -72 7 -9 12 -25 10 -35 -5 -28 18 -50 48 -46 15 1 35 -3 43 -11
22 -18 49 -10 63 18 7 13 22 28 35 35 30 15 36 42 14 66 -10 11 -15 26 -12 33
3 8 -1 25 -10 37 -12 17 -22 21 -43 16 -18 -3 -33 0 -40 9 -17 20 -33 19 -53
-3z"/>
<path d="M7427 4050 c-14 -11 -34 -20 -45 -20 -28 0 -45 -25 -38 -55 4 -14 2
-34 -4 -45 -15 -28 4 -60 35 -60 16 0 25 -6 25 -15 0 -9 11 -21 25 -27 21 -10
29 -8 48 10 13 12 33 22 45 22 28 0 46 33 32 59 -7 13 -7 22 0 26 14 9 13 48
-2 63 -7 7 -20 12 -29 12 -9 0 -19 6 -22 14 -12 30 -43 37 -70 16z"/>
<path d="M3924 3984 c-19 -18 -24 -31 -20 -50 5 -17 2 -24 -7 -24 -21 0 -47
-34 -47 -62 0 -24 27 -58 47 -58 5 0 8 -13 5 -29 -3 -20 2 -35 17 -50 24 -24
48 -27 77 -7 17 12 22 12 39 0 41 -30 94 -4 98 49 1 14 14 35 30 47 37 30 37
74 -1 98 -17 11 -26 24 -24 35 5 24 -22 63 -47 70 -11 2 -32 -1 -46 -9 -23
-12 -30 -12 -48 1 -30 21 -44 19 -73 -11z"/>
<path d="M1990 3967 c-14 -7 -34 -26 -45 -43 -16 -24 -26 -29 -57 -29 -76 0
-118 -89 -67 -144 l21 -22 -21 -23 c-52 -55 0 -155 75 -143 28 5 34 2 45 -24
15 -38 61 -62 100 -54 28 6 69 47 69 69 0 6 19 11 46 11 38 0 50 5 70 28 29
34 31 76 3 111 l-20 26 20 26 c28 35 26 77 -3 111 -20 23 -32 28 -70 27 -31
-1 -46 3 -46 12 0 21 -43 63 -70 69 -14 3 -36 -1 -50 -8z"/>
<path d="M6103 3911 c-2 -10 -16 -24 -29 -30 -27 -12 -32 -42 -9 -61 8 -7 12
-16 9 -21 -13 -22 8 -49 37 -49 16 0 38 -5 48 -12 22 -13 51 3 51 28 0 8 7 14
15 14 8 0 19 9 25 21 9 16 8 24 -5 39 -9 10 -14 23 -11 29 4 6 2 20 -4 32 -9
15 -19 20 -36 16 -14 -2 -27 0 -30 4 -10 17 -56 10 -61 -10z"/>
<path d="M2407 3882 c-10 -10 -17 -33 -17 -50 0 -21 -5 -32 -14 -32 -16 0 -31
-17 -40 -48 -6 -17 0 -29 23 -53 17 -17 31 -38 31 -48 0 -33 29 -61 64 -61 17
0 37 5 44 12 9 9 15 9 24 0 13 -13 57 -16 74 -4 17 11 36 51 29 62 -4 6 7 23
24 39 39 36 39 62 1 94 -18 16 -30 35 -30 50 0 47 -71 77 -100 42 -11 -13 -15
-13 -33 0 -29 20 -60 19 -80 -3z"/>
<path d="M7737 3879 c-14 -15 -16 -27 -9 -47 11 -34 61 -42 80 -12 14 24 6 70
-13 70 -7 0 -19 2 -27 5 -7 3 -21 -4 -31 -16z"/>
<path d="M11351 3867 c-6 -6 -11 -15 -11 -21 0 -5 -7 -17 -16 -27 -17 -19 -16
-24 14 -74 17 -27 23 -30 73 -30 49 0 54 2 57 23 2 13 10 26 18 29 18 7 18 50
0 60 -8 4 -15 17 -18 28 -3 17 -12 20 -54 22 -28 1 -57 -4 -63 -10z"/>
<path d="M10720 3836 c-5 -5 -10 -14 -10 -20 0 -5 -7 -18 -17 -28 -14 -16 -14
-20 -1 -35 8 -10 18 -25 21 -35 4 -12 18 -16 52 -16 39 0 47 3 55 23 5 13 14
26 19 30 14 8 14 21 -1 37 -7 8 -18 22 -24 33 -12 21 -76 29 -94 11z"/>
<path d="M7051 3824 c-21 -15 -23 -22 -17 -67 l6 -51 -31 37 c-34 42 -60 46
-89 17 -33 -33 -24 -58 40 -102 25 -17 25 -17 -20 -12 -62 8 -85 -12 -81 -69
2 -25 46 -39 87 -28 19 5 34 7 34 5 0 -3 -16 -18 -35 -35 -38 -34 -44 -59 -19
-83 26 -27 60 -19 94 22 l31 37 -6 -38 c-13 -70 46 -115 89 -68 14 16 17 29
11 63 l-6 43 26 -32 c43 -53 105 -42 105 19 0 20 -9 34 -37 53 l-38 25 51 0
c56 0 74 12 74 51 0 40 -22 53 -78 46 l-47 -6 26 22 c52 44 58 94 13 111 -27
10 -36 7 -70 -30 l-34 -35 0 51 c0 45 -3 52 -26 60 -31 12 -25 13 -53 -6z"/>
<path d="M6363 3796 c-14 -18 -26 -22 -50 -19 -51 8 -90 -45 -64 -86 7 -10 3
-23 -10 -39 -10 -14 -19 -33 -19 -43 0 -27 36 -59 65 -59 18 0 25 -5 25 -18 0
-49 75 -69 107 -29 13 16 27 21 49 19 46 -4 68 21 61 71 -4 27 -1 44 9 54 34
34 4 103 -44 103 -13 0 -22 6 -22 15 0 23 -37 55 -64 55 -14 0 -33 -10 -43
-24z"/>
<path d="M5040 3787 c-106 -32 -193 -81 -450 -251 -412 -274 -547 -324 -747
-277 -95 22 -208 28 -218 11 -4 -6 12 -10 40 -10 57 0 173 -23 285 -57 78 -23
390 -139 398 -148 2 -2 -14 -27 -36 -57 -82 -109 -113 -204 -111 -338 l2 -85
7 100 c11 142 57 250 143 333 l35 34 118 -45 c276 -104 429 -144 589 -153 120
-8 199 5 277 45 66 34 74 27 58 -46 -15 -64 -32 -93 -83 -140 -59 -54 -129
-89 -228 -114 -66 -16 -86 -18 -113 -8 -26 10 -38 9 -64 -5 l-32 -17 0 39 c0
45 -14 62 -50 62 -35 0 -50 -17 -50 -57 0 -41 -8 -41 -42 -3 -31 36 -50 38
-80 8 l-21 -21 -76 22 c-42 12 -114 37 -161 56 -46 19 -86 32 -88 30 -10 -10
264 -115 300 -115 8 0 31 -21 52 -46 28 -33 34 -45 20 -41 -62 19 -73 18 -93
-2 -26 -26 -27 -45 -1 -71 14 -14 33 -20 63 -20 l42 0 -40 -23 c-29 -16 -41
-30 -43 -50 -7 -60 51 -77 100 -30 l28 27 -6 -47 c-8 -55 5 -77 45 -77 38 0
51 17 52 70 0 39 2 42 12 26 34 -54 53 -69 80 -62 54 13 55 56 3 115 -20 23
-20 24 -1 17 56 -21 83 -19 100 7 30 47 -5 86 -78 88 -18 0 -25 3 -17 6 32 12
70 45 70 61 0 13 20 22 89 38 155 38 260 104 305 196 14 28 26 67 26 85 0 18
3 33 6 33 14 0 34 -31 34 -54 0 -31 32 -51 58 -37 12 7 22 5 34 -6 21 -19 55
-9 64 20 4 12 17 30 30 40 29 22 30 41 6 65 -9 9 -16 25 -14 35 6 30 -18 50
-55 44 -18 -3 -35 -1 -38 4 -4 5 -18 9 -31 9 -19 0 -29 -8 -37 -30 -6 -16 -17
-30 -23 -30 -7 0 -15 -7 -18 -16 -3 -8 -10 -13 -16 -9 -5 3 11 31 35 61 58 70
58 80 0 17 -37 -40 -46 -46 -55 -33 -9 12 -10 12 -8 -5 2 -15 -10 -26 -53 -48
-156 -78 -389 -52 -785 88 -87 31 -163 60 -167 65 -11 10 93 84 213 150 256
142 310 175 350 213 47 45 80 107 79 147 0 18 -5 11 -14 -21 -26 -84 -84 -129
-338 -268 -173 -94 -238 -134 -294 -182 l-32 -28 -143 56 c-79 30 -163 62
-188 70 -56 19 -72 33 -39 33 39 0 135 28 211 61 97 42 163 82 408 245 328
217 422 259 587 259 56 0 95 3 85 7 -39 15 -187 7 -262 -15z"/>
<path d="M7991 3784 c-17 -12 -26 -13 -34 -5 -32 32 -103 -10 -94 -55 3 -18
-4 -33 -25 -54 -22 -23 -28 -35 -22 -52 10 -33 24 -48 45 -48 14 0 19 -7 19
-29 0 -16 7 -37 16 -45 20 -20 68 -21 84 -1 11 13 15 13 41 0 22 -12 33 -13
54 -3 26 12 41 47 32 72 -3 8 4 21 18 30 37 24 42 62 14 92 -12 13 -28 24 -34
24 -7 0 -12 11 -12 25 0 55 -55 81 -102 49z"/>
<path d="M11595 3756 c-10 -15 -23 -22 -33 -19 -10 2 -26 -5 -37 -17 -16 -18
-17 -26 -8 -50 7 -18 7 -32 2 -36 -28 -17 11 -92 42 -82 7 2 23 -7 34 -20 17
-19 27 -24 48 -18 14 3 28 15 32 25 4 13 12 17 24 14 11 -3 28 4 40 16 17 17
19 25 10 50 -7 21 -7 36 1 50 20 37 -9 68 -57 62 -7 -1 -13 2 -13 8 0 16 -30
41 -50 41 -11 0 -27 -11 -35 -24z"/>
<path d="M7527 3730 c-35 -35 -37 -41 -25 -62 6 -13 11 -29 9 -36 -4 -21 19
-42 45 -42 14 0 33 -5 43 -12 15 -9 23 -9 35 1 9 8 16 19 16 27 0 7 9 16 20
19 21 7 28 49 10 60 -5 3 -10 17 -10 30 0 27 -24 45 -50 38 -10 -3 -21 0 -24
6 -12 19 -30 12 -69 -29z"/>
<path d="M10353 3751 c-8 -7 -12 -19 -9 -26 3 -8 -2 -16 -10 -19 -21 -8 -17
-29 13 -75 26 -40 46 -51 58 -31 3 5 19 7 35 3 23 -4 31 -1 36 13 3 11 10 26
15 34 20 33 21 42 2 63 -11 12 -23 30 -26 39 -7 21 -93 20 -114 -1z"/>
<path d="M11142 3748 c-7 -7 -12 -18 -12 -25 0 -7 -11 -13 -24 -13 -14 0 -32
-10 -40 -22 -14 -20 -14 -24 0 -46 12 -17 13 -27 5 -35 -27 -27 1 -77 42 -77
13 0 30 -9 40 -20 23 -27 53 -25 72 4 9 13 29 26 45 30 33 6 51 46 31 70 -6 7
-8 27 -5 45 8 38 -9 61 -45 61 -15 0 -31 8 -39 20 -14 22 -51 27 -70 8z"/>
<path d="M10883 3661 c-10 -10 -27 -21 -38 -23 -17 -3 -20 -11 -20 -57 0 -54
4 -60 45 -75 8 -3 22 -11 30 -17 12 -9 24 -5 55 16 37 25 40 30 41 77 1 48 -1
51 -32 64 -18 8 -35 18 -39 24 -9 15 -22 12 -42 -9z"/>
<path d="M10623 3631 c-4 -17 -8 -19 -19 -10 -21 18 -47 3 -35 -19 8 -15 6
-18 -11 -18 -28 1 -36 -24 -9 -31 17 -4 19 -8 10 -19 -18 -22 -3 -47 20 -35
15 8 18 7 17 -6 0 -10 7 -19 17 -21 11 -2 17 3 17 13 0 14 3 15 15 5 8 -7 22
-10 30 -6 13 5 14 10 4 27 -9 19 -9 21 4 16 9 -3 21 0 27 8 9 11 6 16 -12 26
-14 8 -18 14 -10 17 15 5 16 28 2 37 -6 4 -17 1 -26 -5 -12 -11 -14 -9 -12 10
4 30 -22 39 -29 11z"/>
<path d="M3425 3589 c-4 -6 -19 -7 -36 -4 -38 8 -59 -8 -59 -46 0 -16 -4 -29
-9 -29 -16 0 -23 -38 -11 -60 6 -11 17 -20 25 -20 8 0 15 -8 15 -18 0 -10 5
-23 12 -30 15 -15 54 -16 63 -2 3 6 17 7 31 4 32 -8 54 11 54 46 0 16 7 30 16
34 23 9 14 59 -13 71 -13 5 -23 17 -23 25 0 33 -50 55 -65 29z"/>
<path d="M2421 3491 c-10 -10 -30 -21 -44 -25 -30 -7 -43 -37 -28 -65 7 -13 8
-22 1 -26 -17 -11 -11 -43 12 -59 12 -8 25 -13 30 -9 5 3 16 -4 24 -16 19 -26
60 -27 74 -2 5 11 22 21 37 23 31 3 44 38 23 63 -7 9 -8 15 0 20 14 8 13 48
-2 63 -7 7 -21 12 -33 12 -11 0 -26 9 -33 20 -15 25 -37 25 -61 1z"/>
<path d="M11390 3479 c-7 -11 -9 -32 -6 -45 4 -14 2 -24 -4 -24 -5 0 -10 4
-10 10 0 16 -46 41 -63 34 -31 -11 -31 -44 0 -76 27 -30 27 -31 4 -25 -37 9
-71 -9 -71 -37 0 -31 25 -46 65 -39 l30 6 -28 -31 c-33 -34 -30 -66 6 -78 16
-5 28 1 50 27 l28 34 -6 -36 c-5 -27 -2 -40 10 -52 33 -34 65 -13 65 42 l0 35
29 -28 c32 -31 53 -30 71 4 9 17 7 25 -18 50 l-29 29 40 3 c54 4 72 31 39 58
-17 14 -32 18 -55 13 l-32 -6 34 31 c31 30 32 34 18 55 -21 32 -42 32 -71 0
l-26 -28 0 36 c0 57 -47 82 -70 38z"/>
<path d="M6180 3465 c-7 -8 -25 -15 -40 -15 -34 0 -54 -23 -47 -52 4 -12 2
-28 -4 -34 -18 -22 -7 -69 18 -72 12 -2 25 -12 28 -23 9 -28 41 -42 65 -29 11
6 20 14 20 19 0 5 11 6 25 3 37 -7 58 15 50 54 -3 18 -1 35 5 39 5 3 10 18 10
31 0 19 -8 29 -28 36 -16 6 -33 21 -38 32 -11 26 -46 32 -64 11z"/>
<path d="M10976 3430 c-13 -27 -13 -33 0 -60 13 -24 22 -30 49 -30 26 0 39 7
55 31 20 28 21 31 6 48 -9 10 -16 23 -16 29 0 7 -16 12 -39 12 -34 0 -42 -4
-55 -30z"/>
<path d="M11778 3390 c-7 -11 -18 -20 -24 -20 -6 0 -17 -7 -25 -16 -10 -12
-10 -20 -1 -35 7 -11 10 -24 7 -29 -12 -20 6 -50 30 -50 13 0 27 -4 30 -10 9
-15 43 -12 52 4 4 7 18 19 31 25 21 11 22 17 16 59 -6 45 -28 77 -46 66 -4 -3
-15 2 -24 10 -21 21 -31 20 -46 -4z"/>
<path d="M6433 3393 c-7 -2 -13 -10 -13 -18 0 -7 -10 -19 -22 -28 -20 -13 -21
-18 -11 -36 7 -11 10 -26 7 -34 -6 -18 21 -41 41 -34 8 4 17 2 20 -3 11 -18
47 -11 52 10 3 11 11 20 18 20 21 0 24 25 10 66 -9 28 -19 40 -37 42 -12 2
-27 8 -32 13 -11 10 -14 10 -33 2z"/>
<path d="M3095 3374 c-29 -22 -29 -59 1 -79 22 -14 26 -14 48 0 31 20 31 59 0
80 -28 18 -24 18 -49 -1z"/>
<path d="M10560 3368 c0 -17 -3 -19 -12 -10 -21 21 -41 14 -36 -12 3 -15 -2
-27 -14 -35 -22 -14 -15 -31 13 -31 17 0 18 -3 7 -20 -16 -25 -3 -38 22 -22
17 11 20 10 20 -9 0 -14 5 -19 18 -17 9 2 16 11 16 20 -1 14 2 15 17 5 25 -16
48 5 30 26 -9 12 -7 16 9 20 11 3 20 10 20 17 0 7 -9 14 -20 17 -16 4 -18 8
-9 20 17 19 -5 43 -23 25 -13 -13 -29 -16 -27 -4 3 20 -2 32 -16 32 -9 0 -15
-9 -15 -22z"/>
<path d="M10844 3339 c-3 -6 -15 -9 -25 -6 -27 7 -53 -16 -47 -41 4 -12 0 -26
-8 -33 -17 -14 -1 -49 21 -49 8 0 15 -7 15 -15 0 -23 34 -36 56 -21 10 8 25
11 33 8 17 -6 42 24 35 43 -3 7 -1 16 5 20 19 11 12 37 -21 71 -34 35 -52 42
-64 23z"/>
<path d="M2049 3324 c-7 -9 -13 -34 -14 -55 0 -21 -2 -39 -5 -39 -3 1 -14 15
-25 33 -23 37 -64 47 -89 22 -24 -24 -20 -53 14 -87 37 -36 37 -40 4 -28 -38
15 -69 12 -87 -8 -37 -41 -14 -75 54 -82 l52 -5 -39 -25 c-48 -31 -57 -70 -22
-94 31 -22 42 -20 82 14 l35 31 -10 -36 c-12 -43 -5 -71 22 -86 44 -23 87 24
75 84 -7 34 8 27 29 -13 19 -38 59 -49 85 -25 29 26 25 54 -12 93 -26 27 -29
33 -13 29 65 -19 73 -19 94 2 12 12 21 28 21 36 0 28 -38 55 -77 56 -34 0 -36
2 -19 12 56 35 70 71 40 101 -24 24 -55 19 -90 -15 l-32 -31 11 46 c9 39 8 49
-8 66 -22 24 -58 26 -76 4z"/>
<path d="M7447 3272 c-10 -10 -17 -24 -17 -30 0 -7 -11 -12 -23 -12 -47 0 -73
-56 -42 -90 13 -14 14 -22 4 -42 -8 -19 -8 -31 0 -47 11 -20 56 -39 68 -27 3
3 19 -6 35 -19 37 -31 43 -31 76 2 15 15 41 34 57 43 36 18 45 62 20 90 -11
12 -13 20 -6 25 34 21 -8 89 -51 83 -15 -2 -30 5 -41 19 -22 28 -58 30 -80 5z"/>
<path d="M5877 3163 c-4 -3 -7 -16 -7 -27 -1 -19 -2 -19 -11 -3 -12 21 -45 23
-52 3 -3 -8 1 -20 10 -28 14 -11 13 -14 -13 -18 -38 -7 -40 -41 -4 -50 21 -5
22 -7 8 -13 -22 -8 -24 -43 -4 -50 8 -3 20 1 28 10 11 14 14 13 18 -13 7 -38
41 -40 50 -4 5 21 7 22 13 8 7 -20 42 -24 53 -7 3 6 1 16 -5 22 -17 17 -13 25
12 29 31 4 30 40 -3 48 -21 5 -22 7 -7 13 19 7 23 42 6 52 -5 4 -19 -1 -31
-12 -20 -18 -20 -18 -18 2 4 36 0 45 -18 45 -10 0 -22 -3 -25 -7z"/>
<path d="M6364 3105 c-9 -14 -14 -28 -10 -32 3 -3 -3 -12 -14 -20 -26 -18 -26
-59 0 -73 11 -6 20 -19 20 -29 0 -29 21 -39 83 -38 47 0 61 4 72 20 8 11 12
24 8 29 -3 5 4 16 16 24 26 19 27 46 1 69 -11 10 -20 26 -20 35 0 34 -52 54
-77 29 -8 -8 -13 -8 -17 0 -12 19 -45 12 -62 -14z"/>
<path d="M11801 3101 c-7 -5 -22 -6 -34 -4 -16 3 -26 -4 -39 -27 -22 -39 -23
-56 -2 -64 8 -3 13 -10 10 -15 -9 -15 17 -28 57 -28 30 -1 40 4 48 20 5 12 15
30 21 40 11 15 10 20 -4 31 -10 7 -18 20 -18 29 0 18 -22 28 -39 18z"/>
<path d="M8898 3081 c-7 -10 -22 -20 -32 -22 -28 -6 -43 -35 -29 -57 7 -11 8
-24 2 -34 -14 -25 0 -48 32 -55 16 -3 34 -12 40 -19 15 -19 34 -18 55 3 10 10
27 23 38 28 17 9 21 20 21 64 0 57 -13 81 -44 81 -10 0 -24 7 -31 15 -17 20
-36 19 -52 -4z"/>
<path d="M11965 3033 c-19 -28 -19 -38 0 -67 24 -37 80 -34 99 5 13 26 13 33
-2 58 -21 37 -74 39 -97 4z"/>
<path d="M7780 3025 c-7 -8 -16 -13 -20 -10 -20 12 -38 -9 -44 -52 -5 -41 -3
-49 21 -74 29 -29 52 -36 69 -20 5 5 20 11 34 13 20 2 25 9 25 30 1 15 4 30 8
34 14 14 7 43 -13 49 -11 3 -25 15 -30 26 -13 23 -33 25 -50 4z"/>
<path d="M8136 3024 c-19 -19 -20 -32 -1 -64 22 -38 18 -41 -20 -19 -41 25
-72 18 -81 -17 -7 -29 19 -64 47 -64 33 0 29 -18 -6 -24 -38 -8 -60 -36 -50
-66 9 -28 47 -35 84 -16 34 18 39 12 16 -18 -30 -39 -13 -86 31 -86 25 0 37
13 51 55 l10 30 12 -42 c9 -32 18 -44 36 -49 49 -12 73 45 39 94 -19 27 -14
27 30 1 27 -16 39 -18 54 -10 47 25 28 83 -30 97 l-33 7 35 10 c45 12 60 24
60 51 0 45 -38 58 -90 31 l-28 -15 21 40 c26 48 16 73 -30 78 -27 3 -32 -1
-48 -40 l-18 -43 -7 32 c-13 60 -51 81 -84 47z"/>
<path d="M7562 2919 c-26 -10 -29 -44 -6 -70 13 -14 21 -16 39 -7 53 24 22 97
-33 77z"/>
<path d="M6147 2914 c-4 -4 -7 -19 -7 -32 0 -25 0 -25 -20 -7 -19 17 -22 18
-37 2 -16 -15 -15 -18 1 -36 17 -19 17 -20 -6 -23 -32 -4 -31 -40 2 -48 17 -4
21 -8 12 -14 -20 -12 -15 -46 7 -46 11 0 23 5 27 11 4 7 11 2 18 -13 16 -32
40 -29 44 5 3 28 4 28 23 11 18 -16 21 -17 36 -1 16 15 15 18 -1 36 -17 19
-17 20 6 23 32 4 31 40 -2 48 -17 4 -21 8 -12 14 20 12 15 46 -7 46 -11 0 -23
-5 -27 -11 -4 -7 -11 -2 -18 12 -12 24 -28 34 -39 23z"/>
<path d="M8775 2833 c-27 -7 -46 -24 -42 -37 3 -6 0 -19 -5 -29 -8 -15 -3 -25
21 -50 27 -25 35 -28 54 -19 12 5 29 12 38 15 9 3 19 21 22 43 5 31 2 41 -19
61 -25 23 -32 25 -69 16z"/>
<path d="M12016 2821 c-11 -12 -25 -16 -41 -13 -36 6 -58 -15 -52 -52 3 -19
-1 -38 -10 -48 -23 -26 -9 -64 27 -76 16 -6 30 -18 30 -26 0 -24 38 -40 66
-27 13 6 24 14 24 19 0 5 13 7 28 4 35 -5 56 18 50 56 -2 16 2 34 9 41 28 26
9 81 -29 81 -10 0 -18 6 -18 13 0 18 -32 47 -52 47 -8 0 -22 -8 -32 -19z"/>
<path d="M7736 2763 c-3 -3 -6 -14 -6 -22 0 -9 -9 -24 -20 -34 -23 -19 -26
-55 -6 -63 8 -3 16 -18 19 -33 7 -32 30 -46 55 -32 9 5 25 5 39 -2 26 -12 53
4 53 32 0 9 9 24 20 34 11 9 20 21 20 27 0 6 -9 18 -20 27 -11 10 -20 27 -20
40 0 12 -7 24 -17 26 -28 7 -110 7 -117 0z"/>
<path d="M8983 2719 c-7 -7 -13 -21 -13 -31 0 -10 -7 -18 -15 -18 -8 0 -19 -9
-25 -19 -10 -21 -4 -51 11 -51 5 0 9 -11 9 -24 0 -32 24 -50 55 -42 15 4 25 2
25 -4 0 -19 52 -6 64 15 6 11 19 26 29 33 21 16 23 58 3 65 -8 3 -12 14 -10
24 7 28 -12 47 -48 49 -18 1 -42 5 -53 9 -11 3 -26 0 -32 -6z"/>
<path d="M5453 2662 c-30 -25 -32 -30 -26 -70 4 -28 12 -46 22 -49 9 -2 24 -9
33 -14 25 -13 48 -11 54 5 3 8 14 16 24 19 16 4 19 13 16 53 -1 29 -8 50 -17
54 -8 4 -24 12 -36 18 -31 16 -33 15 -70 -16z"/>
<path d="M5755 2620 c-3 -5 -19 -7 -34 -4 -23 5 -32 1 -45 -19 -9 -13 -14 -31
-11 -39 4 -9 -1 -18 -9 -21 -10 -4 -16 -18 -16 -37 0 -23 6 -33 24 -40 14 -5
26 -19 28 -32 3 -25 36 -36 66 -22 9 4 27 6 40 5 32 -3 52 16 52 49 0 16 7 30
16 34 23 9 14 59 -13 71 -13 5 -23 17 -23 25 0 9 -5 21 -12 28 -14 14 -54 16
-63 2z"/>
<path d="M8190 2608 c-1 -21 -2 -22 -14 -5 -21 27 -49 22 -44 -7 4 -19 0 -26
-15 -28 -28 -4 -34 -28 -8 -35 25 -6 26 -12 4 -28 -22 -16 -7 -38 23 -32 14 2
24 0 23 -7 -5 -39 28 -53 38 -16 5 20 6 20 25 4 25 -24 49 -4 31 26 -11 17
-10 18 14 17 35 -3 46 32 13 40 -19 5 -19 7 -6 22 10 11 12 21 6 31 -8 13 -13
13 -30 2 -20 -12 -21 -11 -18 10 2 17 -2 24 -19 26 -18 3 -23 -2 -23 -20z"/>
<path d="M8682 2598 c-5 -7 -12 -22 -14 -33 -1 -11 -15 -28 -30 -37 -35 -22
-38 -70 -7 -92 14 -9 19 -21 15 -31 -14 -38 38 -84 74 -65 16 8 26 7 42 -5 13
-8 30 -15 39 -15 22 0 49 32 49 58 0 12 6 22 13 22 20 0 47 33 47 58 0 12 -9
30 -20 39 -12 11 -20 30 -20 48 0 17 -5 36 -12 43 -15 15 -60 16 -74 2 -8 -8
-15 -6 -24 5 -15 18 -63 20 -78 3z"/>
<path d="M4288 2531 c-7 -10 -22 -20 -33 -23 -15 -3 -19 -10 -17 -33 1 -17 2
-42 2 -57 0 -27 30 -55 44 -40 4 4 12 -1 17 -11 13 -23 45 -22 61 2 7 10 22
20 33 23 15 3 19 10 17 33 -1 17 -2 42 -2 57 0 27 -30 55 -44 40 -4 -4 -12 1
-17 11 -13 23 -45 22 -61 -2z"/>
<path d="M8214 2405 c-14 -14 -22 -30 -19 -35 3 -6 -2 -13 -12 -17 -53 -19
-67 -59 -32 -94 13 -13 18 -27 14 -40 -4 -12 0 -31 10 -46 15 -22 22 -24 55
-19 27 4 41 2 50 -9 26 -31 90 -5 90 36 0 8 14 22 30 31 23 13 30 24 30 47 0
19 -7 35 -18 42 -12 8 -17 20 -14 43 5 45 -28 74 -68 59 -24 -9 -32 -8 -46 8
-23 25 -40 24 -70 -6z"/>
<path d="M5511 2406 c-8 -9 -25 -12 -55 -9 -39 5 -46 2 -60 -20 -10 -15 -15
-34 -11 -49 4 -17 0 -29 -14 -42 -21 -19 -27 -60 -13 -83 4 -6 20 -16 35 -22
17 -7 27 -18 27 -31 0 -26 34 -60 60 -60 11 0 29 9 40 20 16 16 25 18 40 10
28 -15 44 -12 69 11 17 16 22 29 19 51 -4 22 1 37 19 54 12 13 23 29 23 37 0
22 -39 67 -58 67 -11 0 -18 9 -18 25 -1 14 -7 32 -14 40 -16 19 -74 20 -89 1z"/>
<path d="M4087 2342 c-26 -29 -21 -61 10 -73 40 -15 76 6 68 41 -6 26 -30 50
-50 50 -7 0 -19 -8 -28 -18z"/>
<path d="M8845 2308 c-11 -6 -27 -14 -35 -18 -8 -4 -15 -18 -16 -31 0 -13 -4
-32 -8 -42 -9 -19 9 -47 30 -47 8 0 14 -6 14 -14 0 -22 31 -28 52 -10 10 10
21 14 24 11 14 -13 46 15 41 35 -3 11 -1 29 6 39 9 15 5 23 -25 53 -39 38 -51
41 -83 24z"/>
<path d="M8566 2294 c-9 -8 -20 -13 -26 -9 -20 12 -51 -15 -49 -43 1 -15 -1
-35 -5 -44 -12 -27 -2 -53 22 -56 12 -2 22 -10 22 -17 0 -8 9 -19 21 -25 16
-9 24 -8 37 3 9 9 31 17 47 19 26 3 30 7 31 33 0 17 5 39 11 50 13 23 0 55
-21 55 -8 0 -21 11 -30 25 -19 29 -38 32 -60 9z"/>
<path d="M5678 2120 c-7 -11 -21 -20 -30 -20 -24 0 -39 -30 -27 -53 6 -10 7
-27 4 -38 -8 -25 11 -49 40 -49 12 0 28 -7 35 -15 17 -20 36 -19 52 3 7 10 21
21 31 25 23 9 33 36 19 57 -6 9 -7 23 -2 30 13 21 -7 50 -34 50 -13 0 -26 7
-30 15 -8 22 -44 18 -58 -5z"/>
<path d="M4140 2083 c13 -18 25 -33 27 -33 8 0 -17 38 -33 51 -11 9 -9 2 6
-18z"/>
<path d="M5078 2044 c-14 -14 -21 -15 -46 -5 -23 10 -35 10 -51 2 -26 -14 -44
-48 -37 -68 4 -9 -4 -25 -19 -39 -14 -13 -25 -34 -25 -49 0 -27 31 -65 54 -65
9 0 12 -7 9 -19 -6 -22 36 -71 60 -71 8 0 26 9 40 20 16 13 28 16 32 10 3 -5
22 -10 40 -10 41 0 71 36 60 70 -5 15 0 26 20 42 38 30 32 77 -12 98 -24 11
-31 20 -27 33 7 24 -32 67 -61 67 -11 0 -28 -7 -37 -16z"/>
<path d="M5368 2012 c-7 -9 -25 -23 -40 -29 -20 -9 -28 -20 -28 -37 0 -14 4
-27 9 -31 5 -3 7 -21 4 -39 -4 -28 -1 -36 16 -45 12 -7 26 -9 31 -6 5 3 18 -3
30 -15 26 -26 44 -25 67 4 11 13 27 25 37 27 29 6 43 35 28 59 -7 11 -10 31
-6 45 8 31 -10 55 -41 55 -12 0 -28 7 -35 15 -17 20 -56 19 -72 -3z"/>
<path d="M4900 1643 c0 -10 9 -54 19 -98 l19 -80 1 55 c1 59 -14 125 -29 135
-6 4 -10 -2 -10 -12z"/>
<path d="M5001 1464 c-12 -15 -21 -30 -21 -35 0 -4 -3 -16 -6 -26 -7 -19 48
39 66 70 17 28 -15 21 -39 -9z"/>
<path d="M8176 1401 c-22 -24 -45 -87 -45 -121 -1 -20 5 -15 28 27 51 93 60
142 17 94z"/>
<path d="M7430 1362 c0 -11 13 -51 30 -89 l29 -68 0 40 c1 41 -28 117 -48 129
-7 4 -11 -1 -11 -12z"/>
<path d="M12017 1362 c-22 -25 -46 -87 -46 -122 -1 -18 9 -6 35 43 38 74 44
115 11 79z"/>
<path d="M6269 1323 c5 -15 21 -50 36 -78 l27 -50 -5 49 c-5 46 -31 96 -55
104 -8 2 -9 -5 -3 -25z"/>
<path d="M8010 1329 c0 -8 16 -41 36 -74 l35 -60 -7 40 c-8 48 -16 64 -43 89
-16 14 -21 15 -21 5z"/>
<path d="M11293 1315 c3 -16 16 -57 31 -90 22 -51 26 -56 26 -30 0 45 -18 100
-41 127 l-20 23 4 -30z"/>
<path d="M8511 1296 c-21 -22 -40 -78 -41 -116 0 -8 17 18 36 58 39 78 41 96
5 58z"/>
<path d="M9050 1311 c0 -6 16 -44 36 -84 l36 -72 -7 50 c-4 28 -11 57 -15 65
-13 24 -50 55 -50 41z"/>
<path d="M7096 1278 c3 -13 14 -41 24 -63 10 -22 20 -47 23 -55 3 -8 6 1 6 20
1 40 -32 120 -49 120 -7 0 -9 -9 -4 -22z"/>
<path d="M11850 1293 c0 -4 16 -35 36 -68 32 -55 34 -57 28 -25 -7 41 -34 92
-52 98 -6 2 -12 0 -12 -5z"/>
<path d="M7577 1261 c-26 -32 -44 -77 -34 -87 7 -7 69 94 65 107 -2 7 -16 -3
-31 -20z"/>
<path d="M5282 1257 c-24 -26 -47 -87 -32 -87 12 0 63 87 58 100 -2 6 -14 0
-26 -13z"/>
<path d="M8446 1264 c-3 -9 -6 -37 -5 -62 0 -52 11 -37 22 30 6 38 -6 61 -17
32z"/>
<path d="M6429 1254 c-24 -28 -36 -54 -43 -99 -4 -29 -3 -34 4 -18 5 12 21 40
35 63 29 47 32 86 4 54z"/>
<path d="M12332 1245 c-12 -15 -22 -35 -22 -44 0 -9 -3 -27 -6 -41 -3 -14 9 1
26 33 35 65 36 95 2 52z"/>
<path d="M5940 1241 c0 -10 14 -45 30 -77 l30 -59 -6 45 c-6 39 -38 110 -50
110 -2 0 -4 -8 -4 -19z"/>
<path d="M7160 1205 c0 -59 14 -74 24 -25 5 28 -7 80 -19 80 -3 0 -5 -25 -5
-55z"/>
<path d="M7509 1221 c-6 -22 -8 -48 -4 -58 7 -16 8 -15 15 7 15 53 19 90 10
90 -5 0 -14 -18 -21 -39z"/>
<path d="M10970 1233 c4 -16 18 -48 30 -73 l21 -45 -6 49 c-7 48 -29 96 -45
96 -5 0 -5 -12 0 -27z"/>
<path d="M11447 1239 c-20 -12 -47 -61 -47 -86 0 -15 4 -14 21 7 23 30 52 81
47 85 -2 2 -11 -1 -21 -6z"/>
<path d="M9208 1224 c-19 -22 -38 -67 -38 -92 0 -10 14 4 31 30 33 51 39 96 7
62z"/>
<path d="M12278 1227 c-5 -10 -8 -37 -8 -60 1 -34 3 -38 11 -24 6 9 9 36 7 60
-2 30 -5 37 -10 24z"/>
<path d="M6008 1214 c-8 -16 4 -114 13 -108 11 7 12 85 0 103 -5 7 -10 9 -13
5z"/>
<path d="M9846 1197 c3 -12 17 -42 31 -67 l24 -45 -6 43 c-6 47 -22 79 -43 87
-10 4 -11 -1 -6 -18z"/>
<path d="M11030 1166 c0 -31 5 -56 10 -56 6 0 10 22 10 49 0 28 -4 53 -10 56
-6 4 -10 -15 -10 -49z"/>
<path d="M11372 1195 c-14 -31 -16 -75 -3 -75 10 0 27 87 19 96 -3 2 -10 -7
-16 -21z"/>
<path d="M9141 1178 c-7 -20 -7 -45 -2 -63 8 -28 9 -26 16 28 9 67 2 84 -14
35z"/>
<path d="M9911 1148 c1 -18 4 -46 8 -63 l7 -30 7 36 c7 33 -5 89 -18 89 -3 0
-4 -15 -4 -32z"/>
<path d="M7152 1090 c0 -14 2 -19 5 -12 2 6 2 18 0 25 -3 6 -5 1 -5 -13z"/>
</g>
</svg>
