<svg width="17" height="16" viewBox="0 0 17 16" fill="none" xmlns="http://www.w3.org/2000/svg">
<g id="ic:round-arrow-back-ios">
<path id="Vector" d="M11.58 1.99336C11.5026 1.91575 11.4106 1.85418 11.3094 1.81217C11.2081 1.77016 11.0996 1.74854 10.99 1.74854C10.8804 1.74854 10.7719 1.77016 10.6706 1.81217C10.5694 1.85418 10.4774 1.91575 10.4 1.99336L4.86 7.53336C4.7982 7.59503 4.74917 7.66829 4.71571 7.74894C4.68226 7.82959 4.66504 7.91605 4.66504 8.00336C4.66504 8.09067 4.68226 8.17713 4.71571 8.25777C4.74917 8.33842 4.7982 8.41168 4.86 8.47336L10.4 14.0134C10.7267 14.34 11.2533 14.34 11.58 14.0134C11.9067 13.6867 11.9067 13.16 11.58 12.8334L6.75334 8.00002L11.5867 3.16669C11.9067 2.84669 11.9067 2.31336 11.58 1.99336Z" fill="#363636" style="fill:#363636;fill:color(display-p3 0.2125 0.2125 0.2125);fill-opacity:1;"/>
</g>
</svg>
