<svg width="24" height="24" viewBox="0 0 24 24" fill="none" xmlns="http://www.w3.org/2000/svg">
<g id="Cart" clip-path="url(#clip0_396_229)">
<path id="Vector" d="M19.9124 14.475H17.0999V15.9H19.9124C20.2874 15.9 20.6249 16.2 20.6249 16.6125C20.6249 17.025 20.3249 17.325 19.9124 17.325H2.3624C1.9874 17.325 1.6499 17.625 1.6499 18.0375C1.6499 18.4125 1.9499 18.75 2.3624 18.75H19.9499C21.1124 18.75 22.0499 17.8125 22.0499 16.65C22.0499 15.4125 21.0749 14.475 19.9124 14.475ZM20.4374 9.63745L19.0499 9.52495C19.0499 9.48745 19.9124 4.34995 20.0999 3.29995C20.2124 2.69995 20.4374 1.01245 22.5749 1.01245V2.43745C21.7124 2.43745 21.5999 2.77495 21.5249 3.41245C21.2999 4.46245 20.4374 9.56245 20.4374 9.63745Z" fill="#363636" style="fill:#363636;fill:color(display-p3 0.2125 0.2125 0.2125);fill-opacity:1;"/>
<path id="Vector_2" d="M20.5126 4.61255H1.50014C0.78764 4.61255 0.67514 5.28755 0.78764 5.66255L2.92514 15.1875C3.03764 15.5625 3.41264 15.8625 3.82514 15.8625H18.7501C19.1251 15.8625 19.5001 15.5625 19.5751 15.15L21.1501 5.28755C21.1876 4.95005 20.8876 4.61255 20.5126 4.61255ZM2.58764 7.80005L2.21264 6.37505C2.17514 6.18755 2.28764 6.03755 2.47514 6.03755H5.13764C5.32514 6.03755 5.51264 6.18755 5.51264 6.37505L5.66264 7.80005C5.70014 7.98755 5.55014 8.13755 5.36264 8.13755H3.00014C2.81264 8.13755 2.62514 7.98755 2.58764 7.80005ZM3.78764 11.2875C3.60014 11.2875 3.41264 11.1375 3.33764 10.95L3.07514 9.86255C3.03764 9.67505 3.15014 9.52505 3.33764 9.52505H5.47514C5.66264 9.52505 5.85014 9.67505 5.85014 9.86255L5.96264 10.9125C6.00014 11.1 5.85014 11.25 5.66264 11.25C5.70014 11.2875 3.78764 11.2875 3.78764 11.2875ZM6.03764 14.475H4.57514C4.38764 14.475 4.20014 14.325 4.12514 14.1375L3.86264 13.05C3.82514 12.8625 3.93764 12.7125 4.12514 12.7125H5.81264C6.00014 12.7125 6.18764 12.8625 6.18764 13.05L6.30014 14.1C6.37514 14.2875 6.22514 14.475 6.03764 14.475ZM10.3501 14.1C10.3501 14.2875 10.2001 14.4375 10.0126 14.4375H8.17514C7.98764 14.4375 7.80014 14.2875 7.80014 14.1L7.68764 13.05C7.65014 12.8625 7.80014 12.7125 7.98764 12.7125H10.0126C10.2001 12.7125 10.3501 12.8625 10.3501 13.05V14.1ZM10.3501 10.95C10.3501 11.1375 10.2001 11.2875 10.0126 11.2875H7.83764C7.65014 11.2875 7.46264 11.1375 7.46264 10.95L7.35014 9.90005C7.31264 9.71255 7.46264 9.56255 7.65014 9.56255H10.0126C10.2001 9.56255 10.3501 9.71255 10.3501 9.90005V10.95ZM10.3501 7.80005C10.3501 7.98755 10.2001 8.13755 10.0126 8.13755H7.50014C7.31264 8.13755 7.12514 7.98755 7.12514 7.80005L6.93764 6.37505C6.90014 6.18755 7.05014 6.03755 7.23764 6.03755H9.97514C10.1626 6.03755 10.3126 6.18755 10.3126 6.37505C10.3501 6.37505 10.3501 7.80005 10.3501 7.80005ZM14.1751 14.1C14.1376 14.2875 13.9876 14.4375 13.8001 14.4375H12.1501C11.9626 14.4375 11.8126 14.2875 11.8126 14.1V13.05C11.8126 12.8625 11.9626 12.7125 12.1501 12.7125H13.9876C14.1751 12.7125 14.3251 12.8625 14.2876 13.05L14.1751 14.1ZM14.5126 10.95C14.4751 11.1375 14.3251 11.2875 14.1376 11.2875H12.1501C11.9626 11.2875 11.8126 11.1375 11.8126 10.95V9.90005C11.8126 9.71255 11.9626 9.56255 12.1501 9.56255H14.3251C14.5126 9.56255 14.6626 9.71255 14.6251 9.90005L14.5126 10.95ZM14.8501 7.80005C14.8126 7.98755 14.6626 8.13755 14.4751 8.13755H12.1501C11.9626 8.13755 11.8126 7.98755 11.8126 7.80005V6.37505C11.8126 6.18755 11.9626 6.03755 12.1501 6.03755H14.7001C14.8876 6.03755 15.0376 6.18755 15.0001 6.37505L14.8501 7.80005ZM18.1126 14.1C18.0751 14.2875 17.8876 14.4375 17.7001 14.4375H15.9001C15.7126 14.4375 15.5626 14.2875 15.6001 14.1L15.7126 13.05C15.7501 12.8625 15.9001 12.7125 16.0876 12.7125H18.0001C18.1876 12.7125 18.3376 12.8625 18.3001 13.05L18.1126 14.1ZM18.6001 10.95C18.5626 11.1375 18.3751 11.2875 18.1876 11.2875H16.2001C16.0126 11.2875 15.8626 11.1375 15.9001 10.95L16.0126 9.90005C16.0501 9.71255 16.2001 9.56255 16.3876 9.56255H18.4501C18.6376 9.56255 18.7876 9.71255 18.7501 9.90005L18.6001 10.95ZM19.0876 7.80005C19.0501 7.98755 18.8626 8.13755 18.6751 8.13755H16.5376C16.3501 8.13755 16.2001 7.98755 16.2376 7.80005L16.3876 6.37505C16.4251 6.18755 16.5751 6.03755 16.7626 6.03755H18.9751C19.1626 6.03755 19.3126 6.18755 19.2751 6.37505L19.0876 7.80005Z" fill="#007700" style="fill:#007700;fill:color(display-p3 0.0000 0.4667 0.0000);fill-opacity:1;"/>
<path id="Vector_3" d="M4.6127 23.25C5.77249 23.25 6.7127 22.3098 6.7127 21.15C6.7127 19.9903 5.77249 19.05 4.6127 19.05C3.4529 19.05 2.5127 19.9903 2.5127 21.15C2.5127 22.3098 3.4529 23.25 4.6127 23.25Z" fill="#696969" style="fill:#696969;fill:color(display-p3 0.4118 0.4118 0.4118);fill-opacity:1;"/>
<path id="Vector_4" d="M4.6125 22.2001C5.1924 22.2001 5.6625 21.73 5.6625 21.1501C5.6625 20.5702 5.1924 20.1001 4.6125 20.1001C4.0326 20.1001 3.5625 20.5702 3.5625 21.1501C3.5625 21.73 4.0326 22.2001 4.6125 22.2001Z" fill="#FBFBFB" style="fill:#FBFBFB;fill:color(display-p3 0.9833 0.9833 0.9833);fill-opacity:1;"/>
<path id="Vector_5" d="M17.2875 23.25C18.4473 23.25 19.3875 22.3098 19.3875 21.15C19.3875 19.9903 18.4473 19.05 17.2875 19.05C16.1277 19.05 15.1875 19.9903 15.1875 21.15C15.1875 22.3098 16.1277 23.25 17.2875 23.25Z" fill="#696969" style="fill:#696969;fill:color(display-p3 0.4118 0.4118 0.4118);fill-opacity:1;"/>
<path id="Vector_6" d="M18.3373 21.1501C18.3373 21.7501 17.8498 22.2001 17.2873 22.2001C16.6873 22.2001 16.2373 21.7126 16.2373 21.1501C16.2373 20.5501 16.7248 20.1001 17.2873 20.1001C17.8498 20.1001 18.3373 20.5501 18.3373 21.1501Z" fill="#FBFBFB" style="fill:#FBFBFB;fill:color(display-p3 0.9833 0.9833 0.9833);fill-opacity:1;"/>
<path id="Vector_7" d="M22.9123 0.75H21.8623V2.85H22.9123C23.0998 2.85 23.2498 2.7 23.2498 2.5125V1.0875C23.2498 0.9 23.0998 0.75 22.9123 0.75Z" fill="#696969" style="fill:#696969;fill:color(display-p3 0.4118 0.4118 0.4118);fill-opacity:1;"/>
<path id="Vector_8" d="M4.6123 18.3374C3.0748 18.3374 1.7998 19.6124 1.7998 21.1499H7.4248C7.4248 19.5749 6.1873 18.3374 4.6123 18.3374ZM17.2873 18.3374C15.7498 18.3374 14.4748 19.6124 14.4748 21.1499H20.0998C20.0998 19.5749 18.8248 18.3374 17.2873 18.3374Z" fill="#363636" style="fill:#363636;fill:color(display-p3 0.2125 0.2125 0.2125);fill-opacity:1;"/>
</g>
<defs>
<clipPath id="clip0_396_229">
<rect width="24" height="24" fill="white" style="fill:white;fill-opacity:1;"/>
</clipPath>
</defs>
</svg>
