<svg width="24" height="24" viewBox="0 0 24 24" fill="none" xmlns="http://www.w3.org/2000/svg">
<g clip-path="url(#clip0_132_2367)">
<path d="M1.9347 3.28788L1.93485 3.28773C2.75889 2.46298 3.84367 2.03657 5.44982 1.82055C7.06316 1.60356 9.16468 1.60303 12 1.60303H15C16.4014 1.60303 17.44 1.60316 18.2663 1.65945C19.0903 1.71558 19.685 1.8267 20.2007 2.03996C20.8983 2.32925 21.5321 2.75311 22.0658 3.28735C22.5996 3.82159 23.0228 4.45574 23.3115 5.15358L23.3116 5.15396C23.5256 5.66881 23.6371 6.26306 23.6934 7.08695C23.7499 7.91307 23.75 8.9516 23.75 10.353C23.75 11.7545 23.7499 12.793 23.6934 13.6193C23.6371 14.4434 23.5256 15.038 23.3116 15.5537L23.3116 15.5538C22.7276 16.9623 21.6082 18.0813 20.1994 18.6645L20.1991 18.6647C19.6842 18.8786 19.09 18.9901 18.2661 19.0464C17.44 19.1029 16.4014 19.103 15 19.103H6.312C6.30225 19.103 6.2925 19.103 6.28274 19.103C6.15823 19.1027 6.03296 19.1024 5.91656 19.1505C5.79991 19.1986 5.71151 19.2875 5.62459 19.3748C5.6178 19.3816 5.61101 19.3885 5.60422 19.3953L2.38372 22.6158C1.59637 23.4031 0.25 22.8445 0.25 21.732V13.353C0.25 10.5177 0.250531 8.41619 0.467519 6.80285C0.68354 5.1967 1.10995 4.11192 1.9347 3.28788Z" fill="#EEEEEE" stroke="#696969" style="fill:#EEEEEE;fill:color(display-p3 0.9333 0.9333 0.9333);fill-opacity:1;stroke:#696969;stroke:color(display-p3 0.4118 0.4118 0.4118);stroke-opacity:1;" stroke-width="0.5"/>
<path d="M6.75 8.10303H17.25M6.75 12.603H14.25" stroke="#696969" style="stroke:#696969;stroke:color(display-p3 0.4118 0.4118 0.4118);stroke-opacity:1;" stroke-linecap="round" stroke-linejoin="round"/>
</g>
<defs>
<clipPath id="clip0_132_2367">
<rect width="24" height="24" fill="white" style="fill:white;fill-opacity:1;"/>
</clipPath>
</defs>
</svg>
