<svg width="20" height="18" viewBox="0 0 20 18" fill="none" xmlns="http://www.w3.org/2000/svg">
<g id="Group">
<path id="Vector" opacity="0.16" d="M2.9173 9.89935L2.91577 9.89778C2.46926 9.44338 2.11388 8.90219 1.87068 8.30496C1.62747 7.7077 1.50139 7.06657 1.50001 6.41847C1.49863 5.77037 1.62197 5.12867 1.86263 4.53031C2.10329 3.93198 2.45637 3.38918 2.90095 2.93275C3.34551 2.47635 3.87277 2.11532 4.45212 1.86972C5.03145 1.62412 5.65183 1.4986 6.27779 1.50001C6.90375 1.50142 7.52361 1.62973 8.10189 1.87793C8.6802 2.12614 9.20594 2.48956 9.64857 2.94797L10.0022 3.31422L10.362 2.95402C11.2607 2.05431 12.4658 1.55672 13.7154 1.56476C14.9651 1.5728 16.164 2.08586 17.0518 2.99717C17.94 3.90892 18.4448 5.1459 18.4529 6.44084C18.461 7.73474 17.9725 8.9774 17.0969 9.90063L11.1398 16.0176C10.8373 16.3279 10.4301 16.4998 10.0083 16.4998C9.58646 16.4998 9.17918 16.3279 8.87676 16.0176L2.9173 9.89935Z" fill="#FFCCCC" stroke="#EE2B2B" style="fill:#FFCCCC;fill:color(display-p3 1.0000 0.8000 0.8000);fill-opacity:1;stroke:#EE2B2B;stroke:color(display-p3 0.9325 0.1675 0.1675);stroke-opacity:1;"/>
<path id="Vector_2" d="M17.4574 10.2473L11.4979 16.3667C11.1028 16.7722 10.5669 17 10.0083 17C9.44957 17 8.91376 16.7722 8.51864 16.3667L2.55913 10.2484C1.5919 9.23007 1.05441 7.86151 1.06309 6.4392C1.07177 5.01689 1.62592 3.65535 2.60551 2.64953C3.58509 1.64372 4.91121 1.07461 6.29662 1.0655C7.68203 1.05638 9.01515 1.608 10.0072 2.60085C10.995 1.58657 12.3348 1.0167 13.7319 1.0166C14.4237 1.01655 15.1087 1.15638 15.7478 1.42812C16.3869 1.69985 16.9677 2.09816 17.4569 2.60031C17.946 3.10245 18.3341 3.6986 18.5989 4.35471C18.8637 5.01083 19 5.71405 19 6.42425C19 7.13444 18.8638 7.83769 18.5992 8.49384C18.3345 9.14999 17.9465 9.74511 17.4574 10.2473Z" stroke="#EE2B2B" style="stroke:#EE2B2B;stroke:color(display-p3 0.9325 0.1675 0.1675);stroke-opacity:1;" stroke-linecap="round" stroke-linejoin="round"/>
</g>
</svg>
