<svg width="90" height="90" viewBox="0 0 90 90" fill="none" xmlns="http://www.w3.org/2000/svg">
<path opacity="0.3" d="M3.3335 45C3.3335 25.3583 3.3335 15.5375 9.4335 9.43333C15.5418 3.33333 25.3585 3.33333 45.0002 3.33333C64.6418 3.33333 74.4627 3.33333 80.5627 9.43333C86.6668 15.5417 86.6668 25.3583 86.6668 45C86.6668 64.6417 86.6668 74.4625 80.5627 80.5625C74.4668 86.6667 64.6418 86.6667 45.0002 86.6667C25.3585 86.6667 15.5377 86.6667 9.4335 80.5625C3.3335 74.4667 3.3335 64.6417 3.3335 45Z" fill="#007700" style="fill:#007700;fill:color(display-p3 0.0000 0.4667 0.0000);fill-opacity:1;"/>
<path d="M44.8199 77.76C63.0121 77.76 77.7599 63.0123 77.7599 44.82C77.7599 26.6277 63.0121 11.88 44.8199 11.88C26.6276 11.88 11.8799 26.6277 11.8799 44.82C11.8799 63.0123 26.6276 77.76 44.8199 77.76Z" stroke="#007700" style="stroke:#007700;stroke:color(display-p3 0.0000 0.4667 0.0000);stroke-opacity:1;" stroke-width="2" stroke-linecap="round" stroke-linejoin="round"/>
<path d="M43.2619 49.7923L46.5755 52.9627H50.6825V57.3199H55.031V61.56H61.5601V55.4565L49.8393 43.1663L49.9266 43.0029C50.7705 40.5943 50.7651 37.9742 49.9112 35.5691C49.0574 33.1639 47.4054 31.1154 45.2242 29.757C43.0517 28.4137 40.4776 27.8513 37.935 28.1646C35.3924 28.4779 33.0365 29.6477 31.2637 31.4771C29.4783 33.3186 28.3744 35.7026 28.1311 38.2424C27.8878 40.7821 28.5193 43.3287 29.9233 45.4689C31.312 47.6002 33.3996 49.1942 35.836 49.9837C38.2724 50.7731 40.9092 50.7099 43.304 49.8046L43.2619 49.7923Z" stroke="#007700" style="stroke:#007700;stroke:color(display-p3 0.0000 0.4667 0.0000);stroke-opacity:1;" stroke-width="2" stroke-linecap="round" stroke-linejoin="round"/>
<path d="M39.4197 42.12C40.9109 42.12 42.1197 40.9112 42.1197 39.42C42.1197 37.9288 40.9109 36.72 39.4197 36.72C37.9286 36.72 36.7197 37.9288 36.7197 39.42C36.7197 40.9112 37.9286 42.12 39.4197 42.12Z" stroke="#007700" style="stroke:#007700;stroke:color(display-p3 0.0000 0.4667 0.0000);stroke-opacity:1;" stroke-width="2" stroke-linecap="round" stroke-linejoin="round"/>
</svg>
