<svg width="20" height="20" viewBox="0 0 20 20" fill="none" xmlns="http://www.w3.org/2000/svg">
<g clip-path="url(#clip0_132_2371)">
<path d="M13.4681 2.4501C14.8021 1.11056 16.7537 1.08266 17.8346 2.1673C18.9174 3.25381 18.8877 5.21846 17.5528 6.558L15.2979 8.82125C15.1673 8.95237 15.0941 9.13003 15.0944 9.31512C15.0948 9.50021 15.1686 9.67759 15.2998 9.80822C15.4309 9.93886 15.6085 10.012 15.7936 10.0117C15.9787 10.0114 16.1561 9.93749 16.2867 9.80636L18.5416 7.54311C20.3184 5.758 20.5416 2.9087 18.8235 1.18219C17.1025 -0.545249 14.2588 -0.320133 12.4793 1.46498L7.97047 5.99241C6.19186 7.77753 5.96861 10.6268 7.68861 12.3524C7.75235 12.4211 7.82927 12.4762 7.91478 12.5145C8.00028 12.5528 8.09263 12.5734 8.1863 12.5753C8.27997 12.5771 8.37305 12.56 8.45998 12.5251C8.54692 12.4902 8.62593 12.4381 8.6923 12.372C8.75867 12.3059 8.81105 12.227 8.8463 12.1402C8.88156 12.0534 8.89896 11.9604 8.89749 11.8667C8.89602 11.7731 8.87569 11.6807 8.83772 11.595C8.79976 11.5093 8.74493 11.4322 8.67651 11.3682C7.59465 10.2817 7.62349 8.31706 8.95837 6.97753L13.4681 2.4501Z" fill="#696969" style="fill:#696969;fill:color(display-p3 0.4118 0.4118 0.4118);fill-opacity:1;"/>
<path opacity="0.5" d="M12.3113 7.64661C12.1806 7.51548 12.0031 7.44167 11.8179 7.44141C11.6327 7.44115 11.455 7.51446 11.3239 7.64522C11.1928 7.77597 11.119 7.95347 11.1187 8.13865C11.1184 8.32383 11.1918 8.50153 11.3225 8.63266C12.4053 9.71916 12.3755 11.6829 11.0407 13.0233L6.52997 17.5498C5.19602 18.8894 3.24439 18.9173 2.16346 17.8326C1.08161 16.7461 1.11044 14.7815 2.44532 13.4419L4.7002 11.1787C4.76674 11.1142 4.81978 11.0372 4.85621 10.952C4.89265 10.8668 4.91177 10.7753 4.91244 10.6826C4.91311 10.59 4.89532 10.4982 4.86012 10.4125C4.82492 10.3268 4.77301 10.249 4.70741 10.1836C4.64182 10.1181 4.56385 10.0665 4.47806 10.0315C4.39228 9.99654 4.30039 9.97901 4.20775 9.97995C4.11512 9.98088 4.0236 10.0003 3.93854 10.0369C3.85347 10.0736 3.77656 10.1269 3.7123 10.1936L1.45742 12.4568C-0.32025 14.2419 -0.543505 17.0912 1.17649 18.8187C2.89742 20.5471 5.74113 20.321 7.51973 18.5359L12.0295 14.0085C13.8062 12.2243 14.0295 9.37405 12.3113 7.64847V7.64661Z" fill="#696969" style="fill:#696969;fill:color(display-p3 0.4118 0.4118 0.4118);fill-opacity:1;"/>
</g>
<defs>
<clipPath id="clip0_132_2371">
<rect width="20" height="20" fill="white" style="fill:white;fill-opacity:1;"/>
</clipPath>
</defs>
</svg>
