<svg width="37" height="40" viewBox="0 0 37 40" fill="none" xmlns="http://www.w3.org/2000/svg">
<g id="logo 1" clip-path="url(#clip0_396_203)">
<g id="Group">
<path id="Vector" d="M24.8438 0.031311C24.1875 0.115685 23.8125 0.231312 23.1407 0.562561C22.0688 1.09069 21.0094 1.90631 20.3125 2.74381C19.9313 3.19694 19.275 4.17506 19.05 4.61881C18.8938 4.92818 18.8157 5.39381 18.6907 6.78131C18.625 7.49069 18.5969 7.86256 18.4532 9.85944C18.3157 11.7532 18.2219 12.6938 18.1594 12.8032C18.1094 12.8938 18 12.1001 17.6875 9.40631C17.2407 5.54694 17.125 4.88756 16.7188 3.93444C16.1125 2.52193 14.7 1.34694 12.9219 0.778187C12.0313 0.493813 11.3063 0.48756 10.3375 0.753185C9.4938 0.98756 8.77505 1.37194 7.97505 2.02819C7.2563 2.61568 6.85317 3.04694 5.9188 4.21881C5.04067 5.31881 4.5438 5.99381 4.35942 6.33444C4.29692 6.45319 4.23442 6.51881 4.1438 6.56569C3.98755 6.64694 3.92817 6.69381 3.1563 7.32506C2.29692 8.03131 1.92817 8.35631 1.57817 8.72506C0.853174 9.48756 0.471924 10.1126 0.225049 10.9532C0.0594238 11.5157 0.0187988 11.8251 0.0187988 12.5157C0.0219238 13.3594 0.115674 13.9844 0.303174 14.3563C0.462549 14.6782 1.03755 15.3594 1.4313 15.6969C2.0438 16.2219 3.35942 16.9126 4.32505 17.2188C5.5938 17.6188 6.81567 17.8157 9.54692 18.0626C11.7563 18.2626 12.5844 18.3626 12.8094 18.4563L12.9157 18.5001L12.8094 18.6126C12.6782 18.7469 12.5188 18.7969 12 18.8563C11.4438 18.9219 10.6938 18.9626 9.2813 19.0001C6.6813 19.0688 5.56567 19.1563 4.75005 19.3594C3.65942 19.6313 2.25317 20.5876 1.43755 21.6094C0.581299 22.6876 0.250049 23.6501 0.0781738 25.5626C0.0156738 26.2376 0.0156738 26.8782 0.0781738 27.0813C0.162549 27.3688 0.631299 28.0688 1.3063 28.9157C1.79692 29.5282 2.16255 29.9126 2.72817 30.4032L3.26567 30.8719L3.5438 31.4688C3.69692 31.7969 3.89067 32.1876 3.97505 32.3376C4.48442 33.2282 5.3438 34.3563 6.00942 35.0094C6.63755 35.6251 7.07505 35.8782 7.8813 36.0907C8.97192 36.3813 10.65 36.5063 11.3782 36.3501C12.2125 36.1751 13.2594 35.5657 14.0375 34.8063C14.3875 34.4657 14.75 33.9438 15.0469 33.3469C15.4125 32.6126 15.7032 31.4126 16.1094 28.9219C16.4094 27.1032 16.5969 26.1001 16.7188 25.7094C16.8407 25.3188 17.0219 25.1376 17.3563 25.0751L17.475 25.0532L17.4563 25.3157C17.4313 25.6594 17.325 27.9719 17.2782 29.1876C17.2375 30.2157 17.2563 31.8594 17.3125 32.3438C17.45 33.5469 17.8813 34.9813 18.4844 36.2438C18.925 37.1626 19.2969 37.6813 20.0438 38.4219C20.625 39.0001 20.9625 39.2626 21.4375 39.5001C21.8063 39.6844 22.0969 39.7782 22.725 39.9063C23.2719 40.0219 23.2875 40.0188 23.3438 39.8157C23.3594 39.7532 23.4032 39.5407 23.4407 39.3438C23.5282 38.8688 23.5094 38.6907 23.3375 38.3438C23.2188 38.1001 23.1625 38.0313 22.6188 37.4907C21.6657 36.5376 21.4094 36.2032 21.0313 35.4219C20.1625 33.6313 19.8344 32.1657 19.6719 29.3594C19.5907 27.9876 19.6094 26.8219 19.7188 26.3282C19.7813 26.0344 19.7844 26.0313 19.85 26.2188C20.175 27.1626 20.4094 28.0126 20.6844 29.2657C21.0625 30.9626 21.1407 31.1657 21.8063 32.1157C22.7157 33.4157 23.4157 34.1844 24.4063 34.9688C25.2782 35.6594 25.9157 35.9751 26.8032 36.1532C27.9719 36.3876 28.8344 36.2782 29.7813 35.7751C30.2782 35.5094 30.5782 35.2938 30.7875 35.0532C30.8938 34.9313 31.1 34.7313 31.2469 34.6063C31.8188 34.1344 32.0625 33.7751 32.7563 32.3907C33.2532 31.4032 33.5719 30.8876 34.1532 30.1407C34.5876 29.5844 34.9563 29.2407 35.3876 28.9844L35.7594 28.7657L35.9063 28.4844C35.9875 28.3282 36.1313 28.0688 36.2313 27.9063C36.5219 27.4219 36.6563 27.0094 36.7969 26.1751C36.9282 25.3844 36.9813 24.7563 36.9813 23.9844C36.9782 23.1063 36.9532 22.9844 36.6125 22.2969C35.8938 20.8501 35.0094 20.0282 33.5625 19.4594C32.85 19.1813 32.2188 19.0188 31.4844 18.9251C30.5344 18.8032 30.275 18.7969 26.7969 18.7969C24.8657 18.7969 23.3719 18.7844 23.3469 18.7688C23.3125 18.7469 23.3125 18.7376 23.35 18.7157C23.45 18.6594 24.1625 18.5688 26.1094 18.3594C28.6813 18.0813 29.3688 17.9657 30.2032 17.6563C31.5469 17.1626 32.5532 16.6219 33.6094 15.8282C34.8063 14.9282 35.4032 14.1188 35.7657 12.9032C36.0094 12.0969 36.1875 10.8782 36.1875 10.0626C36.1844 9.40944 36.1032 9.07194 35.7813 8.42194C35.3157 7.48444 34.8251 6.93756 33.9469 6.36881C33.7001 6.20944 33.1407 5.84381 32.7063 5.55631C31.5813 4.81881 31.2875 4.52506 30.45 3.31256C29.975 2.61881 29.6563 2.20943 29.3063 1.82194C28.4813 0.915688 27.4532 0.293812 26.4375 0.0906868C26.0907 0.0188103 25.2063 -0.0124397 24.8438 0.031311Z" fill="#007700" style="fill:#007700;fill:color(display-p3 0.0000 0.4667 0.0000);fill-opacity:1;"/>
</g>
</g>
<defs>
<clipPath id="clip0_396_203">
<rect width="37" height="40" fill="white" style="fill:white;fill-opacity:1;"/>
</clipPath>
</defs>
</svg>
