<svg width="84" height="84" viewBox="0 0 84 84" fill="none" xmlns="http://www.w3.org/2000/svg">
<path opacity="0.3" d="M0.333008 42C0.333008 22.3583 0.333008 12.5375 6.43301 6.43333C12.5413 0.333328 22.358 0.333328 41.9997 0.333328C61.6413 0.333328 71.4622 0.333328 77.5622 6.43333C83.6663 12.5417 83.6663 22.3583 83.6663 42C83.6663 61.6417 83.6663 71.4625 77.5622 77.5625C71.4663 83.6667 61.6413 83.6667 41.9997 83.6667C22.358 83.6667 12.5372 83.6667 6.43301 77.5625C0.333008 71.4667 0.333008 61.6417 0.333008 42Z" fill="#007700" style="fill:#007700;fill:color(display-p3 0.0000 0.4667 0.0000);fill-opacity:1;"/>
<path d="M41.8199 74.76C60.0121 74.76 74.7599 60.0123 74.7599 41.82C74.7599 23.6277 60.0121 8.88 41.8199 8.88C23.6276 8.88 8.87988 23.6277 8.87988 41.82C8.87988 60.0123 23.6276 74.76 41.8199 74.76Z" stroke="#007700" style="stroke:#007700;stroke:color(display-p3 0.0000 0.4667 0.0000);stroke-opacity:1;" stroke-width="2" stroke-linecap="round" stroke-linejoin="round"/>
<path fill-rule="evenodd" clip-rule="evenodd" d="M23 30.5V52.5C23 53.9587 23.5795 55.3576 24.6109 56.3891C25.6424 57.4205 27.0413 58 28.5 58H56C57.4587 58 58.8576 57.4205 59.8891 56.3891C60.9205 55.3576 61.5 53.9587 61.5 52.5V30.5C61.5 29.0413 60.9205 27.6424 59.8891 26.6109C58.8576 25.5795 57.4587 25 56 25H28.5C27.0413 25 25.6424 25.5795 24.6109 26.6109C23.5795 27.6424 23 29.0413 23 30.5Z" stroke="#007700" style="stroke:#007700;stroke:color(display-p3 0.0000 0.4667 0.0000);stroke-opacity:1;" stroke-width="2" stroke-linecap="round" stroke-linejoin="round"/>
<path d="M28.5 33.25L42.25 41.5L56 33.25" stroke="#007700" style="stroke:#007700;stroke:color(display-p3 0.0000 0.4667 0.0000);stroke-opacity:1;" stroke-width="2" stroke-linecap="round" stroke-linejoin="round"/>
</svg>
