<svg width="84" height="84" viewBox="0 0 84 84" fill="none" xmlns="http://www.w3.org/2000/svg">
<path opacity="0.3" d="M0.333496 41.9999C0.333496 22.3583 0.333496 12.5374 6.4335 6.43325C12.5418 0.333252 22.3585 0.333252 42.0002 0.333252C61.6418 0.333252 71.4627 0.333252 77.5627 6.43325C83.6668 12.5416 83.6668 22.3583 83.6668 41.9999C83.6668 61.6416 83.6668 71.4624 77.5627 77.5624C71.4668 83.6666 61.6418 83.6666 42.0002 83.6666C22.3585 83.6666 12.5377 83.6666 6.4335 77.5624C0.333496 71.4666 0.333496 61.6416 0.333496 41.9999Z" fill="#007700" style="fill:#007700;fill:color(display-p3 0.0000 0.4667 0.0000);fill-opacity:1;"/>
<path d="M41.8199 74.7599C60.0121 74.7599 74.7599 60.0121 74.7599 41.8199C74.7599 23.6276 60.0121 8.87988 41.8199 8.87988C23.6276 8.87988 8.87988 23.6276 8.87988 41.8199C8.87988 60.0121 23.6276 74.7599 41.8199 74.7599Z" stroke="#007700" style="stroke:#007700;stroke:color(display-p3 0.0000 0.4667 0.0000);stroke-opacity:1;" stroke-width="2" stroke-linecap="round" stroke-linejoin="round"/>
<path d="M27.9608 54.6667C27.1175 54.6667 26.4135 54.3843 25.8488 53.8197C25.2829 53.2538 25 52.5492 25 51.7058V31.9608C25 31.1175 25.2829 30.4135 25.8488 29.8488C26.4135 29.2829 27.1175 29 27.9608 29H55.0392C55.8825 29 56.5865 29.2829 57.1512 29.8488C57.7171 30.4135 58 31.1175 58 31.9608V51.7058C58 52.5492 57.7177 53.2532 57.153 53.8178C56.5871 54.3837 55.8825 54.6667 55.0392 54.6667H27.9608ZM31.699 47.1225H33.173V36.5442H31.9447L28.949 38.6947L29.7667 39.8515L31.699 38.5187V47.1225ZM37.3108 47.1225H44.0392V45.7108H39.4467L39.4247 45.5495C39.9722 45.0557 40.4703 44.5772 40.9188 44.114C41.3674 43.6508 41.8196 43.1802 42.2755 42.7023C42.7766 42.1743 43.1414 41.6531 43.37 41.1385C43.5986 40.6239 43.7128 40.0611 43.7128 39.45C43.7128 38.6103 43.4116 37.9161 42.809 37.3673C42.2077 36.8186 41.4346 36.5442 40.4898 36.5442C39.8127 36.5442 39.1772 36.7385 38.5832 37.1272C37.9879 37.5146 37.5565 38.0279 37.2888 38.6672L38.7005 39.2593C38.8753 38.8621 39.1258 38.5492 39.4522 38.3207C39.7773 38.0909 40.1232 37.976 40.4898 37.976C41.0191 37.976 41.4468 38.1159 41.7732 38.3958C42.0971 38.6757 42.259 39.0577 42.259 39.5417C42.259 39.9242 42.1863 40.2609 42.0408 40.5518C41.8954 40.8427 41.6082 41.2253 41.1792 41.6995C40.5619 42.3876 39.9618 43.0116 39.3788 43.5713C38.7958 44.1311 38.1059 44.7972 37.309 45.5697V47.1225H37.3108ZM50.6667 47.1225C51.6493 47.1225 52.4474 46.8341 53.061 46.2572C53.6746 45.6827 53.9813 44.9414 53.9813 44.0333C53.9813 43.366 53.8102 42.8239 53.468 42.4072C53.1282 41.9916 52.6479 41.7087 52.027 41.5583V41.4667C52.5489 41.3396 52.9437 41.0969 53.2113 40.7388C53.4802 40.3807 53.6147 39.9065 53.6147 39.3162C53.6147 38.4912 53.3348 37.8232 52.775 37.3123C52.2152 36.8014 51.4819 36.5454 50.575 36.5442C49.717 36.5442 49.0417 36.766 48.5492 37.2097C48.0566 37.6521 47.6954 38.0768 47.4657 38.4838L48.804 39.076C48.9507 38.7338 49.1847 38.4612 49.5062 38.2583C49.8288 38.0567 50.1851 37.9558 50.575 37.9558C51.0431 37.9558 51.4244 38.0878 51.719 38.3518C52.0136 38.6158 52.1608 38.9513 52.1608 39.3583C52.1608 39.8326 51.9848 40.2157 51.6328 40.5078C51.2796 40.7987 50.8353 40.9442 50.3 40.9442H49.6858V42.3558H50.3917C51.0737 42.3558 51.6004 42.4952 51.972 42.7738C52.3423 43.0549 52.5275 43.4442 52.5275 43.9417C52.5275 44.4098 52.3423 44.818 51.972 45.1663C51.6004 45.5159 51.1653 45.6907 50.6667 45.6907C50.1472 45.6907 49.7207 45.5758 49.387 45.346C49.0533 45.1174 48.7679 44.7361 48.5308 44.202L47.1907 44.7245C47.451 45.4701 47.8861 46.0561 48.496 46.4827C49.1071 46.9092 49.8307 47.1225 50.6667 47.1225ZM27.9608 52.8333H55.0392C55.3679 52.8333 55.6381 52.7276 55.8495 52.5162C56.0609 52.3047 56.1667 52.0346 56.1667 51.7058V31.9608C56.1667 31.6321 56.0609 31.3619 55.8495 31.1505C55.6381 30.9391 55.3679 30.8333 55.0392 30.8333H27.9608C27.6321 30.8333 27.3619 30.9391 27.1505 31.1505C26.9391 31.3619 26.8333 31.6321 26.8333 31.9608V51.7058C26.8333 52.0346 26.9391 52.3047 27.1505 52.5162C27.3619 52.7276 27.6321 52.8333 27.9608 52.8333Z" fill="#007700" style="fill:#007700;fill:color(display-p3 0.0000 0.4667 0.0000);fill-opacity:1;"/>
</svg>
