<svg width="84" height="84" viewBox="0 0 84 84" fill="none" xmlns="http://www.w3.org/2000/svg">
<path opacity="0.3" d="M0.333008 42C0.333008 22.3583 0.333008 12.5375 6.43301 6.43333C12.5413 0.333328 22.358 0.333328 41.9997 0.333328C61.6413 0.333328 71.4622 0.333328 77.5622 6.43333C83.6663 12.5417 83.6663 22.3583 83.6663 42C83.6663 61.6417 83.6663 71.4625 77.5622 77.5625C71.4663 83.6667 61.6413 83.6667 41.9997 83.6667C22.358 83.6667 12.5372 83.6667 6.43301 77.5625C0.333008 71.4667 0.333008 61.6417 0.333008 42Z" fill="#007700" style="fill:#007700;fill:color(display-p3 0.0000 0.4667 0.0000);fill-opacity:1;"/>
<path d="M41.8199 74.76C60.0121 74.76 74.7599 60.0123 74.7599 41.82C74.7599 23.6277 60.0121 8.88 41.8199 8.88C23.6276 8.88 8.87988 23.6277 8.87988 41.82C8.87988 60.0123 23.6276 74.76 41.8199 74.76Z" stroke="#007700" style="stroke:#007700;stroke:color(display-p3 0.0000 0.4667 0.0000);stroke-opacity:1;" stroke-width="2" stroke-linecap="round" stroke-linejoin="round"/>
<path d="M41.5 58C43.6672 58.0028 45.8136 57.5773 47.8159 56.7479C49.8181 55.9185 51.6367 54.7016 53.1671 53.1671C54.7016 51.6367 55.9185 49.8181 56.7479 47.8159C57.5773 45.8136 58.0028 43.6672 58 41.5C58.0027 39.3328 57.5772 37.1864 56.7478 35.1842C55.9185 33.1819 54.7016 31.3633 53.1671 29.8329C51.6367 28.2984 49.8181 27.0815 47.8159 26.2521C45.8136 25.4227 43.6672 24.9972 41.5 25C39.3328 24.9973 37.1864 25.4228 35.1842 26.2522C33.1819 27.0815 31.3633 28.2984 29.8329 29.8329C28.2984 31.3633 27.0815 33.1819 26.2522 35.1842C25.4228 37.1864 24.9973 39.3328 25 41.5C24.9972 43.6672 25.4227 45.8136 26.2521 47.8159C27.0815 49.8181 28.2984 51.6367 29.8329 53.1671C31.3633 54.7016 33.1819 55.9185 35.1842 56.7478C37.1864 57.5772 39.3328 58.0027 41.5 58Z" stroke="#007700" style="stroke:#007700;stroke:color(display-p3 0.0000 0.4667 0.0000);stroke-opacity:1;" stroke-width="2" stroke-linejoin="round"/>
<path d="M34.9004 41.5L39.8504 46.45L49.7504 36.55" stroke="#007700" style="stroke:#007700;stroke:color(display-p3 0.0000 0.4667 0.0000);stroke-opacity:1;" stroke-width="2" stroke-linecap="round" stroke-linejoin="round"/>
</svg>
